<svg xmlns="http://www.w3.org/2000/svg" width="30.09" height="30.161" viewBox="0 0 30.09 30.161">
  <path id="feather_phone_call" data-name="feather phone call" d="M22.623,7.862a6.723,6.723,0,0,1,5.288,5.252l.007.043M22.623,2.5A12.083,12.083,0,0,1,33.275,13.087l.005.056m-1.34,10.7v4.032a2.681,2.681,0,0,1-2.681,2.681c-.085,0-.169,0-.252-.012h.011a26.462,26.462,0,0,1-11.669-4.177l.1.062a26.369,26.369,0,0,1-7.981-7.939l-.062-.1a26.205,26.205,0,0,1-4.1-11.5l-.011-.118c-.007-.072-.011-.157-.011-.241A2.681,2.681,0,0,1,7.958,3.84h4.048a2.682,2.682,0,0,1,2.653,2.291l0,.014a17.176,17.176,0,0,0,.978,3.885l-.04-.118a2.635,2.635,0,0,1,.172.943A2.673,2.673,0,0,1,15,12.741l-1.7,1.7a21.616,21.616,0,0,0,7.939,7.988l.1.055,1.7-1.7a2.685,2.685,0,0,1,2.847-.6l-.018-.006a16.553,16.553,0,0,0,3.678.929l.089.01a2.685,2.685,0,0,1,2.307,2.655c0,.024,0,.047,0,.07v0Z" transform="translate(-4.28 -1.393)" fill="none" stroke="#fff" stroke-linecap="round" stroke-linejoin="round" stroke-width="2"/>
</svg>
