<svg xmlns="http://www.w3.org/2000/svg" width="84.58" height="78.785" viewBox="0 0 84.58 78.785">
  <g id="Group_2344" data-name="Group 2344" transform="translate(-1299.067 -315.507)">
    <g id="Shadow" transform="translate(1300.713 336.323)">
      <path id="Path_15999" data-name="Path 15999" d="M1329.951,363.087c-5.583,2.386-9.99,6.893-13.687,11.71a160.422,160.422,0,0,0-9.687,14.741,26.007,26.007,0,0,0-3.627,7.844c-1.361,6.4,2.449,13.072,7.89,16.7s12.183,4.714,18.717,4.961c7.892.3,16.095-.59,22.93-4.545a18.265,18.265,0,0,0,6.683-6.212,25.025,25.025,0,0,0,2.679-8.315c1.224-6.51,2.067-13.222.883-19.739C1360.049,365.462,1344.024,357.073,1329.951,363.087Z" transform="translate(-1302.673 -361.124)" fill="#eef5e8"/>
    </g>
    <g id="Object" transform="translate(1299.067 315.507)">
      <g id="Group_2343" data-name="Group 2343">
        <path id="Path_16000" data-name="Path 16000" d="M1445.515,373.107a.591.591,0,0,0,.073.015.646.646,0,0,0,.644-.313,12.457,12.457,0,0,1,1.05-1.447l.387-.489a11.207,11.207,0,0,0,1.861-9.89,1.258,1.258,0,0,0-.323-.58,1.217,1.217,0,0,0-1.428-.1,4.957,4.957,0,0,0-2.293,3.081,17.711,17.711,0,0,0-.436,9.27A.648.648,0,0,0,1445.515,373.107Zm1.2-9.323h0a3.794,3.794,0,0,1,1.611-2.313,9.891,9.891,0,0,1-1.678,8.609l-.375.474c-.081.1-.163.2-.244.308A17.323,17.323,0,0,1,1446.714,363.783Z" transform="translate(-1378.203 -339.762)" fill="#6d6d6d"/>
        <path id="Path_16001" data-name="Path 16001" d="M1456.478,372.73a1.28,1.28,0,0,0,.776.726c.036.012.071.023.107.032,1.327.339,2.895-1.315,4.321-3.067a9.322,9.322,0,0,0,2.261-6.036,1.13,1.13,0,0,0-.636-1.127,1.218,1.218,0,0,0-.825,0,8.437,8.437,0,0,0-5,4.782C1456.423,370.382,1456.106,371.873,1456.478,372.73Zm2.179-4.163a7.279,7.279,0,0,1,3.994-4,8.2,8.2,0,0,1-2.038,5.119c-2.2,2.707-2.871,2.569-2.938,2.554C1457.672,372.233,1457.259,371.677,1458.658,368.568Z" transform="translate(-1384.567 -341.427)" fill="#6d6d6d"/>
        <path id="Path_16002" data-name="Path 16002" d="M1393.677,346.042c-.109.007-8.233.66-8.821,3.176a52.375,52.375,0,0,0-20.059,3.524c-1.179.458-2.242.923-3.227,1.407a12.244,12.244,0,0,0,.318-1.954c.026-.245.051-.473.079-.67a26.078,26.078,0,0,0-1.341-12.776.647.647,0,0,0-1.211-.005l-1.971,5.17a15.932,15.932,0,0,0-1.484,6.826c.121,1.532.983,4.086,2.861,4.941-.217.138-.432.278-.642.421a29.343,29.343,0,0,0-11.544,14.99c-.057-.412-.1-.815-.171-1.235-.158-1.017-.337-2.034-.516-3.052a44.144,44.144,0,0,1-1-11.262c.472-5.536,3.12-10.7,5.374-14.578a98.189,98.189,0,0,1,5.806-8.852c.168,1.57,2.418,3.161,2.443,3.179a7.184,7.184,0,0,0,2.277,1.024,7.415,7.415,0,0,0,2.818.168,3.849,3.849,0,0,0,2.565-1.248,2.293,2.293,0,0,0-.1-3.1,2.992,2.992,0,0,0-1.312-.6h0c-.279-.071-.621-.169-1.005-.279-2.525-.722-4.91-1.323-6.389-.869q.561-.728,1.132-1.445a21.543,21.543,0,0,0,3.435,1.309,5.521,5.521,0,0,0,2.15.191,17.74,17.74,0,0,0,3.9-1.235,11.847,11.847,0,0,0,3.781-2.114c.788-.737,1.317-1.948.613-2.861a2.3,2.3,0,0,0-1.662-.748,19.489,19.489,0,0,0-7.786.909,5.152,5.152,0,0,0,.469-1.022,22.335,22.335,0,0,0,.873-6.161c.038-1.28-.643-1.593-.939-1.669a1.476,1.476,0,0,0-1.3.411c-1.516,1.29-2.477,3.263-2.94,6.033l-.075.48c-.108.723-.216,1.345-.323,1.878a42.416,42.416,0,0,0-1.38-5.262,2.7,2.7,0,0,0-1.657-1.972c-.034-.009-.07-.017-.107-.024a2.039,2.039,0,0,0-2.164,1.319,4.124,4.124,0,0,0-.135,2.17c.289,1.989.822,4.857,2.133,6.8a3.386,3.386,0,0,0,1.593,1.411q-.871,1.107-1.711,2.239a13.859,13.859,0,0,0-1-2.845h0a6.913,6.913,0,0,0-3.51-3.563,2.046,2.046,0,0,0-2.309.261,1.761,1.761,0,0,0-.339,1.751,3.829,3.829,0,0,0,.72,1.212c.222.28.508.689.835,1.157,1.451,2.072,2.756,3.825,3.972,4.283q-1.869,2.672-3.557,5.46a12.367,12.367,0,0,0-1.284-3.367,10.656,10.656,0,0,0-5.531-4.982.643.643,0,0,0-.775.248,2.26,2.26,0,0,0-.037,1.99c.961,2.693,3.234,6.391,6.49,8.033-2.276,3.957-4.867,9.146-5.346,14.774-.044.518-.068,1.036-.079,1.553-3.226-5.515-8.112-9.15-13.323-12.833a3.243,3.243,0,0,0,1.009-.705,9.875,9.875,0,0,0,2.668-5.8c.075-.9-.323-1.588-1-1.7a1.376,1.376,0,0,0-.657.058,4.7,4.7,0,0,0-2.652,2.212,8.554,8.554,0,0,0-.987,3.123h0a5.713,5.713,0,0,0-.043,1.639q-.816-.576-1.636-1.164c.946-.909,1.183-2.91,1.235-3.582a7.052,7.052,0,0,0-1.194-4.772,2.277,2.277,0,0,0-2.91-.932,2.434,2.434,0,0,0-.964,1.8h0c-.223,1.485-.422,5.688,1.322,7.282a2.881,2.881,0,0,0,.652.459c1.146.837,2.293,1.648,3.427,2.446,6.174,4.35,12.005,8.462,15.146,15.479.185,2.373.6,4.727,1,7.033.177,1.01.354,2.02.513,3.029a48.869,48.869,0,0,1,.353,14.586,21.928,21.928,0,0,0-5.339-9.086c-1.237-1.356-2.576-2.645-3.873-3.892l-.567-.546a2.592,2.592,0,0,0,1.944-.94,5.853,5.853,0,0,0,1.24-4.371c-.153-.846-.753-1.728-1.681-1.675-.45.028-1.249.3-1.54,1.84-.073.376-.168.776-.266,1.185a12.245,12.245,0,0,0-.479,3.2q-.567-.555-1.128-1.123a3.05,3.05,0,0,0,.7-1.282,14.285,14.285,0,0,0-.22-8.29c-.5-1.594-1.39-1.877-1.869-1.9a2.056,2.056,0,0,0-1.6.758c-1.53,1.639-1.39,4.011-1.076,5.545a8.946,8.946,0,0,0-3.365-4.186c-1.03-.683-2.486-1.1-3.5-.221a2.357,2.357,0,0,0-.514,2.652,4.564,4.564,0,0,0,1.551,1.828,19.02,19.02,0,0,0,3.933,2.2,11.338,11.338,0,0,0,1.607.481.263.263,0,0,0,.044.012c.188.05.371.1.544.162a59.05,59.05,0,0,0,5.335,5.608c1.28,1.232,2.6,2.505,3.813,3.831,3.681,4.041,5.51,7.993,5.435,11.746a.646.646,0,0,0,.486.639.677.677,0,0,0,.147.02,1.245,1.245,0,0,0,.855-.631,41.193,41.193,0,0,0,.866-13.6,27.671,27.671,0,0,1,11.871-17.427,31.129,31.129,0,0,1,6.36-3.224,51.229,51.229,0,0,1,12.161-3.062c-.777,1.15-.9,3.473-.886,5.9v.37a4.341,4.341,0,0,0,.256,1.811,1.417,1.417,0,0,0,.915.864,1.148,1.148,0,0,0,.186.031c.3.026,1.045-.044,1.447-1.252.282-.852.534-1.719.749-2.577h0c.01-.04.979-3.991-.209-5.4a49.437,49.437,0,0,1,5.057-.126.6.6,0,0,0,.141-.025,1.635,1.635,0,0,0,.3.334,2.563,2.563,0,0,0,1.008.47c2.274.582,6.332-.425,6.791-.59a4.733,4.733,0,0,0,2.8-2.113,1.842,1.842,0,0,0,.224-1.165C1396.049,346.471,1395.072,345.94,1393.677,346.042Zm-33.818-4.467c-.174,4.255-.135,8.554-.1,12.732v0c-1.38-1.628-1.874-4.191-1.356-7.115a35.132,35.132,0,0,1,.887-3.554C1359.489,342.964,1359.686,342.274,1359.86,341.575Zm.828,9.764c-.031.212-.057.457-.085.719a6.864,6.864,0,0,1-.515,2.334V354.3c-.038-4.128-.064-8.373.1-12.574A24.9,24.9,0,0,1,1360.688,351.339Zm-3.438-.7a14.958,14.958,0,0,1,1.4-6.264l.384-1.007-.053.188a35.772,35.772,0,0,0-.9,3.586c-.543,3.071.016,5.757,1.514,7.455a1.279,1.279,0,0,1-.2-.067C1358.207,354.022,1357.368,352.152,1357.25,350.638Zm4.559-18.591c.6.153,1.17.316,1.652.453a5.725,5.725,0,0,1,1.817.605,1.02,1.02,0,0,1-.047,1.308,2.749,2.749,0,0,1-1.739.789,6.069,6.069,0,0,1-4.19-.978c-.9-.617-1.949-1.812-1.892-2.325,0-.032.014-.13.286-.24C1358.536,331.32,1360.264,331.652,1361.809,332.047Zm8.832-7.276c.272.03.646.086.773.252.181.235-.1.782-.473,1.127a10.662,10.662,0,0,1-3.381,1.86,16.818,16.818,0,0,1-3.615,1.157c-1.145.177-3.062-.6-4.485-1.233a20.517,20.517,0,0,0,1.64-1.327A17.793,17.793,0,0,1,1370.641,324.77Zm-10.281-2.113.07-.459a8.544,8.544,0,0,1,2.5-5.262c.033-.028.063-.052.087-.07a1.5,1.5,0,0,1,.017.306,20.82,20.82,0,0,1-.81,5.8,6.525,6.525,0,0,1-1.877,2.563q-.321.178-.624.371A29.8,29.8,0,0,0,1360.359,322.658Zm-5.765-2.267a3.028,3.028,0,0,1,.052-1.5c.135-.332.472-.582.723-.534l.025.006c.279.071.527.442.757,1.131.83,2.483,1.808,6.458,1.549,7.914a.447.447,0,0,1-.217.142c-.109.024-.444-.132-.965-.9A15.479,15.479,0,0,1,1354.594,320.39Zm-3.81,7.86c-.345-.493-.647-.924-.881-1.217a2.75,2.75,0,0,1-.5-.8.525.525,0,0,1,.042-.47.709.709,0,0,1,.628-.042,2.082,2.082,0,0,1,.257.084,5.646,5.646,0,0,1,2.83,2.919,9.781,9.781,0,0,1,1,3.346C1353.229,331.742,1351.7,329.562,1350.785,328.25Zm-26.378,6.27c.075-.491.2-.783.367-.891.3-.184.869.171,1.191.605a5.777,5.777,0,0,1,.944,3.9c-.108,1.376-.547,2.676-.96,2.838a.294.294,0,0,1-.193-.025c-.065-.047-.13-.092-.194-.14a.635.635,0,0,0-.129-.059c-.037-.03-.073-.056-.112-.091C1324.221,339.649,1324.126,336.4,1324.407,334.52Zm5.513,7.009a7.327,7.327,0,0,1,.828-2.661,3.489,3.489,0,0,1,1.885-1.609,1.042,1.042,0,0,1,.012.283,8.591,8.591,0,0,1-2.277,4.976,2.7,2.7,0,0,1-.474.383A4.073,4.073,0,0,1,1329.92,341.529Zm6.8,25.929c.1-.43.2-.849.279-1.244h0c.113-.594.3-.788.348-.791a.021.021,0,0,1,.01,0,.9.9,0,0,1,.32.613,4.536,4.536,0,0,1-.932,3.279,1.7,1.7,0,0,1-.454.374A16.156,16.156,0,0,1,1336.717,367.457Zm-8.292-2.307a17.949,17.949,0,0,1-3.67-2.042,3.41,3.41,0,0,1-1.137-1.288,1.1,1.1,0,0,1,.163-1.189,1.065,1.065,0,0,1,.974-.121,3.271,3.271,0,0,1,.96.443,7.687,7.687,0,0,1,3.134,4.346A3.789,3.789,0,0,1,1328.425,365.151Zm3.391-5.75a.9.9,0,0,1,.581-.35c.248.018.517.4.7,1a12.949,12.949,0,0,1,.225,7.5,3.05,3.05,0,0,1-.261.621,6.68,6.68,0,0,1-.573-.765c-.061-.091-.123-.182-.186-.271-.105-.272-.265-.663-.434-1.077-.261-.64-.655-1.607-.709-1.818C1330.854,363.025,1330.529,360.78,1331.816,359.4Zm-1.588,6.042h-.013c-.005-.025-.01-.049-.016-.074Zm48.613-9.72c-.208.828-.452,1.664-.723,2.484a1.434,1.434,0,0,1-.121.28l-.014-.031a3.244,3.244,0,0,1-.15-1.284v-.387c-.024-4.906.705-5.318.852-5.351a.342.342,0,0,1,.155-.01.106.106,0,0,1,.055.034C1379.4,351.971,1379.147,354.511,1378.842,355.723Zm16-7.729a3.545,3.545,0,0,1-2.093,1.492c-1.136.407-5.561,1.144-6.539.34a.282.282,0,0,1-.1-.316c.139-.9,4.8-1.976,7.658-2.178h0a2.538,2.538,0,0,1,.778.057c.223.057.375.149.394.258A.591.591,0,0,1,1394.844,347.994Z" transform="translate(-1311.658 -315.507)" fill="#6d6d6d"/>
        <path id="Path_16003" data-name="Path 16003" d="M1457.47,393.985c-.16-.071-.351-.169-.563-.277-1.19-.607-2.988-1.528-4.034-.307-1.1,1.287.123,3.753.738,5a20.634,20.634,0,0,0,3.286,4.8,6.531,6.531,0,0,0,2.845,2.016l.134.037a2.729,2.729,0,0,0,2.718-.663,3.379,3.379,0,0,0,.55-2.832,9.559,9.559,0,0,0-3.1-6.3A10.848,10.848,0,0,0,1457.47,393.985Zm2.64,9.984a5.381,5.381,0,0,1-2.26-1.651,19.412,19.412,0,0,1-3.109-4.552c-1.022-2.063-1.123-2.974-.972-3.372a33.2,33.2,0,0,0,1.98,2.922c.428.546.894,1.073,1.344,1.583.418.475.852.965,1.251,1.466.261.329.513.668.767,1.008a14.557,14.557,0,0,0,2.231,2.55A1.888,1.888,0,0,1,1460.11,403.969Zm1.52-.251c0,.005-.01.008-.015.013a13.943,13.943,0,0,1-2.245-2.551c-.255-.342-.509-.684-.774-1.016-.4-.508-.84-1-1.261-1.479-.448-.506-.909-1.029-1.332-1.568a33.992,33.992,0,0,1-2.01-2.973,1.128,1.128,0,0,1,.686.016,8.931,8.931,0,0,1,1.639.7c.237.121.452.23.631.309a9.756,9.756,0,0,1,2.276,1.282,8.666,8.666,0,0,1,2.637,5.486C1461.995,402.843,1461.924,403.392,1461.63,403.718Z" transform="translate(-1382.448 -357.53)" fill="#6d6d6d"/>
        <path id="Path_16004" data-name="Path 16004" d="M1309.875,379.2c.218-.078.525-.172.887-.282,2.324-.71,6.213-1.9,5.538-4.157a2.352,2.352,0,0,0-1.2-1.456c-1.64-.86-4.283-.177-6.4.512-1.575.513-3.5,1.323-4.432,3.054a2.276,2.276,0,0,0,.178,2.7,1.864,1.864,0,0,0,.843.454,3.324,3.324,0,0,0,1.16.055A14.789,14.789,0,0,0,1309.875,379.2Zm-4.472-1.715c.713-1.326,2.348-2,3.693-2.437,1-.325,4.033-1.317,5.4-.6a1.071,1.071,0,0,1,.561.68c.308,1.029-3.444,2.174-4.676,2.551-.386.117-.713.217-.944.3a13.671,13.671,0,0,1-3.128.816,1.274,1.274,0,0,1-.973-.154C1305.1,378.412,1305.193,377.873,1305.4,377.483Z" transform="translate(-1301.698 -346.712)" fill="#6d6d6d"/>
        <path id="Path_16005" data-name="Path 16005" d="M1300.855,362.469a32.5,32.5,0,0,0,4.675,1.688c1.6.409,2.73.437,3.379.08a1.373,1.373,0,0,0,.72-1.021,1.7,1.7,0,0,0-.37-1.3c-1.353-1.815-6.34-3.092-7.25-3.212h0a3.539,3.539,0,0,0-1.653.087,1.853,1.853,0,0,0-1.283,1.541C1299.029,360.934,1299.3,361.792,1300.855,362.469Zm-.494-2.047c.011-.155.194-.335.416-.413a2.425,2.425,0,0,1,1.06-.027c1.257.168,5.453,1.454,6.386,2.7a.385.385,0,0,1,.063.417c-.551.3-2.691.009-6.96-1.84C1300.713,361,1300.343,360.675,1300.361,360.422Z" transform="translate(-1299.067 -338.96)" fill="#6d6d6d"/>
        <path id="Path_16006" data-name="Path 16006" d="M1324.366,384.767a2.156,2.156,0,0,0,.323,2.478,1.878,1.878,0,0,0,.842.459,2.316,2.316,0,0,0,1.2-.022,4.063,4.063,0,0,0,1.53-.9c.036-.03,3.43-3.212,2.562-4.728-.552-.965-2.038-.456-2.6-.263a8.621,8.621,0,0,0-2.41,1.4A4.649,4.649,0,0,0,1324.366,384.767Zm4.275-1.758a3.541,3.541,0,0,1,1.019-.235,9.041,9.041,0,0,1-2.247,3.023,2.916,2.916,0,0,1-1.036.64.855.855,0,0,1-.793-.124.912.912,0,0,1-.054-.981,3.5,3.5,0,0,1,1.068-1.118A7.488,7.488,0,0,1,1328.641,383.009Z" transform="translate(-1312.688 -351.375)" fill="#6d6d6d"/>
        <path id="Path_16007" data-name="Path 16007" d="M1317.044,437.279a3.938,3.938,0,0,0,1.26.073c3.127-.244,8.569-1.051,9.886-3.7a1.809,1.809,0,0,0-.121-2.152c-1.561-1.786-7.381-.687-8.292-.377-2.331.792-3.818,2.225-4.078,3.929a2.078,2.078,0,0,0,.3,1.545A1.787,1.787,0,0,0,1317.044,437.279Zm-.066-2.036c.262-1.72,2.337-2.6,3.216-2.9a15.756,15.756,0,0,1,6.161-.371,1.462,1.462,0,0,1,.741.375c.051.058.189.216-.064.725-.744,1.5-4.044,2.617-8.827,2.991-.628.047-1.018-.027-1.156-.222A.867.867,0,0,1,1316.978,435.243Z" transform="translate(-1308.092 -378.027)" fill="#6d6d6d"/>
        <path id="Path_16008" data-name="Path 16008" d="M1334.8,445.385a1.305,1.305,0,0,0,.157,1.516,1.157,1.157,0,0,0,.543.3,1.745,1.745,0,0,0,.355.049,4.846,4.846,0,0,0,2.936-1.063,8.461,8.461,0,0,0,3-3.175.647.647,0,0,0-.125-.688,2.768,2.768,0,0,0-3.723-.55A7.409,7.409,0,0,0,1334.8,445.385Zm4.633-2.8a1.169,1.169,0,0,1,.337.039,1.932,1.932,0,0,1,.618.294,9.123,9.123,0,0,1-2.343,2.214,3.611,3.611,0,0,1-2.077.818c.009-.024.018-.051.03-.08a6.118,6.118,0,0,1,2.591-2.977A1.905,1.905,0,0,1,1339.436,442.587Z" transform="translate(-1318.411 -383.895)" fill="#6d6d6d"/>
        <path id="Path_16009" data-name="Path 16009" d="M1414.945,418.927a.646.646,0,0,0,.564-.854,17.361,17.361,0,0,0-6.512-8.608h0c-1.452-1-6.37-4.135-8.653-2.3a2.275,2.275,0,0,0-.91,1.735c-.042,1.625,1.579,3.213,3.1,4.575l.253.228a20.182,20.182,0,0,0,8.352,4.864A11.806,11.806,0,0,0,1414.945,418.927Zm-14.1-10.4c.794.436,1.684.88,2.555,1.314,1.117.556,2.272,1.13,3.2,1.678a23.672,23.672,0,0,1,3.764,2.559,15.186,15.186,0,0,1,2.407,2.976c.125.185.252.371.38.557h-.005a47.061,47.061,0,0,1-11.426-7.876,5.9,5.9,0,0,1-.946-1.063A.864.864,0,0,1,1400.843,408.529Zm2.445-.487a17.274,17.274,0,0,1,4.974,2.486h0a16.071,16.071,0,0,1,5.715,7.135c-.136,0-.271-.015-.407-.022-.178-.255-.357-.511-.53-.766a15.489,15.489,0,0,0-2.459-3.036,23.955,23.955,0,0,0-3.814-2.6c-.941-.554-2.1-1.132-3.225-1.69-.848-.422-1.717-.855-2.493-1.279a1.332,1.332,0,0,1,.105-.1A2.505,2.505,0,0,1,1403.287,408.042Zm.37,4.7-.262-.235c-.75-.67-2.433-2.175-2.647-3.317a8.1,8.1,0,0,0,.751.782,47.362,47.362,0,0,0,10.63,7.486A18.6,18.6,0,0,1,1403.658,412.743Z" transform="translate(-1353.633 -365.031)" fill="#6d6d6d"/>
        <path id="Path_16010" data-name="Path 16010" d="M1355.882,375.835a1.232,1.232,0,0,0,.664-.018c1.649-.505,2.493-4.677,2.434-5.6a20.053,20.053,0,0,0-1.119-4.815.635.635,0,0,0-.543-.444.645.645,0,0,0-.627.313c-.8,1.35-3.478,6.929-1.942,9.556A1.931,1.931,0,0,0,1355.882,375.835Z" transform="translate(-1329.086 -342.392)" fill="#6d6d6d"/>
        <path id="Path_16011" data-name="Path 16011" d="M1338.376,335.039a2.989,2.989,0,0,0-1.079.61,2.532,2.532,0,0,0-1.06,2.229,2.414,2.414,0,0,0,.485,1.093,3.084,3.084,0,0,0,1.669,1.185,2.27,2.27,0,0,0,.34.061,2.8,2.8,0,0,0,2.369-1.058,2.161,2.161,0,0,0,.547-1.744,2.287,2.287,0,0,0-.313-.777C1340.723,335.628,1339.629,334.678,1338.376,335.039Z" transform="translate(-1319.266 -326.084)" fill="#6d6d6d"/>
        <path id="Path_16012" data-name="Path 16012" d="M1354.4,333.355a1.837,1.837,0,0,0,.015-.707,3.225,3.225,0,0,0-.135-.668,2.078,2.078,0,0,0-1.672-1.448,2.007,2.007,0,0,0-1.942.934h0a2.491,2.491,0,0,0-.175,2.382,2.023,2.023,0,0,0,1.305,1.175,1.638,1.638,0,0,0,.287.047,2.392,2.392,0,0,0,1.88-.975A1.765,1.765,0,0,0,1354.4,333.355Zm-1.268-.545a1.115,1.115,0,0,1,.016.224.851.851,0,0,1-.15.2c-.338.377-.615.561-.824.546a.706.706,0,0,1-.5-.458,1.221,1.221,0,0,1,.069-1.137.731.731,0,0,1,.7-.371.807.807,0,0,1,.619.582A2.22,2.22,0,0,1,1353.127,332.81Z" transform="translate(-1326.902 -323.666)" fill="#6d6d6d"/>
        <path id="Path_16013" data-name="Path 16013" d="M1343.207,326.155c.073.023.156.048.249.073a1.634,1.634,0,0,0,1.039-.03,1.555,1.555,0,0,0,.888-1.521,2.224,2.224,0,0,0-1.125-1.828,1.58,1.58,0,0,0-1.632.068,1.978,1.978,0,0,0-.825,1.238,1.623,1.623,0,0,0,.015.893A1.954,1.954,0,0,0,1343.207,326.155Zm-.147-1.705a.72.72,0,0,1,.262-.443.292.292,0,0,1,.243-.052.433.433,0,0,1,.089.035.942.942,0,0,1,.438.724.4.4,0,0,1-.083.285.945.945,0,0,1-.414-.079c-.473-.148-.541-.252-.55-.28A.4.4,0,0,1,1343.06,324.45Z" transform="translate(-1322.271 -319.392)" fill="#6d6d6d"/>
        <path id="Path_16014" data-name="Path 16014" d="M1395.069,433.845a2.4,2.4,0,0,0-.908.778,2.95,2.95,0,0,0-.617,2.281,2.8,2.8,0,0,0,1.689,1.967,2.875,2.875,0,0,0,.412.141,2.016,2.016,0,0,0,1.417-.114,2.291,2.291,0,0,0,.653-.523c.793-.875,1.391-2.2.685-3.291a2.967,2.967,0,0,0-.893-.861A2.532,2.532,0,0,0,1395.069,433.845Z" transform="translate(-1350.41 -379.753)" fill="#6d6d6d"/>
        <path id="Path_16015" data-name="Path 16015" d="M1427.342,369.816a2.523,2.523,0,0,0-2.439-.377,2.387,2.387,0,0,0-.908.777,2.946,2.946,0,0,0-.619,2.282,2.794,2.794,0,0,0,1.689,1.967,2.9,2.9,0,0,0,.412.141,2.012,2.012,0,0,0,1.417-.114,2.294,2.294,0,0,0,.654-.522c.794-.876,1.39-2.2.687-3.291h0A2.991,2.991,0,0,0,1427.342,369.816Zm-.752,3.285a1.036,1.036,0,0,1-.275.235.935.935,0,0,1-.743-.061,1.519,1.519,0,0,1-.926-1.02,1.671,1.671,0,0,1,.385-1.264,1.168,1.168,0,0,1,.411-.376.836.836,0,0,1,.553-.017,2.107,2.107,0,0,1,.63.3,1.76,1.76,0,0,1,.525.486C1427.458,371.855,1427.041,372.6,1426.59,373.1Z" transform="translate(-1366.63 -344.735)" fill="#6d6d6d"/>
        <path id="Path_16016" data-name="Path 16016" d="M1404.756,449.749a1.392,1.392,0,0,0,.405.047,1.83,1.83,0,0,0,.685-.189,3.527,3.527,0,0,0,.6-.319,2.088,2.088,0,0,0,.908-2.017,2.007,2.007,0,0,0-1.45-1.594,2.485,2.485,0,0,0-2.336.514,1.955,1.955,0,0,0-.713,1.875,2.381,2.381,0,0,0,1.469,1.519A2.306,2.306,0,0,0,1404.756,449.749Zm-.344-2.577a1.233,1.233,0,0,1,1.066-.272l.044.013a.73.73,0,0,1,.556.562.792.792,0,0,1-.374.756,2.223,2.223,0,0,1-.378.194,1.141,1.141,0,0,1-.212.079.882.882,0,0,1-.236-.089c-.457-.215-.713-.427-.758-.632A.716.716,0,0,1,1404.411,447.171Z" transform="translate(-1355.474 -386.222)" fill="#6d6d6d"/>
        <path id="Path_16017" data-name="Path 16017" d="M1412.029,438.591a2.226,2.226,0,0,0,1.429-1.6,1.585,1.585,0,0,0-.533-1.544,1.98,1.98,0,0,0-1.421-.437,1.606,1.606,0,0,0-.851.271,1.952,1.952,0,0,0-.665,1.65,1.863,1.863,0,0,0,.328,1.247,1.362,1.362,0,0,0,.732.458A1.758,1.758,0,0,0,1412.029,438.591Zm-.747-1.646c.006-.5.087-.59.113-.608a.415.415,0,0,1,.186-.038.971.971,0,0,1,.295.025.51.51,0,0,1,.205.1.293.293,0,0,1,.109.312.941.941,0,0,1-.566.627.4.4,0,0,1-.3,0A.974.974,0,0,1,1411.282,436.946Z" transform="translate(-1359.372 -380.475)" fill="#6d6d6d"/>
        <path id="Path_16018" data-name="Path 16018" d="M1430.062,351.579a2.228,2.228,0,0,0,1.43-1.6,1.585,1.585,0,0,0-.532-1.544,1.968,1.968,0,0,0-1.422-.438,1.609,1.609,0,0,0-.851.27,1.954,1.954,0,0,0-.664,1.65,1.867,1.867,0,0,0,.328,1.247,1.355,1.355,0,0,0,.732.458A1.749,1.749,0,0,0,1430.062,351.579Zm-.7-1.226a.973.973,0,0,1-.042-.418c.007-.5.088-.59.113-.609a.415.415,0,0,1,.186-.038.991.991,0,0,1,.294.025.505.505,0,0,1,.2.1h0a.294.294,0,0,1,.11.312.944.944,0,0,1-.567.627A.408.408,0,0,1,1429.358,350.353Z" transform="translate(-1369.178 -333.169)" fill="#6d6d6d"/>
      </g>
    </g>
  </g>
</svg>
