<svg xmlns="http://www.w3.org/2000/svg" width="1601" height="771.775" viewBox="0 0 1601 771.775">
  <g id="Group_2891" data-name="Group 2891" transform="translate(-4800.5 -913)">
    <path id="Path_16028" data-name="Path 16028" d="M1486.173,1433.218s-159.709,204.591-482.682,206.7c-344.134,2.247-773.184-256.129-1117.318-206.7v701.34h1600Z" transform="translate(4914.827 -513.931)" fill="#fff"/>
    <path id="Path_16029" data-name="Path 16029" d="M1486.173,1433.218s-159.709,204.591-482.682,206.7c-344.134,2.247-773.184-256.129-1117.318-206.7v691.34h1600Z" transform="translate(4914.827 -503.931)" fill="#038767" stroke="rgba(0,0,0,0)" stroke-width="1"/>
    <path id="photo-1508044594351-60a97e8ce53a" d="M450,108.338a141.888,141.888,0,0,0-72.6,3.388A134.3,134.3,0,0,0,346.8,125.6c-8.76,5.612-16.2,13.341-26.64,16.624-9.84,3.071-19.56.953-28.68-2.859-16.92-7.094-33.48-15.776-52.32-8.788-17.04,6.247-28.08,21.282-39.84,33.141-10.32,10.376-23.16,20.012-39.48,20.753-30.6,1.482-47.4-25.094-66.6-41.612-21.6-18.529-51.6-33.882-82.56-27C6.84,116.7,3,117.974,0,120.3V-87.75H450V108.338Z" transform="translate(4809 1499.75)" fill="#038767" stroke="rgba(0,0,0,0)" stroke-width="1"/>
  </g>
</svg>
