<svg id="Group_255" data-name="Group 255" xmlns="http://www.w3.org/2000/svg" width="78.829" height="61.001" viewBox="0 0 78.829 61.001">
  <path id="Path_215" data-name="Path 215" d="M19.652,41.122a.906.906,0,0,0,.906.906h5.435a.906.906,0,0,0,0-1.812H21.336a3.6,3.6,0,0,0-6.991,0h-1.94a.906.906,0,0,0,0,1.812h2.717a.906.906,0,0,0,.906-.906h0a1.812,1.812,0,0,1,3.623,0Z" transform="translate(27.928 -37.488)" fill="#038767"/>
  <path id="Path_216" data-name="Path 216" d="M76.5,48.622a.906.906,0,0,0,.906.906h2.717a.906.906,0,0,0,.906-.906h0a1.812,1.812,0,1,1,3.623,0,.906.906,0,0,0,.906.906h2.264a.906.906,0,1,0,0-1.812H86.336a3.6,3.6,0,0,0-6.991,0h-1.94A.906.906,0,0,0,76.5,48.622Z" transform="translate(-10.684 -16.282)" fill="#038767"/>
  <path id="Path_217" data-name="Path 217" d="M46.123,29.123a.906.906,0,0,0,.906-.906.906.906,0,1,1,1.812,0,.906.906,0,0,0,.906.906h5.435a.906.906,0,0,0,0-1.812h-4.7a2.7,2.7,0,0,0-5.1,0H43.406a.906.906,0,0,0,0,1.812Z" transform="translate(22.742 -15.203)" fill="#038767"/>
  <path id="Path_219" data-name="Path 219" d="M82.123,31.312a.906.906,0,0,0,0-1.812H79.406a.906.906,0,0,0,0,1.812Z" transform="translate(-36.563 4.822)" fill="#038767"/>
  <path id="Path_237" data-name="Path 237" d="M62.863,60.769l-5.581-8.414A20.679,20.679,0,0,0,60.9,41.731l4.01-3.64-1.523-1.679L42.6,55.28a33.736,33.736,0,0,1-6.662-1.8L35.149,55.6A38.674,38.674,0,0,0,40.5,57.193l-3.939,3.575H32.911c-.7-3.131-4.046-5.572-8.465-6.218-.075-17.648,2.4-20.667,2.723-20.978,5.841-2.768,12.988,4.4,13.06,4.472a1.133,1.133,0,0,0,1.89-1.132c-3.208-10.241-8.4-13.737-10.4-14.743.542-4.28,7.275-8.783,9.965-10.222A1.133,1.133,0,0,0,41.26,9.82c-10.542-1.054-14.672,4.733-16.15,8.04-8-9.619-19.073-3.7-19.19-3.639a1.134,1.134,0,0,0,.687,2.118c9.95-1.243,12.482,5.3,13.062,7.6C5.635,31.238,8.882,42.141,8.917,42.252a1.133,1.133,0,0,0,1.075.793,1.113,1.113,0,0,0,1.084-.782c2.185-6.7,6.574-8.4,9.214-8.794-4.966,7.422-5.8,17-5.762,22.979a7.184,7.184,0,0,0-3.242,4.322H10v2.267H67.965V60.77h-5.1ZM55.928,50.315l-1.684-2.54,4.069-3.693A17.78,17.78,0,0,1,55.928,50.315Zm-1.481,1.868a10.639,10.639,0,0,1-1.6,1.357,12.314,12.314,0,0,1-7.15,2l6.849-6.218Zm-11.1,5.484a22.1,22.1,0,0,0,2.4.136,14.48,14.48,0,0,0,8.4-2.4,12.934,12.934,0,0,0,1.585-1.29l4.417,6.659H39.93ZM23.462,32.987a1.134,1.134,0,0,0-.73-1.841A12.875,12.875,0,0,0,11.021,37.1c.643-3.326,3.008-7.9,10.425-11.521a1.135,1.135,0,0,0,.627-1.16c-.012-.1-1.051-7.53-8.351-9.833,3.4,0,7.5,1.32,10.814,6.295a1.134,1.134,0,0,0,2.057-.422c.065-.351,1.557-7.721,10.712-8.444-3.362,2.354-8.046,6.453-7.887,10.921a1.144,1.144,0,0,0,.777,1.036c.054.018,4.744,1.7,8.31,9.743-3.1-2.125-7.887-4.36-12.37-2.159-1.015.447-4.017,3.45-3.955,22.826-.027,0-.054,0-.082,0a15.117,15.117,0,0,0-5.273.912C16.92,49.042,18.069,39.58,23.462,32.987ZM22.1,56.646c4.033,0,7.521,1.792,8.453,4.123h-16.9C14.58,58.437,18.066,56.646,22.1,56.646Z" transform="translate(-5.334 -2.035)" fill="#038767"/>
  <path id="Path_238" data-name="Path 238" d="M76.938,24.565a5.9,5.9,0,1,0-5.9,5.9A5.907,5.907,0,0,0,76.938,24.565Zm-5.9,3.633a3.633,3.633,0,1,1,3.634-3.633A3.638,3.638,0,0,1,71.037,28.2Z" transform="translate(-19.95 -4.228)" fill="#038767"/>
  <rect id="Rectangle_429" data-name="Rectangle 429" width="2.267" height="3.202" transform="translate(49.954 10.482)" fill="#038767"/>
  <rect id="Rectangle_430" data-name="Rectangle 430" width="2.267" height="3.202" transform="translate(49.954 26.979)" fill="#038767"/>
  <rect id="Rectangle_431" data-name="Rectangle 431" width="2.267" height="3.201" transform="translate(44.924 28.098) rotate(-135)" fill="#038767"/>
  <rect id="Rectangle_432" data-name="Rectangle 432" width="2.267" height="3.201" transform="translate(57.251 12.565) rotate(45)" fill="#038767"/>
  <rect id="Rectangle_433" data-name="Rectangle 433" width="3.201" height="2.267" transform="matrix(0.707, 0.707, -0.707, 0.707, 56.586, 24.232)" fill="#038767"/>
  <rect id="Rectangle_434" data-name="Rectangle 434" width="3.201" height="2.267" transform="matrix(0.707, 0.707, -0.707, 0.707, 44.922, 12.567)" fill="#038767"/>
  <rect id="Rectangle_435" data-name="Rectangle 435" width="3.202" height="2.267" transform="translate(57.735 19.199)" fill="#038767"/>
  <rect id="Rectangle_436" data-name="Rectangle 436" width="3.202" height="2.267" transform="translate(41.238 19.199)" fill="#038767"/>
</svg>
