<svg xmlns="http://www.w3.org/2000/svg" xmlns:xlink="http://www.w3.org/1999/xlink" width="144.147" height="136.722" viewBox="0 0 144.147 136.722">
  <defs>
    <filter id="Path_1276" x="0" y="0" width="144.147" height="136.722" filterUnits="userSpaceOnUse">
      <feOffset dy="8" input="SourceAlpha"/>
      <feGaussianBlur stdDeviation="10" result="blur"/>
      <feFlood flood-color="#76c0b2"/>
      <feComposite operator="in" in2="blur"/>
      <feComposite in="SourceGraphic"/>
    </filter>
  </defs>
  <g id="icon-bg" transform="translate(22 22)">
    <g transform="matrix(1, 0, 0, 1, -22, -22)" filter="url(#Path_1276)">
      <path id="Path_1276-2" data-name="Path 1276" d="M88.647,45.765A42.074,42.074,0,1,0,22.714,80.413H70.435A42.02,42.02,0,0,0,88.647,45.765Z" transform="translate(25.5 18.31)" fill="rgba(3,135,103,0.5)"/>
    </g>
    <path id="Path_1594" data-name="Path 1594" d="M0,0H54.448" transform="translate(23.214 77.038)" fill="none" stroke="#038767" stroke-linecap="round" stroke-width="3"/>
    <line id="Line_120" data-name="Line 120" x2="35.571" transform="translate(32.652 81.988)" fill="none" stroke="#038767" stroke-linecap="round" stroke-linejoin="round" stroke-miterlimit="10" stroke-width="3"/>
    <line id="Line_121" data-name="Line 121" x2="7.149" transform="translate(43.769 86.938)" fill="none" stroke="#038767" stroke-linecap="round" stroke-linejoin="round" stroke-miterlimit="10" stroke-width="3"/>
    <line id="Line_122" data-name="Line 122" x2="1.911" transform="translate(55.282 86.938)" fill="none" stroke="#038767" stroke-linecap="round" stroke-linejoin="round" stroke-miterlimit="10" stroke-width="3"/>
    <path id="Path_1282" data-name="Path 1282" d="M62.448,16.212a1.746,1.746,0,0,0-1.836-1.839h-.018a.612.612,0,0,1,.015-1.224,1.746,1.746,0,0,0,1.839-1.836.612.612,0,0,1,1.224,0,1.746,1.746,0,0,0,1.839,1.836.612.612,0,0,1,0,1.224,1.745,1.745,0,0,0-1.836,1.836v0s0,.009,0,.009v.006a.612.612,0,0,1-1.224-.015Z" transform="translate(33.277 0.339)" fill="#038767" opacity="0.4"/>
    <path id="Path_1283" data-name="Path 1283" d="M59.724,50.805a.873.873,0,0,0-.918-.92H58.8a.306.306,0,0,1,.006-.612.873.873,0,0,0,.92-.918.306.306,0,0,1,.612,0,.873.873,0,0,0,.92.918.306.306,0,0,1,0,.612.872.872,0,0,0-.918.918v0a.015.015,0,0,1,0,0h0v0a.306.306,0,0,1-.612-.008Z" transform="translate(33.815 23.865)" fill="#038767" opacity="0.7"/>
    <path id="Path_1284" data-name="Path 1284" d="M6.724,15.178a.873.873,0,0,0-.918-.92H5.8a.306.306,0,0,1,.006-.612.873.873,0,0,0,.919-.918.306.306,0,1,1,.612,0,.873.873,0,0,0,.919.918.306.306,0,0,1,0,.612.872.872,0,0,0-.918.918v0a.015.015,0,0,1,0,0h0v0a.306.306,0,0,1-.612-.008Z" transform="translate(1.195 -3.014)" fill="#038767"/>
    <path id="Path_1285" data-name="Path 1285" d="M2.992,48.76A2.133,2.133,0,0,0,.748,46.512H.726a.748.748,0,0,1,.019-1.5,2.133,2.133,0,0,0,2.248-2.244.748.748,0,1,1,1.5,0,2.133,2.133,0,0,0,2.248,2.244.748.748,0,0,1,0,1.5,2.133,2.133,0,0,0-2.244,2.244v0c0,.006,0,.011,0,.011v.007a.748.748,0,0,1-1.5-.019Z" transform="translate(0 16.259)" fill="#038767"/>
    <path id="Path_1286" data-name="Path 1286" d="M55.548,38.268a1.746,1.746,0,0,0-1.836-1.839h-.018a.612.612,0,0,1,.015-1.224,1.746,1.746,0,0,0,1.839-1.836.612.612,0,1,1,1.224,0A1.746,1.746,0,0,0,58.611,35.2a.612.612,0,0,1,0,1.224,1.745,1.745,0,0,0-1.836,1.836v0s0,.009,0,.009v.006a.612.612,0,0,1-1.224-.015Z" transform="translate(29.62 12.027)" fill="#038767"/>
  </g>
</svg>
