<svg xmlns="http://www.w3.org/2000/svg" width="217.832" height="50" viewBox="0 0 217.832 50">
  <g id="Group_2254" data-name="Group 2254" transform="translate(-58.769 -38)">
    <text id="Live_in_Nature" data-name="Live in Nature" transform="translate(113.601 72)" fill="#038767" font-size="24" font-family="Fredoka One"><tspan x="0" y="0">Live in Nature</tspan></text>
    <g id="Group_2252" data-name="Group 2252" transform="translate(58.769 38)">
      <ellipse id="Ellipse_1" data-name="Ellipse 1" cx="25" cy="25" rx="25" ry="25" fill="#038767"/>
      <g id="Group_8" data-name="Group 8" transform="translate(17.939 3.665)">
        <g id="Group_7" data-name="Group 7">
          <g id="Group_5" data-name="Group 5" transform="translate(14.165 7.138)">
            <path id="Path_33" data-name="Path 33" d="M241.343,167.913h0v0Z" transform="translate(-233.551 -156.345)" fill="#5ee858"/>
            <path id="Path_34" data-name="Path 34" d="M239.62,166.808h.011a.236.236,0,0,1,.017-.056l-.014-.014C239.614,166.781,239.607,166.808,239.62,166.808Z" transform="translate(-232.321 -155.509)" fill="#5ee858"/>
            <path id="Path_35" data-name="Path 35" d="M233.232,192.455v0l0,0Z" transform="translate(-227.784 -173.788)" fill="#5ee858"/>
            <path id="Path_36" data-name="Path 36" d="M241.611,153l0,0a.124.124,0,0,1-.049-.047h-.021a1.064,1.064,0,0,0,.006.133C241.543,153.038,241.574,153.014,241.611,153Z" transform="translate(-233.689 -145.706)" fill="#5ee858"/>
            <path id="Path_37" data-name="Path 37" d="M241.677,141.689a.223.223,0,0,1-.031-.006c0,.013.008.026.011.039C241.664,141.711,241.67,141.7,241.677,141.689Z" transform="translate(-233.766 -137.699)" fill="#5ee858"/>
            <path id="Path_38" data-name="Path 38" d="M244.945,139.3c-.005-.026-.01-.052-.015-.079,0-.005,0-.011,0-.016-.006-.021-.008-.025-.006-.011a.176.176,0,0,0-.065,0,.265.265,0,0,1,.057.1Z" transform="translate(-236.048 -135.921)" fill="#5ee858"/>
            <path id="Path_39" data-name="Path 39" d="M251.245,148.483a.119.119,0,0,1,.032.025l.016-.006a.156.156,0,0,1,.075-.033.1.1,0,0,1,.025,0c0-.014.007-.028,0-.039s-.065-.05-.09-.032-.017.028-.032.031a.25.25,0,0,1-.057,0h0A.163.163,0,0,1,251.245,148.483Z" transform="translate(-240.564 -142.469)" fill="#5ee858"/>
            <path id="Path_40" data-name="Path 40" d="M250.451,148.462l-.033-.019,0-.009a.012.012,0,0,0-.01-.006.186.186,0,0,0-.026,0,.242.242,0,0,1,.013.035A.454.454,0,0,1,250.451,148.462Z" transform="translate(-239.974 -142.494)" fill="#5ee858"/>
            <path id="Path_41" data-name="Path 41" d="M246.337,158.633l.011-.009.009-.01a.175.175,0,0,1-.014-.015.191.191,0,0,1-.057.008.2.2,0,0,1,.018.014A.119.119,0,0,1,246.337,158.633Z" transform="translate(-237.065 -149.724)" fill="#5ee858"/>
            <path id="Path_42" data-name="Path 42" d="M247.846,146.2l-.015-.008s0,.008,0,.011l.008,0Z" transform="translate(-238.161 -140.904)" fill="#5ee858"/>
            <path id="Path_43" data-name="Path 43" d="M248.824,151.189v0a.179.179,0,0,1-.057-.009.037.037,0,0,0,.044.019Z" transform="translate(-238.829 -144.448)" fill="#5ee858"/>
            <path id="Path_44" data-name="Path 44" d="M238.534,144.111l-.007,0,0,.006Z" transform="translate(-231.549 -139.422)" fill="#5ee858"/>
            <path id="Path_45" data-name="Path 45" d="M233.55,134.583h0c-.01,0-.019,0-.029.006l.023.017C233.546,134.6,233.549,134.59,233.55,134.583Z" transform="translate(-227.99 -132.652)" fill="#5ee858"/>
            <path id="Path_46" data-name="Path 46" d="M228.143,159.51s.008,0,.009-.006a.062.062,0,0,0,0-.037.3.3,0,0,1-.028.031Z" transform="translate(-224.152 -150.341)" fill="#5ee858"/>
            <path id="Path_47" data-name="Path 47" d="M221.816,145.7a7.3,7.3,0,0,0-.692.819.108.108,0,0,1,0-.011c.3-.677.227-.929.227-.929l-.258.714a54.892,54.892,0,0,1-.043-6.189.958.958,0,0,1,.73-.67.2.2,0,0,0,.228-.005.187.187,0,0,0,.061,0,.128.128,0,0,0,.1.033.074.074,0,0,0-.029.008c-.047.027-.038.089-.026.133.007.026.028.039.027.067a.126.126,0,0,0,.018.084.093.093,0,0,0,.078.041.2.2,0,0,0,.018.03.075.075,0,0,0,.025.088h0a.257.257,0,0,1,.094.3.19.19,0,0,0,.2.025.072.072,0,0,0,.028.105.134.134,0,0,1,.067.051.19.19,0,0,0,.087.075c.042.021.144.044.185.007a.09.09,0,0,0,.036-.074c0-.011-.012-.037.006-.041h0c.064.03.109-.017.118-.082a.057.057,0,0,0,.045-.068.35.35,0,0,0-.012-.059.135.135,0,0,1-.005-.025h.01a.085.085,0,0,0,.025,0,.181.181,0,0,0,.076.092.109.109,0,0,0,.139-.029.047.047,0,0,0,.045-.018.061.061,0,1,1,.036.071.122.122,0,0,0,.06.031.238.238,0,0,1,.1.042.126.126,0,0,0,.158,0,.177.177,0,0,0,.042.012l.014,0a.243.243,0,0,0,.17-.008c.068-.023.057-.077.04-.128a.306.306,0,0,0,.1-.055c.028-.028.014-.063-.007-.094a.079.079,0,0,0,.042-.036.1.1,0,0,0,.01-.073.116.116,0,0,0-.014-.03.142.142,0,0,0,.126-.053c.025-.03.009-.084.006-.121l0,0a.107.107,0,0,1,.014-.024.443.443,0,0,0,.039-.052.137.137,0,0,0-.039-.141l-.007-.006a.064.064,0,0,0,.017-.014.051.051,0,0,0,.01-.02.205.205,0,0,0,.065-.045.087.087,0,0,0,.022-.093.154.154,0,0,0,.152-.06c.024-.036.065-.052.087-.089s0-.064-.023-.09a.151.151,0,0,0,.055-.052.427.427,0,0,0,.2.044.172.172,0,0,0,.059-.014.295.295,0,0,0,.04-.03.085.085,0,0,0,.01-.018.087.087,0,0,0,.009-.026.1.1,0,0,0,0-.023.115.115,0,0,0,0-.014l0,0a.147.147,0,0,0,0-.033c.052-.033.106-.083.091-.146a.137.137,0,0,0-.069-.08.152.152,0,0,0-.058-.021.11.11,0,0,1,.013-.034c0-.017,0-.02.014-.01a.2.2,0,0,0,.058.018.167.167,0,0,0,.123-.04.1.1,0,0,0,.027-.1.116.116,0,0,0-.051-.067c0-.012.012-.025.011-.038a.079.079,0,0,0-.036-.065.114.114,0,0,0-.053-.018.257.257,0,0,0-.127-.139.149.149,0,0,0-.141,0,.06.06,0,0,0-.021.024.08.08,0,0,0-.007.015l0,.009h0l0,.007v.008l-.014-.008a.112.112,0,0,0-.044-.01.013.013,0,0,0,0-.005v0a.079.079,0,0,0-.006-.064.112.112,0,0,0,.041-.15.14.14,0,0,0-.166-.07.152.152,0,0,0-.2-.04l-.017.016c0-.006-.006-.01-.009-.015h0a.215.215,0,0,0-.025-.04c-.016-.02,0-.02,0-.048,0-.012,0-.023,0-.034s0-.009,0-.013a.142.142,0,0,0,0-.019h0a.108.108,0,0,0,0-.013c-.008-.039.014-.069.009-.108a.154.154,0,0,0-.025-.059.1.1,0,0,0,0-.059c-.024-.057.046-.1.029-.157a.192.192,0,0,0-.138-.131l-.024-.007h0a.217.217,0,0,0-.046-.007h0a.127.127,0,0,0-.026,0l-.018,0a.091.091,0,0,0-.037.021.572.572,0,0,0-.062,0,.323.323,0,0,0-.05.013c-.053-.006-.065-.012-.037-.017a.062.062,0,0,0,.022-.008c.032-.019.055-.039.051-.075a.23.23,0,0,0,.155-.083.221.221,0,0,0,.069-.011.157.157,0,0,0,.225-.1.13.13,0,0,0,.1-.035.151.151,0,0,0,0-.185.284.284,0,0,1-.037-.071.122.122,0,0,0,.13-.059.053.053,0,0,0,.048-.027.2.2,0,0,0,.013-.129l.006-.007a.073.073,0,0,0,.013.012.142.142,0,0,0,.072.025.259.259,0,0,1,.115.032.144.144,0,0,0,.179-.025.276.276,0,0,0,.049.007h.016a.276.276,0,0,0,.192-.036c.073-.037.052-.1.025-.151a.356.356,0,0,0,.1-.079c.027-.036.006-.073-.023-.105a.091.091,0,0,0,.041-.048.109.109,0,0,0-.021-.115.164.164,0,0,0,.135-.08c.023-.039,0-.1-.014-.139v0a.131.131,0,0,1,.012-.03.442.442,0,0,0,.036-.065.157.157,0,0,0-.067-.152.175.175,0,0,0-.04-.027l-.016-.006a.156.156,0,0,0-.024-.008h-.04l-.019,0-.014,0h0l-.011,0a.421.421,0,0,0-.018-.038.353.353,0,0,0-.062-.072c.054-.028.111-.059.1-.132a.955.955,0,0,0-.047-.166.2.2,0,0,0,.116.015.178.178,0,0,0,.051-.019l.01-.008a.124.124,0,0,0,.027-.025l0,0h0a.108.108,0,0,0,.021-.078c-.007-.07.083-.09.084-.162a.218.218,0,0,0-.109-.188l-.025-.015h0a.282.282,0,0,0-.048-.023h0a.2.2,0,0,0-.033-.007l-.017,0a.094.094,0,0,0-.047.011.661.661,0,0,0-.069-.022.335.335,0,0,0-.059,0c-.056-.025-.068-.035-.035-.031a.071.071,0,0,0,.026,0c.046-.012.082-.026.083-.077a.225.225,0,0,0-.078-.185.437.437,0,0,0-.081-.027c-.053-.016-.014-.042.022-.047.057-.008.086-.034.078-.093a.02.02,0,0,0-.007-.011.106.106,0,0,0,.019-.085.088.088,0,0,0-.057-.059c.008-.015.018-.029.025-.044a.281.281,0,0,0-.026-.045.158.158,0,0,1-.032-.034.619.619,0,0,0-.031-.056.124.124,0,0,0-.066-.05.05.05,0,0,0-.05.023c-.016.02-.02.038-.047.047s-.031,0-.046.01a.086.086,0,0,0-.033.027c-.009.012-.013.025-.023.026a.011.011,0,0,1-.014.005.894.894,0,0,1-.084-.038l-.059.011c0-.008,0-.016-.008-.023a.394.394,0,0,0-.167-.177c-.053-.023-.122.032-.147.078h-.014a.132.132,0,0,0-.027,0,.064.064,0,0,0,.012-.056c-.012-.057-.056-.146-.117-.164a.418.418,0,0,0-.085-.009c-.055,0-.023-.038.011-.051.054-.02.077-.052.056-.107a.015.015,0,0,0-.009-.01.107.107,0,0,0,0-.087.083.083,0,0,0-.014-.017.171.171,0,0,0,.2-.193h0a.393.393,0,0,0-.006-.041.161.161,0,0,0,.054-.23.2.2,0,0,0-.026-.038.2.2,0,0,0-.186-.056c-.042.015-.032.014-.064-.006a.115.115,0,0,0-.01-.041l-.005-.01a.127.127,0,0,0-.015-.022.138.138,0,0,0-.022-.028.01.01,0,0,1-.007,0l-.017-.011,0,0a.14.14,0,0,0,.093-.073c.09-.028.212-.09.2-.191a.152.152,0,0,0-.093-.129.192.192,0,0,0,.057-.213.2.2,0,0,0-.04-.055h0l-.006-.006h0l-.006,0a.134.134,0,0,0-.03-.018l-.012-.005a.18.18,0,0,0-.037-.01h0a.338.338,0,0,0-.042,0h-.055a.115.115,0,0,0-.027-.042h0c.126-.088-.008-.246-.08-.36a.263.263,0,0,0,.108-.018c.035-.014.023-.068.009-.091l-.011-.018c.1-.038.09-.163.008-.246a.127.127,0,0,0,0-.034s0-.007,0-.01v-.007s0,0,0,0h0s0-.008,0-.011l0-.012a.124.124,0,0,0-.007-.018l-.008-.012-.01-.014-.011-.011-.012-.012-.014-.01-.014-.009-.015-.008-.016-.007-.016-.006-.01,0h0l-.016,0a.155.155,0,0,0-.069-.116.229.229,0,0,0-.09-.034h0a.381.381,0,0,0-.045,0h-.014l-.057,0h-.031a.141.141,0,0,0,.058-.043.13.13,0,0,0,.027-.12l0-.015a.054.054,0,0,0,.011-.018c.038-.12-.044-.2-.088-.3-.03-.069-.03-.153-.115-.182a.374.374,0,0,0-.244,0,.33.33,0,0,0-.1-.09.229.229,0,0,0,.059-.171.331.331,0,0,0-.128-.225.372.372,0,0,0-.253-.093c-.062.008-.1.053-.164.059a.165.165,0,0,0-.021,0v0a.243.243,0,0,0-.032.009l-.071.023c-.043.013-.035.046-.073.028a.335.335,0,0,0-.065-.02l-.008,0h0l-.026,0c.006-.011.012-.021.017-.032a.245.245,0,0,0-.148-.3c-.013-.107-.055-.21-.179-.229a.181.181,0,0,0-.215.127.127.127,0,0,0-.1.016h0l-.008.005a.163.163,0,0,0-.034-.064l-.018-.019,0,0,0,0,0,0,.011-.007h0l0,0a.3.3,0,0,0,.032-.026l0,0a.09.09,0,0,0,.023-.036.241.241,0,0,0-.056-.222.41.41,0,0,0-.27-.139.19.19,0,0,0-.051-.076.127.127,0,0,0-.116-.029c-.022,0-.038.025-.055.034a.184.184,0,0,0-.125-.051.155.155,0,0,0-.145.085.273.273,0,0,0-.011.209.357.357,0,0,0,.053.083c.021.016.018.025-.01.027a.168.168,0,0,1-.047.036c0-.005-.006-.011-.009-.017a.1.1,0,0,0-.054-.072.268.268,0,0,0-.091-.058.508.508,0,0,0-.166-.566.1.1,0,0,0-.117.007c-.035.03-.067.06-.1.091a.212.212,0,0,0-.224-.058c-.028-.017-.053-.036-.05-.058a1.167,1.167,0,0,0,.021-.141.089.089,0,0,0-.079-.088.234.234,0,0,0-.155.033c-.042.03-.108.115-.165.071a.179.179,0,0,0-.127-.041.031.031,0,0,0-.018.011.145.145,0,0,0-.015.017h0l0,0h0c-.009.012-.017.023-.021.021l-.039-.024a.507.507,0,0,0-.2-.1h0a.144.144,0,0,0-.04,0c-.1.019-.114.141-.088.22.016.048.006.065-.029.067h0a.247.247,0,0,1-.043,0,.4.4,0,0,0-.086-.006.191.191,0,0,0-.143.074.2.2,0,0,0-.017.2.267.267,0,0,0-.107.01.2.2,0,0,0-.133.1.13.13,0,0,0-.114.031.227.227,0,0,1-.2.053c-.03,0-.075-.078-.118-.095a.14.14,0,0,0-.075-.01.218.218,0,0,0-.046.012l-.017.005a.145.145,0,0,0-.1-.039.506.506,0,0,0-.223.058h0l0,0a.647.647,0,0,0-.07.043c-.1.01-.228.069-.238.179a.254.254,0,0,0,.01.1v.009a.228.228,0,0,0-.018.026.2.2,0,0,0-.04.113.285.285,0,0,0-.13.129.076.076,0,0,0,.013.077.177.177,0,0,0,.074.217.292.292,0,0,0,.19.029.128.128,0,0,0,.019.035l.009.013a.211.211,0,0,1-.038.014.564.564,0,0,0-.093.032.092.092,0,0,0-.056.119.24.24,0,0,0-.036.036.408.408,0,0,0-.236-.06.188.188,0,0,0-.063-.066.127.127,0,0,0-.119-.011c-.02.008-.034.031-.05.041a.185.185,0,0,0-.131-.031.157.157,0,0,0-.131.106.275.275,0,0,0,.022.208.337.337,0,0,0,.065.074c.024.013.023.023-.005.028a.171.171,0,0,1-.042.042.238.238,0,0,0-.069-.073.221.221,0,0,0-.162-.049c-.1.018-.142.132-.156.23a.266.266,0,0,0-.065.017l-.022.01-.018.012-.015.011-.014.015-.011.013-.01.018-.007.016c0,.007,0,.013-.006.02s0,.013,0,.02a.164.164,0,0,0,0,.021.21.21,0,0,0,0,.026.156.156,0,0,0,0,.02.335.335,0,0,0,.015.05.67.67,0,0,0,.2.269.233.233,0,0,0-.041.115c-.053-.016-.1-.039-.149.026s-.036.129-.073.187a.251.251,0,0,0,.011.265.139.139,0,0,0-.122.093.329.329,0,0,0-.023.125.093.093,0,0,0-.023.029.1.1,0,0,0,.025.117.119.119,0,0,0-.017.1.13.13,0,0,0-.038.094c-.063-.063-.147.009-.084.077a.221.221,0,0,1,.036.113.154.154,0,0,0-.129.093h-.056l-.047,0h0a.215.215,0,0,0-.04.011l-.011,0a.153.153,0,0,0-.036.022h0l-.006.006h0a.179.179,0,0,0,.017.279.161.161,0,0,0-.1.134c-.014.1.113.169.206.2a.145.145,0,0,0,.1.076l0,0-.018.011a.012.012,0,0,1-.008,0,.135.135,0,0,0-.024.03.137.137,0,0,0-.015.022l-.005.01a.123.123,0,0,0-.01.042c-.034.02-.023.022-.067.007a.207.207,0,0,0-.195.059.183.183,0,0,0-.027.039.167.167,0,0,0,.056.239.236.236,0,0,0-.007.043h0a.18.18,0,0,0,.223.2.121.121,0,0,0,.12.046.2.2,0,0,0,.065-.027c0,.005,0,.014,0,.028a.045.045,0,0,1-.008.028.221.221,0,0,0-.016.023.1.1,0,0,0-.016.029c-.009.03.028.075.051.087a1.379,1.379,0,0,0,.211.09l.018.006,0,.01a.2.2,0,0,1-.022.042.482.482,0,0,0-.079.115c-.026.069.038.122.1.143a.419.419,0,0,0,.374-.059h0a.263.263,0,0,0-.027.077.1.1,0,0,0-.128.009.105.105,0,0,0-.023.084.02.02,0,0,0-.011.007c-.035.048-.022.085.025.118.029.021.051.063,0,.052a.4.4,0,0,0-.084-.014c-.063,0-.13.075-.155.127s0,.075.036.107a.075.075,0,0,0,.023.014c.03.012.015.016-.046.011a.355.355,0,0,0-.053-.026c-.01,0-.072-.014-.071-.013a.1.1,0,0,0-.038-.032l-.011,0a.161.161,0,0,0-.037-.011h0a.3.3,0,0,0-.053,0h0l-.029,0a.216.216,0,0,0-.184.115c-.034.064.036.123,0,.182a.11.11,0,0,0-.019.064.175.175,0,0,0-.041.061c-.015.042,0,.08-.015.122a.125.125,0,0,0,0,.015h0c0,.006,0,.011,0,.017s-.006.039-.009.058.017.037-.006.055a.247.247,0,0,0-.034.035l0,0h0l-.012.015-.014-.021a.174.174,0,0,0-.236,0,.159.159,0,0,0-.2.04.128.128,0,0,0,.012.176.088.088,0,0,0-.022.071v0a.129.129,0,0,0-.052,0l-.017.006h0v0l0,0v0a.05.05,0,0,1,0-.007v0a.118.118,0,0,0,0-.019l0-.01a.07.07,0,0,0-.018-.031.167.167,0,0,0-.158-.036.288.288,0,0,0-.174.126.133.133,0,0,0-.064.009.091.091,0,0,0-.056.064c0,.015,0,.032,0,.045a.131.131,0,0,0-.072.063.112.112,0,0,0,.007.119.193.193,0,0,0,.129.073.249.249,0,0,0,.07-.007c.017-.009.022,0,.014.015a.133.133,0,0,1,.008.041.169.169,0,0,0-.071.01.156.156,0,0,0-.1.073c-.032.068.017.136.068.185a.165.165,0,0,0-.012.036l0,0c0,.006,0,.012,0,.018a.136.136,0,0,0,0,.023.12.12,0,0,0,0,.033.079.079,0,0,0,.031.05s.008.01.013.014a.2.2,0,0,0,.064.029.486.486,0,0,0,.236,0,.168.168,0,0,0,.049.071c-.031.024-.066.044-.047.1s.06.074.078.119a.177.177,0,0,0,.157.1.1.1,0,0,0,0,.108.239.239,0,0,0,.062.064.058.058,0,0,0,.007.025.077.077,0,0,0,.016.02l-.009.006c-.043.035-.091.088-.076.148a.492.492,0,0,0,.032.067.108.108,0,0,1,.01.032v0c-.012.041-.042.1-.021.138a.164.164,0,0,0,.13.089.1.1,0,0,0-.022.03.112.112,0,0,0-.006.084.088.088,0,0,0,.038.05c-.031.03-.055.066-.029.1a.354.354,0,0,0,.1.085c-.03.053-.055.11.016.152a.28.28,0,0,0,.19.048h.016a.213.213,0,0,0,.05,0,.144.144,0,0,0,.177.036.267.267,0,0,1,.117-.025h0a.143.143,0,0,0,.013.072.053.053,0,0,0,.046.03.121.121,0,0,0,.126.067.274.274,0,0,1-.041.069.152.152,0,0,0-.008.185.13.13,0,0,0,.1.04.158.158,0,0,0,.22.11,5.917,5.917,0,0,1,.352.086.306.306,0,0,0,.129-.226.079.079,0,0,0,.024-.076.191.191,0,0,0,.021-.011h0a.148.148,0,0,0,.033-.029.136.136,0,0,0,.121,0c.029-.018.044-.043.071-.062a.386.386,0,0,0,.046-.035.16.16,0,0,0,.051-.019.306.306,0,0,0,.129-.267l0,0a.106.106,0,0,0,.1-.028.142.142,0,0,0,.039-.09c.005-.032.032-.041.046-.069a.205.205,0,0,0,.025-.1.141.141,0,0,0,.05.005.085.085,0,0,0,.077-.049c.068,0,.133-.031.143-.088a7.183,7.183,0,0,0,1.148.458,2.02,2.02,0,0,1,.9,1.6c.1.742.065,5.482.056,5.773a4.9,4.9,0,0,1-.086.683c.01-.138.029-.261.029-.261a1.046,1.046,0,0,0-.193.49,1.017,1.017,0,0,0-.426-.409,1.224,1.224,0,0,1,.25.4,1.118,1.118,0,0,0-.651-.364s.641.509.639.861h0c.6-.171,1.257-.343,1.972-.5C221.637,146.12,221.816,145.7,221.816,145.7Zm3.277-11.84c.015,0,.021-.023.032-.031s.073.016.09.032.008.024,0,.039a.1.1,0,0,0-.025,0,.156.156,0,0,0-.075.033l-.016.006a.119.119,0,0,0-.032-.025.164.164,0,0,0-.035-.048h0A.252.252,0,0,0,225.093,133.864Zm-.271-.027a.012.012,0,0,1,.01.006l0,.009.033.019a.457.457,0,0,0-.06,0,.24.24,0,0,0-.013-.035A.181.181,0,0,1,224.821,133.837Zm-.435.8v0l-.012.007a.037.037,0,0,1-.044-.019A.179.179,0,0,0,224.387,134.641Zm-.326-1.451.015.008-.01.007-.008,0S224.06,133.192,224.061,133.19Zm-.391,3.587a.17.17,0,0,0,.014.015l-.009.01-.011.009a.12.12,0,0,0-.033-.012.194.194,0,0,0-.018-.014A.192.192,0,0,0,223.669,136.778Zm-3.83,9.792v-.005l0,0ZM221.7,139.2h-.011c-.012,0-.006-.027.014-.071l.014.014A.237.237,0,0,0,221.7,139.2Zm.483.27h0v0Zm1.081-8.3c0-.014,0-.01.006.011,0,.006,0,.011,0,.016,0,.027.01.053.015.079l-.032,0a.265.265,0,0,0-.057-.1A.177.177,0,0,1,223.265,131.172Zm-.451,4.882a.264.264,0,0,0,.079.089.21.21,0,0,0,.2,0l.007.019c.012.029.038.039.042.071a.14.14,0,0,0,.034.092.1.1,0,0,0,.1.034l0,.005a.305.305,0,0,0,.113.274.166.166,0,0,0,.049.022.4.4,0,0,0,.043.037c.025.019.039.045.064.064-.022.007-.038.027-.064.036a.8.8,0,0,0-.086.031l-.032-.023a.246.246,0,0,0-.038-.053.344.344,0,0,0-.183-.107c-.051-.006-.095.058-.1.1l-.012,0a.28.28,0,0,0-.047.023l0,0a.107.107,0,0,0-.026-.028.121.121,0,0,0-.055-.022.155.155,0,0,0-.081.017.14.14,0,0,0-.045-.031.105.105,0,0,0-.1.021c-.017.014-.063-.009-.085-.005a.088.088,0,0,0-.07.056.038.038,0,0,0,0,.014v.011s0,0,0,.007a.072.072,0,0,0,0,.013l.005.014,0,0,0,.008h0l0,.007c.021.038.03.045-.012.037a.115.115,0,0,0-.1.022l-.019,0h-.008l-.012,0h-.032a.087.087,0,0,0-.024.007l-.006,0a.093.093,0,0,0-.027.022.077.077,0,0,0-.013.037c0,.012-.042.009-.052.01a.1.1,0,0,0-.082.063.113.113,0,0,0,.027.118.075.075,0,0,0-.021.006.117.117,0,0,0-.017-.009h0l-.008,0-.012,0-.018,0-.014,0h-.02l-.012,0h0l-.009,0a.11.11,0,0,0-.064.006l-.006,0a.08.08,0,0,0-.063-.042.134.134,0,0,0-.11-.072c.142-.159.3-.335.477-.526A3.043,3.043,0,0,1,222.813,136.055Zm-.511-4.162c-.007.011-.013.023-.02.034,0-.013-.007-.026-.011-.039A.224.224,0,0,0,222.3,131.893Zm-.044,3.252h0a.124.124,0,0,0,.049.047l0,0c-.037.015-.068.039-.067.081a1.059,1.059,0,0,1-.006-.133Zm0,.58a2,2,0,0,1,.122-.254.186.186,0,0,0,.114.048.084.084,0,0,0,.073.053.128.128,0,0,0,.046,0,.086.086,0,0,0-.009.042.178.178,0,0,0,.075.115c-.017.038.008.073.047.1h0l.016.009a.152.152,0,0,0,.027.027.206.206,0,0,0,0,.03,3.01,3.01,0,0,1-.31.2,2.8,2.8,0,0,1-.381.2A2.484,2.484,0,0,1,222.255,135.725Zm-.878-3.133h0l0-.006Zm-.436,2.272a.777.777,0,0,0,.114.052l-.065.118c-.06.107-.084-.021-.118-.169A.347.347,0,0,0,220.941,134.864Zm-.99-5.03h0c0,.008,0,.015-.006.023l-.023-.017C219.932,129.838,219.941,129.838,219.951,129.834Zm-1.81,5.018a.1.1,0,0,0,.028-.011.272.272,0,0,0,.154.128.434.434,0,0,0,.406-.121.2.2,0,0,0,.032.041.119.119,0,0,0,.124.034.215.215,0,0,0,.206.079c.057.142.117.3.193.482h0a.089.089,0,0,0-.116.034c-.009-.045-.029-.082-.082-.082a.089.089,0,0,0-.006-.023.108.108,0,0,0-.089-.069.135.135,0,0,0,0-.156c-.057-.062-.114-.043-.178-.026a.118.118,0,0,0-.126-.032c-.014-.052-.037-.1-.1-.108a.153.153,0,0,0-.141.055.093.093,0,0,0-.08.032l-.006,0a.12.12,0,0,0-.07-.021l-.011,0h0l-.01,0a.1.1,0,0,0-.024-.007H218.2l-.013,0-.011,0h0l-.021.006a.109.109,0,0,0-.022-.011.128.128,0,0,0,.058-.126.118.118,0,0,0-.078-.089l-.033-.008A.174.174,0,0,0,218.14,134.852Zm.251,2.214s-.006,0-.009.006l-.021-.012a.3.3,0,0,0,.028-.031A.062.062,0,0,1,218.391,137.066Zm-.316.623.012-.007a.3.3,0,0,0,.1-.3.283.283,0,0,0,.025-.017c.056-.012.1-.044.1-.1h0c.05.023.1.046.138.067a1.35,1.35,0,0,1,.468.607A2.194,2.194,0,0,1,218.075,137.689Zm1.63.369c-.034.085-.351-.276-.793-.648a1.837,1.837,0,0,1-.386-.454c.049-.036.077-.08.037-.124-.026-.028-.042-.013-.053-.053s.045-.053.064-.072a.109.109,0,0,0,.02-.027.115.115,0,0,0,.038-.045.166.166,0,0,0,.08-.022l.009,0a.288.288,0,0,0,.256-.033.1.1,0,0,0,.047-.082.09.09,0,0,0,.05-.089.162.162,0,0,0,.1-.128c0-.046-.032-.069-.071-.083a.264.264,0,0,0,.031-.043c.091-.04.227-.135.147-.206a.123.123,0,0,0-.038-.021l0-.008h0a.117.117,0,0,0-.013-.027.133.133,0,0,0,.026-.045.287.287,0,0,0,.026-.025.085.085,0,0,0,.005-.113.359.359,0,0,0,.042-.12,3.926,3.926,0,0,1,.345,1.524C219.677,137.51,219.74,137.972,219.706,138.057Zm.422-1.339a6.648,6.648,0,0,1-.771-1.662l-.018-.063a.142.142,0,0,0,.025-.011c.053-.036.049-.094.033-.15a.343.343,0,0,0,.075,0,.572.572,0,0,0,.254.079.312.312,0,0,0,.229.262.3.3,0,0,0,.033,0c0,.024.008.047.011.073C220.057,135.678,220.237,136.73,220.128,136.719Zm.474-.712c-.021.179-.069.505-.148.534s-.121-.152-.208-.9c-.017-.145-.043-.317-.077-.5a.416.416,0,0,0,.2-.154c.013,0,.027.007.04.01a.151.151,0,0,0,.2.011.314.314,0,0,0,.15.032.7.7,0,0,1,.011.243C220.742,135.488,220.623,135.828,220.6,136.007Zm.18.8a4.268,4.268,0,0,1,.328-1.573c.046-.1.089-.2.13-.3a.082.082,0,0,0,.058-.078.112.112,0,0,0-.005-.046l.029-.071c.032-.011.086.009.117.01a.178.178,0,0,0,.042,0,.17.17,0,0,0,.089-.005.23.23,0,0,0,.123.069.069.069,0,0,0,0,.026c.008.062.058.094.111.119,0,.07.071.1.146.107a.083.083,0,0,0,.076.049.173.173,0,0,0,.088-.018,7.828,7.828,0,0,1-.174,1.033,2.465,2.465,0,0,1-.42.852,2.176,2.176,0,0,1-.339.365.066.066,0,0,0-.068-.017c-.049.014-.059.067-.054.12a.843.843,0,0,1-.213.138C220.737,137.612,220.767,137.31,220.781,136.811Zm.1,2.658a7.389,7.389,0,0,1-.024-.969,2.064,2.064,0,0,1,.215-.618.446.446,0,0,0,.05.041.194.194,0,0,0,.019.042c-.036.006-.069.019-.076.059a.14.14,0,0,0,.063.127.078.078,0,0,0,.028.086.087.087,0,0,0,.026.078.251.251,0,0,0,.213.073l.009,0a.147.147,0,0,0,.062.032.794.794,0,0,1,.037.072c.013.02.055.05.043.073s-.027.017-.055.037c-.075.054.034.148.11.192a.177.177,0,0,0,.023.04c-.036.009-.067.026-.07.066a.1.1,0,0,0,.023.071,1.629,1.629,0,0,1-.114.136,5.151,5.151,0,0,0-.422.54C220.944,139.783,220.873,139.729,220.88,139.469Z" transform="translate(-214.391 -127.903)" fill="#5ee858"/>
            <path id="Path_48" data-name="Path 48" d="M239.639,190.052c-.227.011-.515.351-.693.591l.182-.039C239.289,190.352,239.5,190.077,239.639,190.052Z" transform="translate(-231.847 -172.084)" fill="#5ee858"/>
          </g>
          <g id="Group_6" data-name="Group 6" transform="translate(4.716)">
            <path id="Path_49" data-name="Path 49" d="M227.412,142.423a.1.1,0,0,0,.089.035c.033,0,.063-.017.055-.039s-.045-.039-.086-.036S227.416,142.4,227.412,142.423Z" transform="translate(-214.199 -131.058)" fill="#5ee858"/>
            <path id="Path_50" data-name="Path 50" d="M227.877,125.731c.03,0,.054-.006.058-.023s0-.026-.035-.028-.062.01-.068.029S227.853,125.73,227.877,125.731Z" transform="translate(-214.497 -119.185)" fill="#5ee858"/>
            <path id="Path_51" data-name="Path 51" d="M228.545,141.845c.059,0,.082-.031.061-.055s.022-.1-.085-.1c-.039,0-.068.018-.047.048C228.518,141.769,228.437,141.835,228.545,141.845Z" transform="translate(-214.949 -130.566)" fill="#5ee858"/>
            <path id="Path_52" data-name="Path 52" d="M228.794,126.2c.025,0,.041-.008.043-.023s-.017-.018-.037-.018-.047.007-.05.02S228.769,126.2,228.794,126.2Z" transform="translate(-215.15 -119.524)" fill="#5ee858"/>
            <path id="Path_53" data-name="Path 53" d="M228.739,139.946c0-.02-.024-.029-.047-.025a.073.073,0,0,0-.049.029c-.01.023.027.02.047.021S228.738,139.967,228.739,139.946Z" transform="translate(-215.073 -129.307)" fill="#5ee858"/>
            <path id="Path_54" data-name="Path 54" d="M228.62,125.872c0-.011-.006-.021-.031-.019s-.052.009-.052.027.009.02.032.021S228.617,125.89,228.62,125.872Z" transform="translate(-214.998 -119.308)" fill="#5ee858"/>
            <path id="Path_55" data-name="Path 55" d="M227.439,126.089c-.012-.018-.039-.02-.066-.018s-.054.008-.046.027.031.018.055.015S227.435,126.108,227.439,126.089Z" transform="translate(-214.137 -119.462)" fill="#5ee858"/>
            <path id="Path_56" data-name="Path 56" d="M225.97,141.9c.007.023.037.028.081.031.01,0,.043-.014.041-.02-.006-.025-.035-.041-.077-.038C225.993,141.873,225.964,141.875,225.97,141.9Z" transform="translate(-213.173 -130.694)" fill="#5ee858"/>
            <path id="Path_57" data-name="Path 57" d="M224.341,143.053c.026,0,.048-.006.05-.027s-.034-.031-.056-.044c-.025,0-.053,0-.049.027A.058.058,0,0,0,224.341,143.053Z" transform="translate(-211.977 -131.484)" fill="#5ee858"/>
            <path id="Path_58" data-name="Path 58" d="M225.622,141.019c.036,0,.059-.01.06-.034s-.009-.049-.057-.05-.06.01-.065.034S225.584,141.011,225.622,141.019Z" transform="translate(-212.883 -130.029)" fill="#5ee858"/>
            <path id="Path_59" data-name="Path 59" d="M221.613,143.714a.136.136,0,0,0,.126.014c.017-.006.021-.021,0-.029A.119.119,0,0,0,221.613,143.714Z" transform="translate(-210.077 -131.986)" fill="#5ee858"/>
            <path id="Path_60" data-name="Path 60" d="M226.927,141.631c.076,0,.086-.034.074-.074l.047-.027c.053-.008.147.007.134-.048s-.1-.058-.176-.044c-.055.029-.059.088-.124.112l-.034.008C226.835,141.6,226.857,141.631,226.927,141.631Z" transform="translate(-213.796 -130.381)" fill="#5ee858"/>
            <path id="Path_61" data-name="Path 61" d="M225.689,141.323c0,.018.018.028.044.03.045,0,.071-.014.073-.039s-.024-.035-.056-.042S225.692,141.3,225.689,141.323Z" transform="translate(-212.974 -130.269)" fill="#5ee858"/>
            <path id="Path_62" data-name="Path 62" d="M226.677,141.067c.037,0,.054-.007.06-.023s-.011-.03-.037-.033-.047.006-.052.023S226.66,141.064,226.677,141.067Z" transform="translate(-213.656 -130.083)" fill="#5ee858"/>
            <path id="Path_63" data-name="Path 63" d="M222.6,143.531a.063.063,0,0,0,.1.012c.052,0,.121-.007.081-.057s-.085-.012-.124.01C222.62,143.5,222.584,143.512,222.6,143.531Z" transform="translate(-210.775 -131.824)" fill="#5ee858"/>
            <path id="Path_64" data-name="Path 64" d="M225.632,143.012c0,.023.032.032.066.034a.091.091,0,0,0,.086-.036.082.082,0,0,0-.082-.04C225.66,142.969,225.629,142.983,225.632,143.012Z" transform="translate(-212.934 -131.475)" fill="#5ee858"/>
            <path id="Path_65" data-name="Path 65" d="M228.694,141.424c0,.029.043.037.084.036s.078,0,.084-.032c-.009-.034-.047-.046-.094-.045S228.689,141.394,228.694,141.424Z" transform="translate(-215.11 -130.347)" fill="#5ee858"/>
            <path id="Path_66" data-name="Path 66" d="M232.279,125.7c0,.013.023.021.051.018a.057.057,0,0,0,.041-.019.073.073,0,0,0-.056-.018C232.293,125.682,232.277,125.691,232.279,125.7Z" transform="translate(-217.659 -119.186)" fill="#5ee858"/>
            <path id="Path_67" data-name="Path 67" d="M232.773,124.513a.058.058,0,0,0-.077-.031c-.01,0-.022.015-.019.019C232.7,124.528,232.735,124.521,232.773,124.513Z" transform="translate(-217.942 -118.33)" fill="#5ee858"/>
            <path id="Path_68" data-name="Path 68" d="M232.321,125.091c0,.011.019.018.04.018s.049,0,.053-.014-.021-.02-.043-.023S232.321,125.075,232.321,125.091Z" transform="translate(-217.689 -118.752)" fill="#5ee858"/>
            <path id="Path_69" data-name="Path 69" d="M232.7,125.255a.136.136,0,0,0,.1.021c.021-.006.018-.019,0-.027C232.78,125.228,232.747,125.239,232.7,125.255Z" transform="translate(-217.961 -118.87)" fill="#5ee858"/>
            <path id="Path_70" data-name="Path 70" d="M232.295,124.33c.021,0,.038,0,.038-.016s-.008-.025-.036-.026-.036.007-.04.017S232.273,124.326,232.295,124.33Z" transform="translate(-217.643 -118.195)" fill="#5ee858"/>
            <path id="Path_71" data-name="Path 71" d="M233.435,125.275a.069.069,0,0,0,.06-.024c-.008-.015-.03-.019-.053-.02s-.054.007-.055.024S233.411,125.276,233.435,125.275Z" transform="translate(-218.446 -118.866)" fill="#5ee858"/>
            <path id="Path_72" data-name="Path 72" d="M229.441,140.308a.1.1,0,0,0-.093-.048c-.036,0-.062.022-.059.039.006.033.05.042.1.039C229.413,140.336,229.452,140.34,229.441,140.308Z" transform="translate(-215.533 -129.549)" fill="#5ee858"/>
            <path id="Path_73" data-name="Path 73" d="M188.463,128.637l-.009.007.01-.006Z" transform="translate(-186.505 -121.287)" fill="#5ee858"/>
            <path id="Path_74" data-name="Path 74" d="M230.492,125.942a.058.058,0,0,0,.053-.017c0-.011-.017-.018-.036-.02s-.047,0-.05.017S230.471,125.94,230.492,125.942Z" transform="translate(-216.365 -119.344)" fill="#5ee858"/>
            <path id="Path_75" data-name="Path 75" d="M228.7,142.545c-.035,0-.066.01-.07.032s.028.041.021.041c.092,0,.133-.012.133-.035S228.748,142.545,228.7,142.545Z" transform="translate(-215.068 -131.174)" fill="#5ee858"/>
            <path id="Path_76" data-name="Path 76" d="M229.338,141.737c.061.036.108.071.183.038a.03.03,0,0,0,.006-.041C229.473,141.683,229.413,141.705,229.338,141.737Z" transform="translate(-215.568 -130.575)" fill="#5ee858"/>
            <path id="Path_77" data-name="Path 77" d="M231.611,125.116a.1.1,0,0,0-.071-.025c-.032,0-.052.009-.051.027s.036.025.067.023S231.611,125.139,231.611,125.116Z" transform="translate(-217.097 -118.766)" fill="#5ee858"/>
            <path id="Path_78" data-name="Path 78" d="M230.991,125.143a.043.043,0,0,0-.049-.018c-.02,0-.034.01-.028.022a.043.043,0,0,0,.048.02C230.979,125.164,230.992,125.154,230.991,125.143Z" transform="translate(-216.687 -118.789)" fill="#5ee858"/>
            <path id="Path_79" data-name="Path 79" d="M230.465,141.748c.006.03.048.031.085.032s.093-.017.09-.048-.056-.038-.1-.037S230.458,141.714,230.465,141.748Z" transform="translate(-216.369 -130.57)" fill="#5ee858"/>
            <path id="Path_80" data-name="Path 80" d="M231.241,125.349c.025,0,.043-.007.045-.022s-.017-.021-.043-.022-.051,0-.052.017S231.211,125.349,231.241,125.349Z" transform="translate(-216.886 -118.918)" fill="#5ee858"/>
            <path id="Path_81" data-name="Path 81" d="M204.288,115.179a.053.053,0,0,1-.045.02c-.018-.011-.036-.025-.06-.009s.012.022.01.035h.116a.119.119,0,0,1,.02-.018c.027-.016.025-.038.005-.05S204.3,115.164,204.288,115.179Z" transform="translate(-197.68 -111.702)" fill="#5ee858"/>
            <path id="Path_82" data-name="Path 82" d="M203.8,114.809c.028.039.031.078.079.081a.04.04,0,0,0,.04-.051C203.9,114.8,203.848,114.819,203.8,114.809Z" transform="translate(-197.41 -111.457)" fill="#5ee858"/>
            <path id="Path_83" data-name="Path 83" d="M203.569,114.09c-.049.045-.111.067-.08.12.013.022.04.022.069.01C203.654,114.183,203.559,114.144,203.569,114.09Z" transform="translate(-197.187 -110.946)" fill="#5ee858"/>
            <path id="Path_84" data-name="Path 84" d="M204.876,142.353c0,.021.027.034.066.035s.051-.02.042-.043a.056.056,0,0,0-.069-.026C204.9,142.324,204.875,142.341,204.876,142.353Z" transform="translate(-198.179 -131.011)" fill="#5ee858"/>
            <path id="Path_85" data-name="Path 85" d="M205.072,115.042c-.014,0-.034,0-.032.018s0,.028.027.031.037-.006.038-.024S205.093,115.042,205.072,115.042Z" transform="translate(-198.295 -111.622)" fill="#5ee858"/>
            <path id="Path_86" data-name="Path 86" d="M204.2,114.509c.023-.008.057-.009.053-.036a.026.026,0,0,0-.031-.023c-.031.008-.023.033-.039.048S204.2,114.511,204.2,114.509Z" transform="translate(-197.687 -111.201)" fill="#5ee858"/>
            <path id="Path_87" data-name="Path 87" d="M202.119,113.557a.039.039,0,0,0-.057.016c-.021.027-.017.01-.025,0s-.036-.01-.05-.007-.019.022-.02.036.021.021.039.02a.1.1,0,0,1,.069.01.091.091,0,0,0,.064-.042C202.148,113.574,202.131,113.564,202.119,113.557Z" transform="translate(-196.111 -110.562)" fill="#5ee858"/>
            <path id="Path_88" data-name="Path 88" d="M203.069,114.742c-.031,0-.016.023-.016.035s-.012.038.029.034c.022,0,.051-.008.049-.021A.064.064,0,0,0,203.069,114.742Z" transform="translate(-196.879 -111.409)" fill="#5ee858"/>
            <path id="Path_89" data-name="Path 89" d="M201.726,108.87c.014,0,.025,0,.024.017,0,.035,0,.032.038.032a.5.5,0,0,0,.208-.059c-.114-.053-.243-.016-.37-.055C201.656,108.847,201.676,108.872,201.726,108.87Z" transform="translate(-195.869 -107.189)" fill="#5ee858"/>
            <path id="Path_90" data-name="Path 90" d="M202.571,141.464c-.029-.008-.042,0-.048.021s.007.038.038.045.045,0,.051-.021S202.6,141.472,202.571,141.464Z" transform="translate(-196.505 -130.403)" fill="#5ee858"/>
            <path id="Path_91" data-name="Path 91" d="M210.274,143.226c-.086.006-.049.055-.069.084s.008.045.05.042c.073,0,.077-.045.084-.08S210.318,143.228,210.274,143.226Z" transform="translate(-201.961 -131.658)" fill="#5ee858"/>
            <path id="Path_92" data-name="Path 92" d="M211.466,143.4c-.041.007-.089.016-.076.052s.043.024.075.02.069-.014.069-.042S211.5,143.4,211.466,143.4Z" transform="translate(-202.808 -131.783)" fill="#5ee858"/>
            <path id="Path_93" data-name="Path 93" d="M207.266,142.34a.136.136,0,0,0,.158.018c.023-.012.029-.027,0-.038A.15.15,0,0,0,207.266,142.34Z" transform="translate(-199.878 -131.003)" fill="#5ee858"/>
            <path id="Path_94" data-name="Path 94" d="M206.156,109.117c.012-.031-.036-.021-.051-.042l.086-.043v-.012a.262.262,0,0,1-.072-.009c-.089-.042-.094.031-.124.053s0,.053.059.031l.016.019a.075.075,0,0,0,.062.023C206.147,109.138,206.152,109.127,206.156,109.117Z" transform="translate(-198.968 -107.327)" fill="#5ee858"/>
            <path id="Path_95" data-name="Path 95" d="M206.022,108.851c-.011-.005-.024-.017-.036-.017a.026.026,0,0,0-.025.027c0,.014.01.018.025.011S206.022,108.874,206.022,108.851Z" transform="translate(-198.95 -107.209)" fill="#5ee858"/>
            <path id="Path_96" data-name="Path 96" d="M206.384,142.129c-.021.012-.025.03,0,.043.062.041.112,0,.2-.02A.175.175,0,0,0,206.384,142.129Z" transform="translate(-199.238 -130.864)" fill="#5ee858"/>
            <path id="Path_97" data-name="Path 97" d="M192.74,138.469c-.038.013-.012.034,0,.051l-.031.046c-.079-.075-.115,0-.143.024-.069.068.02.1.094.129s.04-.042.081-.052l.039-.021a2.207,2.207,0,0,0,.384-.007c-.083-.07-.115-.165-.29-.147C192.832,138.479,192.791,138.452,192.74,138.469Z" transform="translate(-189.411 -128.272)" fill="#5ee858"/>
            <path id="Path_98" data-name="Path 98" d="M219.953,142.874c.034.008.059,0,.072-.024s-.026-.042-.062-.049-.053,0-.059.018S219.914,142.864,219.953,142.874Z" transform="translate(-208.86 -131.354)" fill="#5ee858"/>
            <path id="Path_99" data-name="Path 99" d="M190.614,138.509c0,.022.033.034.066.032s.08-.019.09-.059a.069.069,0,0,0-.067-.02C190.659,138.467,190.614,138.474,190.614,138.509Z" transform="translate(-188.04 -128.271)" fill="#5ee858"/>
            <path id="Path_100" data-name="Path 100" d="M193.86,141.089c0,.022.03.034.065.03s.059-.015.054-.038-.034-.03-.066-.031S193.855,141.066,193.86,141.089Z" transform="translate(-190.347 -130.111)" fill="#5ee858"/>
            <path id="Path_101" data-name="Path 101" d="M220.672,143.33c-.02-.035-.065-.038-.109-.035s-.089.016-.076.051.05.034.091.028S220.664,143.364,220.672,143.33Z" transform="translate(-209.274 -131.706)" fill="#5ee858"/>
            <path id="Path_102" data-name="Path 102" d="M221.413,142.71c.056,0,.089-.013.1-.052-.051-.025.011-.093-.083-.093-.054,0-.121.021-.114.075S221.344,142.707,221.413,142.71Z" transform="translate(-209.863 -131.188)" fill="#5ee858"/>
            <path id="Path_103" data-name="Path 103" d="M222.522,142.971c.05,0,.08-.016.09-.047s0-.041-.042-.042-.083.013-.1.045S222.486,142.969,222.522,142.971Z" transform="translate(-210.69 -131.413)" fill="#5ee858"/>
            <path id="Path_104" data-name="Path 104" d="M201.8,139.685c-.04,0-.063.011-.06.033s.03.028.051.031a.046.046,0,0,0,.051-.028A.041.041,0,0,0,201.8,139.685Z" transform="translate(-195.952 -129.14)" fill="#5ee858"/>
            <path id="Path_105" data-name="Path 105" d="M221.591,143.2l.169-.041c.04-.009.041-.029.022-.046a.055.055,0,0,0-.074-.009C221.678,143.141,221.6,143.149,221.591,143.2Z" transform="translate(-210.061 -131.566)" fill="#5ee858"/>
            <path id="Path_106" data-name="Path 106" d="M199.931,142.122c.068-.006.117.053.185.022.02-.009.028-.035,0-.041A.261.261,0,0,0,199.931,142.122Z" transform="translate(-194.663 -130.853)" fill="#5ee858"/>
            <path id="Path_107" data-name="Path 107" d="M196.448,141.672c.031.019.038.075.095.051s.105-.063.023-.106C196.4,141.616,196.4,141.616,196.448,141.672Z" transform="translate(-192.169 -130.514)" fill="#5ee858"/>
            <path id="Path_108" data-name="Path 108" d="M198.084,141.456a.082.082,0,0,0,.053-.026c.011-.016-.008-.028-.041-.034a.04.04,0,0,0-.042.027C198.047,141.439,198.058,141.457,198.084,141.456Z" transform="translate(-193.327 -130.357)" fill="#5ee858"/>
            <path id="Path_109" data-name="Path 109" d="M197.969,141.82c-.036.007-.077.011-.075.042s.038.027.069.027.072-.01.068-.041S198.006,141.814,197.969,141.82Z" transform="translate(-193.215 -130.657)" fill="#5ee858"/>
            <path id="Path_110" data-name="Path 110" d="M195.713,141.736c.01.023.036.03.07.023s.042-.016.036-.04-.041-.02-.072-.017S195.7,141.718,195.713,141.736Z" transform="translate(-191.663 -130.574)" fill="#5ee858"/>
            <path id="Path_111" data-name="Path 111" d="M195.983,140.86c-.048,0-.074.019-.07.037s.038.044.082.038c.019,0,.046-.019.049-.031C196.05,140.875,196.015,140.863,195.983,140.86Z" transform="translate(-191.807 -129.976)" fill="#5ee858"/>
            <path id="Path_112" data-name="Path 112" d="M195.872,141.386c0,.014,0,.036.035.031s.072-.012.076-.042-.018-.03-.045-.031C195.893,141.342,195.869,141.357,195.872,141.386Z" transform="translate(-191.777 -130.32)" fill="#5ee858"/>
            <path id="Path_113" data-name="Path 113" d="M217.813,143.787c0,.007.056.041,0,0Z" transform="translate(-207.375 -132.057)" fill="#5ee858"/>
            <path id="Path_114" data-name="Path 114" d="M189.2,124.672c-.066.333-.087,2.026-.092,2.36,0,.067,0,.134,0,.2,0,.119,0,1.674-.007,1.793,0,0,0-.755,0-.753.391,0,.78.773,1.168.794,0-.008,0-1.451,0-1.458a.682.682,0,0,1-.008-.174l0,0c0-.014,0-.029,0-.043a.112.112,0,0,1,0-.046c0-.017,0-.032.006-.048l-.012-.023q0-.1,0-.2v-1.878c0-1.544-.192-5.448-.192-6.991,0-.038.011-.081-.031-.106,0-.6,0-1.477,0-2.075,0-.031-.011-.072-.008-.1l.006-.025a.052.052,0,0,1,.036-.028c.123-.032.064-.12.071-.189a.362.362,0,0,0-.03-.13.4.4,0,0,0-.006-.055.127.127,0,0,1,.006-.027c.108.071.163-.021.228-.083.043-.016.121.029.128-.036s-.062-.039-.1-.036c-.025-.01-.029-.058-.069-.043-.147-.105-.147-.144,0-.248l.3.036a.629.629,0,0,0,.411-.041c.005-.039.022-.1.058-.075l.009.007s.007,0,.034.012c.07.033.135-.137.219-.018.01.071.149,0,.115.115a.11.11,0,0,0,.005.136c-.026.067-.127.114-.1.185s.13.043.2.034c.046.061.091.128.15.012.047-.013.112.005.118-.077a.212.212,0,0,0,.032-.011c.075.009.154-.086.226.008.042.1.128-.049.149.018.064.208.181.047.272.054l.018,0,.018,0c.016.017.047.038.045.052-.026.18.059.188.174.121.042-.025.1.027.126-.044l.015,0a.524.524,0,0,0,.054-.011.034.034,0,0,1,.021,0c.11.078.162-.045.23-.06.17-.038.069-.144.091-.215.039-.092.113-.086.189-.077.047.073.095.143.2.111a.188.188,0,0,1,.112.054c.05.037.03-.025.041-.043a.788.788,0,0,1,.3,0c0,.056.021.1.083.1v-.219l0,0c.089-.038.177.132.266,0l.116-.02c.007.078.073.071.109.061.055-.016.031-.079.034-.125.019-.062-.051-.133.018-.189a.034.034,0,0,0,.022.009c0,.088.019.1.081.064.078,0,.136-.091.2-.079.263.051.1-.119.1-.2l.11,0c.084-.014.022-.086.044-.124.053.01.069-.025.076-.071.045-.012.124.036.114-.073.17-.084.388,0,.531-.176.113-.165.3-.3.23-.548l.036-.011c.046-.02.117.058.135-.084.015-.11.043-.225.053-.341,0-.05.011-.1.075-.049.049.064.063.027.078-.027.034-.122-.079-.289.1-.367l-.055-.05-.119-.161c-.066-.073-.036-.125.034-.168a.145.145,0,0,0,.153-.036l.077.008c.1.028.1-.109.179-.121.045-.046-.042-.154.026-.15.1.006.156-.1.251-.09v-.32c-.156.023-.144-.147-.221-.214.009-.123.005-.231-.157-.141a.08.08,0,0,1-.084-.089.033.033,0,0,0,0-.032c-.072-.056.125-.1,0-.159-.078-.054.007-.142-.037-.2,0-.056,0-.111,0-.167-.014-.109-.138-.189-.074-.318l.14-.064c-.062-.029-.145,0-.148-.1.013-.06.022-.118-.066-.111l-.073,0c-.02-.112-.041-.222-.19-.2l-.076-.048c-.019-.044-.091-.04-.085-.106h0c.029-.137-.083-.164-.156-.222l-.108-.022c-.059-.041-.031-.167-.139-.161s-.088-.066-.084-.133c0-.038.071-.077,0-.113l-.008-.084c.034-.071.121-.106.121-.2a.1.1,0,0,0,.074-.1c-.008-.076.018-.1.092-.1.2,0,.136-.1.063-.2-.031-.039-.014-.082-.008-.124l.044-.043c.067.005.146.027.111-.1a.183.183,0,0,1,.1-.225c-.064-.04-.149-.024-.174-.11,0-.085.069-.121.112-.176.023-.03.106-.021.065-.092-.03-.053-.08-.007-.121-.01s-.043.089-.108.06c-.023-.056.025-.129-.026-.183.033-.133-.041-.168-.145-.175h0a.15.15,0,0,0-.183-.1l-.05-.121c-.011-.111.092-.063.153-.116l-.145-.008c.026-.195-.114-.249-.24-.315l.1-.127-.281.015a.035.035,0,0,0-.036,0c-.086,0-.128-.038-.119-.13a.107.107,0,0,0,.008-.034c.077-.143.021-.23-.154-.238-.1,0-.043-.171-.155-.16l-.139.028c-.086-.116-.03-.236-.007-.354a.089.089,0,0,0,.032-.01c.09-.12-.078-.144-.076-.231,0-.054-.071-.029-.074-.079l.036-.126a.722.722,0,0,1-.1-.193c-.034-.149-.092-.1-.164-.052h0l-.147-.035c0-.032,0-.067-.039-.08-.041-.11-.1-.016-.108.006-.074.162-.138.078-.2,0,.005-.194-.175-.13-.256-.206-.024-.034-.05-.05-.079-.005h0l-.041.017c-.1-.032-.2-.086-.3,0l-.078-.012a.1.1,0,0,0-.136-.029c-.132.1-.237-.05-.364-.034-.084.01-.082-.089-.059-.167.015-.049.118-.036.079-.105s-.109-.026-.167-.015l-.075-.013c-.02-.25-.125-.053-.194-.041h0c-.064-.027-.011-.114-.078-.153-.064.074-.137.122-.21.027a.038.038,0,0,0-.015-.021h0c-.054.007-.09-.065-.149-.039h-.079l-.145-.01c-.012-.084.017-.215-.138-.135h0c-.029-.1-.111-.049-.168-.067h0c0-.06,0-.136-.066-.143s-.029.085-.059.119a.2.2,0,0,1-.063.033l-.075,0-.087-.119c0-.059,0-.172-.022-.162-.128.064-.122-.111-.2-.112l-.069-.011c-.121-.079-.255-.014-.381-.039l-.118-.139-.191.339c-.049.006-.1.025-.147,0-.038-.055-.108-.032-.153-.07-.087-.132-.095.051-.151.042l-.113-.009-.035-.04c-.016-.07-.028-.154-.1-.177-.052-.017-.091.034-.1.1-.109.037-.334-.089-.26.206l-.027.073c-.01.048-.081.031-.084.086-.093.17-.181.067-.27,0-.146-.075-.146-.075-.159,0-.038.01-.086-.011-.112.038l-.112.029h0l-.032-.047c-.032-.047-.051-.136-.125-.042a1.067,1.067,0,0,0-.3-.008l-.125.005c-.047-.019-.1.061-.144-.017-.021-.05-.075-.05-.11-.078-.014-.021,0-.062-.038-.068a.1.1,0,0,0-.119.032c-.073.034-.038.1-.038.154,0,.095-.056.084-.112.082l-.039-.04c.005-.112-.086-.116-.151-.15-.076-.008-.153-.019-.2.07h0c-.095.06-.063.157-.063.244l-.007.04a.134.134,0,0,1-.037,0l-.227-.11c-.123-.108-.123-.108-.184-.047l0,.162-.047.043c-.077.025-.167-.071-.235.03l-.065.012h-.119c-.174,0,0,.1-.029.142l-.012.009-.109.052c-.053-.009-.112-.019-.136.047-.01.026.034.021.055.025l.051.081c.007.055-.029.117.026.162,0,.065.006.13.01.195-.043.087-.078.172.025.241-.1.01-.251-.072-.236.147,0,.006-.042.015-.064.022l-.113-.048a.75.75,0,0,1-.293-.045.434.434,0,0,1,.026.243l-.337.049c-.086-.013-.173-.025-.15.117h0a.308.308,0,0,0-.008.036l-.036.041c-.028.015-.106,0-.082.034.1.145-.063.219-.069.337,0,.092-.166.059-.215.151-.009.056.064.032.066.077l0,.088a.255.255,0,0,1,.028.193c-.035.015-.1-.026-.1.045,0,.047.041.035.068.042l.267.081c.019.053-.046.158.079.147a.126.126,0,0,0,.033.011l-.039.114-.038.041c-.132-.021-.108.08-.111.159-.123.043-.282-.1-.378.085-.134-.033-.193.078-.269.157-.073-.016-.1.066-.155.083-.192.058-.217.114-.148.325.046.094-.046.131-.072.2-.052.023-.035.075-.042.117-.036.055,0,.071.041.083.1.127-.1.088-.086.166-.024.108-.115.217.005.322l.014.077a.058.058,0,0,0-.012.035c-.044.046-.122.045-.145.118l-.046.121c-.035.018-.033.051-.032.084l-.043,0-.075.047-.072,0c-.122.025-.09.166-.157.233-.037.015-.095.02-.038.083.035.061-.038.186.072.191.155.007.15.083.086.179-.04.06.013.095.005.141-.074.078.041.113.035.176-.172.089-.206.22-.083.315.005.054.019.1.079.112a.062.062,0,0,0,.031.01l.009-.007h0l-.01.006.01.077a.092.092,0,0,0-.008.038c-.058.04-.04.158-.142.153a.03.03,0,0,0-.008-.03c0-.105-.069-.122-.152-.121s-.071.067-.071.123a.507.507,0,0,1-.126.237c-.1-.071-.13.029-.177.085l-.01.112a.5.5,0,0,0-.179.015c-.034.016.017.02.03.03l.009.04c0,.055-.023.121.068.112.042.082.081.166.189.16l.109.009v.117c-.071.023-.07.1-.113.151a.266.266,0,0,0-.068.209h0c-.061.092-.045.151.065.168.041.025.023.1.085.109a.288.288,0,0,0,.337.209l.111.08a.036.036,0,0,0,.027.01c.1.051.114.214.242.234l-.006.108c-.065.037-.092.132-.181.134h-.079c-.041,0-.086-.024-.115.028-.075.073-.051.059-.015.128.045.087.153.1.176.2,0,.05.041.031.065.041-.007.095.031.135.121.11q0,.3.136.2c.086-.066.11-.061.156.03.012.025.079.019.121.027l.043.073c0,.081.084.039.112.08.006.042-.038.107.046.115l.143-.038c.066.136.012.315.18.426.055.037.13-.035.181.072.029.061.209.073.322.016l.113.054c.014.059-.041.21.107.088.016.034-.031.079.009.1.015.008.049-.024.075-.038a2.283,2.283,0,0,1,.406.129c.087.046.126.047.165-.042.069-.054.136-.077.2.009.034.045.071.038.1-.005l.072,0c0,.039-.072.158.022.1s.193-.031.282-.067a1.307,1.307,0,0,0,.3.055c.021.041.023.114.08.1.028-.006.045-.074.066-.114.027-.085.13.007.158-.076.027,0,.038.018.046.04.13.068.094-.079.14-.12h0v0l.077,0a.038.038,0,0,0,.028.011.587.587,0,0,0,.2.147c.051.008.116.008.131-.045.045-.154.171-.162.284-.186.05-.011.081-.022.085-.078a.129.129,0,0,1,.109-.005c.01.051-.022.147.072.12s.153.049.224.087c.053.148.109.018.164,0,.051.134.184.025.236.077a.494.494,0,0,0,.366.116c.091.012.086.188.213.162a1.543,1.543,0,0,1,.385.045.2.2,0,0,1,.186.232c-.006.245.051.485.044.732-.011.371,0,1.023,0,1.395,0,.641-.065,2.142-.065,2.783v.563c0,.093,0,.186,0,.279a1.024,1.024,0,0,0-.037.19c0,.378,0,.755,0,1.133v.162C189.275,122.906,189.206,124.539,189.2,124.672Zm6.427-15.092c.023,0,.045,0,.053.02a.069.069,0,0,1-.06.024c-.024,0-.049,0-.049-.02S195.6,109.578,195.63,109.58Zm-.147.04a.135.135,0,0,1-.1-.021c.043-.016.076-.027.11-.006C195.5,109.6,195.5,109.614,195.483,109.62Zm-.094-.254c.053-.013.062.011.077.031-.038.008-.074.015-.1-.012C195.367,109.381,195.379,109.368,195.389,109.366Zm-.083.381c-.027,0-.048,0-.051-.018s.014-.019.037-.019a.073.073,0,0,1,.056.018A.058.058,0,0,1,195.306,109.747Zm.053-.19c0,.018-.032.014-.053.014s-.04-.007-.04-.018.026-.018.049-.019S195.363,109.541,195.359,109.557Zm-.071-.25c.027,0,.036.013.036.026s-.017.017-.038.016-.043-.01-.038-.025S195.268,109.306,195.289,109.307Zm-.473,5.118c-.037,0-.08,0-.086-.032s.026-.051.076-.052.1,0,.1.037S194.86,114.418,194.816,114.425Zm.261-4.886a.1.1,0,0,1,.072.025c0,.023-.03.025-.056.026s-.065,0-.067-.023S195.045,109.539,195.077,109.539Zm-.084.062c.025,0,.045,0,.043.022s-.02.022-.045.022-.052-.009-.05-.027S194.973,109.6,194.993,109.6Zm-.1-.051a.042.042,0,0,1,.049.018c0,.012-.011.021-.029.024a.043.043,0,0,1-.048-.02C194.855,109.56,194.869,109.553,194.889,109.549Zm-.11.225c.019,0,.032.009.036.02a.058.058,0,0,1-.053.017c-.021,0-.036-.009-.033-.02S194.754,109.772,194.779,109.775Zm-.556,4.884c.006,0-.027-.012-.021-.041s.035-.032.07-.032.085.016.085.038S194.315,114.663,194.223,114.658Zm.371-.287a.031.031,0,0,1-.006.041c-.074.034-.122,0-.183-.038C194.479,114.344,194.54,114.321,194.594,114.371Zm-.144-.446a.094.094,0,0,1,.093.048c.011.032-.027.028-.055.03-.047,0-.092-.005-.1-.039C194.387,113.947,194.414,113.928,194.45,113.925Zm-.064.369c-.006.034-.047.032-.084.032s-.079-.007-.083-.036.034-.04.073-.041S194.377,114.26,194.386,114.294Zm-.181-.438a.073.073,0,0,1,.049-.029c.023,0,.047.005.047.025s-.024.026-.049.025S194.195,113.88,194.2,113.856Zm.117-3.991c0,.015-.018.022-.043.023s-.047-.007-.044-.021.025-.02.05-.02S194.319,109.853,194.322,109.865Zm-.1-.106c.025,0,.032.008.031.019s-.022.025-.051.028-.033-.01-.032-.021S194.2,109.762,194.225,109.76Zm-.018,4.578c.107,0,.057.066.085.1s0,.06-.062.055c-.108-.009-.027-.075-.071-.107C194.139,114.356,194.168,114.338,194.207,114.338Zm-.27.276a.1.1,0,0,1-.089-.035c0-.023.026-.037.058-.04s.077.01.086.036S193.969,114.611,193.937,114.614Zm.1-4.9c.031,0,.038.015.035.028s-.029.024-.058.023-.049-.006-.045-.022S194.01,109.716,194.037,109.709Zm-.167.113c.027,0,.054,0,.066.018,0,.019-.031.021-.057.024s-.049,0-.055-.015S193.842,109.824,193.87,109.823Zm-.024,4.448c.077-.014.162-.012.176.044s-.081.04-.134.048l-.047.027c.011.04,0,.075-.074.074s-.093-.031-.079-.073l.034-.008C193.786,114.358,193.79,114.3,193.846,114.27Zm-.166-.128c.026,0,.044.014.037.033s-.023.027-.06.023c-.017,0-.033-.015-.028-.032S193.653,114.139,193.679,114.142Zm-.28.642c-.034,0-.064-.011-.067-.034s.028-.043.07-.043a.082.082,0,0,1,.082.04A.091.091,0,0,1,193.4,114.785Zm.154-.356c0,.006-.032.016-.041.02-.044,0-.074-.007-.081-.031s.023-.025.045-.027C193.519,114.387,193.548,114.4,193.554,114.428Zm-.087-.169c0,.025-.028.042-.073.039-.026,0-.046-.012-.044-.03s.021-.044.062-.05S193.469,114.239,193.467,114.259Zm-.089-.139c.047,0,.058.025.057.05s-.024.035-.061.034-.067-.021-.061-.051S193.345,114.119,193.378,114.12Zm-.385.592c.022.013.059.018.056.044s-.024.03-.05.027a.058.058,0,0,1-.055-.045C192.94,114.715,192.968,114.714,192.993,114.712Zm-.7.245a.137.137,0,0,1-.126-.014.12.12,0,0,1,.128-.014C192.318,114.936,192.314,114.95,192.3,114.957Zm.339-.081c.04.05-.029.052-.081.057a.063.063,0,0,1-.1-.012c-.014-.019.021-.032.054-.035C192.551,114.864,192.594,114.822,192.637,114.876Zm-.121-.193c.04,0,.048.02.042.042s-.04.05-.091.047-.047-.022-.046-.043S192.469,114.682,192.516,114.683Zm-.16.082c.019.017.019.037-.022.046l-.169.041c.009-.056.087-.063.117-.1A.055.055,0,0,1,192.355,114.765Zm-.157-.173c.093,0,.032.068.083.093-.008.039-.04.054-.1.052s-.095-.029-.1-.07S192.144,114.592,192.2,114.591Zm-.276.212c.044,0,.089,0,.109.035-.008.034-.053.039-.094.045s-.081,0-.091-.028S191.878,114.806,191.923,114.8Zm-.185-.142c.036.008.067.021.062.049s-.038.032-.071.024-.06-.029-.049-.056S191.714,114.655,191.738,114.66Zm-8.464-1.176c-.033,0-.065-.01-.066-.032s.045-.043.089-.047a.07.07,0,0,1,.067.02C183.354,113.466,183.321,113.481,183.274,113.484Zm.938.738c-.035,0-.06-.008-.065-.03s.019-.035.052-.039.062.01.066.032S184.245,114.22,184.213,114.223Zm-.208-.635-.039.021c-.04.01-.008.077-.081.052s-.162-.061-.094-.129c.028-.028.064-.1.143-.024l.031-.046c-.014-.017-.04-.038,0-.051s.092.01.135.023c.174-.018.207.077.29.147A2.207,2.207,0,0,1,184,113.587Zm.75.812c-.034.008-.06,0-.07-.023s.006-.031.034-.034.061,0,.072.017S184.779,114.394,184.754,114.4Zm.009-.089c-.038.005-.033-.017-.034-.031s.021-.044.065-.042c.027,0,.042.013.045.031S184.8,114.306,184.763,114.311Zm.06-.137c-.043.006-.077-.014-.082-.038s.022-.038.07-.037c.032,0,.066.015.06.045C184.869,114.155,184.842,114.171,184.823,114.174Zm.186.25c-.057.024-.064-.032-.095-.051-.045-.057-.045-.057.117-.055C185.114,114.36,185.052,114.4,185.008,114.423Zm.394-.17c.034.006.053.019.041.034a.082.082,0,0,1-.052.026c-.027,0-.037-.017-.031-.033A.04.04,0,0,1,185.4,114.253Zm-.021.193c-.03,0-.067,0-.069-.027s.04-.036.075-.043.059,0,.062.028S185.425,114.447,185.382,114.447Zm.706.058c-.069.032-.117-.028-.185-.022a.261.261,0,0,1,.188-.02C186.115,114.47,186.107,114.5,186.088,114.5Zm.389-.682c-.021,0-.049-.019-.051-.031s.021-.038.06-.033a.041.041,0,0,1,.041.035A.046.046,0,0,1,186.477,113.823Zm.122-7.543a.1.1,0,0,0-.068-.01c-.018,0-.041,0-.039-.02s0-.032.02-.036.041-.009.05.007,0,.032.025,0,.027-.032.056-.016c.012.006.029.016.02.029A.092.092,0,0,1,186.6,106.28Zm.092,8.061c-.031-.007-.045-.024-.038-.045s.018-.029.048-.021.045.024.042.045S186.716,114.347,186.691,114.341Zm-.136-9.4c-.041,0-.043,0-.039-.032,0-.014-.01-.018-.024-.017-.05,0-.07-.023-.1-.065.127.039.256,0,.37.055A.5.5,0,0,1,186.555,104.944Zm.283,1.672c-.041,0-.037-.014-.029-.034s-.015-.037.016-.035a.064.064,0,0,1,.063.048C186.888,106.609,186.86,106.614,186.838,106.616Zm.337-.154a.026.026,0,0,1,.031.023c0,.026-.031.028-.053.036-.006,0-.028,0-.016-.011S187.143,106.47,187.174,106.463Zm-.169.026c-.028.011-.055.012-.069-.01-.031-.053.031-.075.08-.12C187.006,106.413,187.1,106.451,187.006,106.489Zm.093.158c-.048,0-.051-.042-.079-.081.052.01.1-.012.119.03A.04.04,0,0,1,187.1,106.647Zm.184.072a.117.117,0,0,0-.02.018h-.116c0-.013-.032-.021-.01-.035s.043,0,.06.009a.053.053,0,0,0,.045-.02c.01-.015.026-.033.046-.022S187.31,106.7,187.282,106.719Zm.115,7.872c-.038,0-.064-.014-.066-.035s.021-.029.039-.034a.055.055,0,0,1,.069.026C187.449,114.571,187.427,114.584,187.4,114.591Zm.009-7.908c-.026,0-.025-.017-.027-.031s.017-.018.032-.018.034.008.033.025S187.427,106.681,187.406,106.683Zm.264-1.844c.012,0,.025.012.036.017,0,.023-.024.015-.036.021s-.025,0-.025-.011A.026.026,0,0,1,187.67,104.839Zm.05.145c-.056.022-.082-.015-.06-.031s.035-.1.124-.053a.26.26,0,0,0,.072.009v.012l-.086.042c.016.02.064.011.051.042,0,.01-.009.021-.023.022a.075.075,0,0,1-.062-.023Zm.055,9.538c-.02-.013-.016-.031,0-.043a.175.175,0,0,1,.192.023C187.888,114.526,187.838,114.563,187.776,114.522Zm.4.047a.136.136,0,0,1-.157-.018.15.15,0,0,1,.16-.02C188.21,114.542,188.2,114.556,188.18,114.569Zm.748.339c-.043,0-.073-.01-.05-.042s-.018-.077.069-.084c.044,0,.07.019.065.046S189,114.9,188.929,114.907Zm.363,0c-.031,0-.067,0-.074-.02s.035-.045.076-.052.058,0,.068.029S189.328,114.9,189.291,114.907Z" transform="translate(-181.711 -103.214)" fill="#5ee858"/>
          </g>
          <path id="Path_115" data-name="Path 115" d="M172.559,155.894c-.029-.011-.052-.035-.08-.049h0l.009-.05a.027.027,0,0,0-.017-.007v-.009h0l.009,0a.1.1,0,0,1,0-.021.078.078,0,0,1,0-.014h0a.1.1,0,0,1,0-.013.146.146,0,0,1,.01-.028l.01-.02,0-.007h0l0-.008a.329.329,0,0,1-.017-.039v0h0a.152.152,0,0,0-.023-.017.054.054,0,0,1-.037,0h0c-.048-.085-.062-.09-.132-.033a.107.107,0,0,1-.133,0c-.027-.01-.062-.015-.039-.061h0c.037-.008.034-.041.037-.07h0l-.02-.048c-.04,0-.04-.045-.068-.057l-.017,0h-.014c0-.013-.006-.026-.02-.031a.074.074,0,0,0,0-.016h0c.009-.031.044-.049.035-.088h0a.043.043,0,0,1,.013-.037h0a.067.067,0,0,0,.051-.028.059.059,0,0,1,0-.012l-.033-.028h0l-.007-.031h0c.018-.012.013-.031.011-.049a.042.042,0,0,1-.043-.024c-.018-.048-.052-.029-.082-.025s-.027.042-.027.069h0c-.014.014-.009.033-.008.05l.006.034-.013.02h0l-.031,0h0c-.015-.027-.053-.036-.053-.075l.012-.018,0-.017c-.027-.012-.05.011-.075.012l-.012.017a.013.013,0,0,0,0,.015c-.045,0-.1-.069-.132.02l-.034-.028-.008-.033,0-.049,0-.017-.018-.015c-.025-.006-.03-.038-.053-.047a.026.026,0,0,0-.028.007l-.023-.044h0c.005-.036-.02-.055-.037-.078-.039-.027-.087.016-.125-.017l-.026-.056c.028-.022.055,0,.081,0,.072-.02.025-.076.03-.117-.015-.012-.025-.033-.047-.033h0a.058.058,0,0,0,0-.012h0c0-.058-.044-.064-.076-.068-.056-.009-.043.055-.062.086-.038.013-.052-.015-.066-.044,0-.017.016-.041-.013-.041s-.065-.017-.062.038h0a.093.093,0,0,0,0,.016h0l-.025.021c0,.005,0,.011,0,.016.012.024,0,.027-.019.023s-.028-.01-.042,0h0a.1.1,0,0,0-.119,0c0,.017,0,.035.021.043h0l-.011.049h0c-.029.016-.065-.028-.092.011h0l-.028.008-.04.069c-.045-.011-.06.044-.1.049-.029.064-.091.075-.143.1-.025.038.009.077,0,.115h0l-.023.053c-.008.016-.022.03-.012.05v.005c-.019,0-.021-.024-.035-.032l-.02-.032h0c0-.043-.034-.045-.064-.047h0l-.024-.04a.023.023,0,0,0-.029,0l-.005.007-.069.01-.015.016h0c-.058,0-.085.039-.112.082h0a.088.088,0,0,0-.056.042h0l-.058.026c-.032,0-.046.026-.058.052l-.025.008c0,.027-.088.062.006.081h0l.006.032h0a.071.071,0,0,0,0,.016h0l-.027.022h0a.047.047,0,0,1-.052-.046.085.085,0,0,0-.038-.106c-.027-.016-.052-.018-.065.021h-.01l-.043-.055c-.035.008-.062.022-.049.07h0l-.042.024h0l-.047-.012h0c0-.023-.012-.047.008-.067a.235.235,0,0,0-.028-.112h0a.048.048,0,0,0-.04,0l-.005.01c-.018-.011-.018-.03-.02-.049l.059-.027h0c.038,0,.062-.005.045-.06-.008-.025-.027-.059-.007-.09l0-.018h0l0-.016-.006-.015h0l-.014-.016h0a.128.128,0,0,1,.005-.084h.013a.324.324,0,0,0,.029-.037.029.029,0,0,1,.012.012c0,.013,0,.026,0,.04a.06.06,0,0,0,.019.043h.014l.016.028c.051-.006.06-.058.085-.092l-.006,0v-.029h0l.015-.019a.034.034,0,0,0,.03-.02.135.135,0,0,1-.008-.059.14.14,0,0,0,.07-.023c.032-.025.047-.062.085-.084a.264.264,0,0,1,.067-.026.035.035,0,0,0-.007.017.065.065,0,0,0-.053.057l.014.015a.051.051,0,0,1-.027.035l0,.017,0,.018h0a.036.036,0,0,1,0,.012c.02.024.04.045.068.01a.033.033,0,0,0,.028-.021h.014a.062.062,0,0,0,.075.006c.006.032-.013.057-.017.086h0c-.025.033-.031.06.02.061.026,0,.057,0,.075-.026h0c.055-.029.057-.079.044-.135l.005,0-.031-.051-.026-.008h0l-.018-.029h-.019c-.018-.033-.031-.066.014-.085s0-.075.027-.1c.027.009.01.065.053.058.047-.031.026-.065,0-.1-.006-.046.031-.042.054-.054h0c.007.043.022.071.067.042.02-.045-.016-.09,0-.135h0c.019-.019.013-.035-.006-.05h0a.068.068,0,0,0-.037-.063.146.146,0,0,0,0-.016l-.047-.008h0c-.019-.017-.029.007-.043.012l-.02-.016h0c-.028-.049-.053-.045-.075,0h0l-.069.046a.365.365,0,0,1-.129.226l-.014.019h0l-.012,0h0l-.015,0c.008.032-.042.082.027.095l.03,0h0c.025.022.052.007.078.007a.03.03,0,0,1,0,.007.283.283,0,0,0-.171.076c-.01.01-.016.022-.026.032a.078.078,0,0,1-.056.032.091.091,0,0,0-.047-.092h0c-.022-.027-.058,0-.08-.023l-.015.005h0l-.009,0a.412.412,0,0,1,.031-.117c.014-.029.04-.052.048-.084a.2.2,0,0,0,0-.064l.007,0h.011l.047.011c.083.053.086.051.1-.046h0c0-.031.029-.053.022-.085a.375.375,0,0,0-.048-.142h0a.11.11,0,0,0-.024-.079l-.029,0h0l-.031-.016h0a.067.067,0,0,0-.092.012h-.014a.071.071,0,0,0-.106.017l-.013.034-.04.039h0c-.045.023-.005.075-.031.1a.028.028,0,0,0,.031.029h0l.066.053,0,0v0h0l0,.006a.042.042,0,0,0,.011.045.156.156,0,0,0,.1.005.224.224,0,0,1,0,.05c-.005.036-.035.061-.05.093a.391.391,0,0,0-.027.1.057.057,0,0,0-.036.015h0l-.038-.042h0l0-.018h0c0-.027.023-.057-.01-.08h.009l-.022-.015h0l-.012-.082h0c.017-.044.021-.085-.027-.11l-.034-.026-.032-.018-.043.006-.013-.076a.114.114,0,0,0-.072.019l-.1.115h-.012v.007h-.006l.006-.006-.01-.079-.036-.044h0a.031.031,0,0,0-.034-.012.03.03,0,0,0-.036-.01h0c0-.02-.021-.018-.03-.029l-.014.015-.041-.006,0,0-.031-.01a.133.133,0,0,0-.12.032l.009.03h0a.158.158,0,0,0-.026.084h0c-.035.055-.027.1.031.128a.7.7,0,0,1,.228-.013.039.039,0,0,0,.006-.011l.01.008h0l.014.114h0c0,.005,0,.011,0,.016l.007.031h0a.035.035,0,0,0-.014.035l-.014,0-.017,0a.011.011,0,0,0-.014.007l-.026.024-.033-.015a.032.032,0,0,0-.014,0h0c-.03-.058-.069-.015-.1-.011s-.069.042-.112.026h0a.234.234,0,0,0-.03-.114h0c.023-.047-.009-.076-.029-.109l-.058,0h0l-.032-.015c-.005-.046-.033-.045-.065-.035s-.1-.03-.138.017h0c-.042.059-.059.011-.079-.022h0l-.017-.014a.088.088,0,0,0-.058.027h-.014l-.011.048h0l0,.018h-.016l-.016.021,0,.031a.025.025,0,0,0,0,.021l0,0c-.019.028,0,.051.012.076h0a.035.035,0,0,0-.011.034h0l-.03.007h0l-.018-.014h0l-.008-.009c.016-.015.008-.028-.01-.04l-.009-.016h0c0-.03-.015-.056-.049-.058l0-.032-.065-.059-.017,0c-.014-.016-.022,0-.033.006l.021.028c-.017.029-.031.062-.071.061h0a.063.063,0,0,0-.094-.022H167.7c-.014.021-.045.016-.056.044h-.012l-.007.081c-.006.018.019.033,0,.052h0c-.028.035.025.095-.031.121h-.014v.014h0c-.027,0-.034.03-.054.041a.073.073,0,0,0,0,.016h.016l.014.013c0,.023,0,.049.024.064v0h0l.006.029c.037.019.061.067.111.055h0c.019.014.041.027.038.058h0l-.024.054-.046.037-.043-.027h0c0-.038-.026-.049-.053-.058l-.014.019,0,.018h0l-.045.022-.016,0h0a.045.045,0,0,0-.049-.025.073.073,0,0,0-.084-.038h0c-.045-.033-.069.013-.1.03l-.028.053.01.03h0l-.005.1-.014.032-.03,0-.028.022h0a.159.159,0,0,0-.07.059h0c-.041.038-.052.066-.01.125s.06.12.093.179h0l.014.014h0l.011.064-.042.021h0c-.038-.008-.037-.062-.073-.073v.006h0c-.04,0-.091-.009-.077.068l0,.02h0c.012.039,0,.06-.039.048a.21.21,0,0,0-.081,0h0l-.076.01-.013.018-.012.034a.168.168,0,0,0-.008.119.02.02,0,0,0,.01.014l.006.048h0c-.014.023,0,.042.009.062h0l-.027.04-.052-.027h0a.051.051,0,0,0-.049-.045h0c-.02-.021-.039-.046-.064-.005h0a.121.121,0,0,1-.085.045h-.016l.019-.1c-.022-.024-.012-.053-.014-.081h0c-.014-.052-.039,0-.057-.008-.053.054-.1.021-.145-.014h0l-.045-.015h0c-.005-.018-.066.028-.051-.038l-.016-.015h0l0-.011a.088.088,0,0,0-.071.032h0c-.015-.016-.032-.009-.049,0h0a.026.026,0,0,0-.015,0c0,.022-.041.05.011.061l.018.014a.013.013,0,0,0,.017,0,.033.033,0,0,0,.011-.024.112.112,0,0,0,.053,0l.008-.006a.039.039,0,0,0,.047.021h0l.012.021h0c0,.039.034.072.016.113l-.028.021h0a.022.022,0,0,0-.014,0l-.05-.012h0l0-.048h0c.013-.01.025-.022.018-.039s-.023-.009-.036-.01v0a.025.025,0,0,0-.013-.018.033.033,0,0,0-.04.013l-.029.021c-.045,0-.071.049-.116.05l-.013.018a.026.026,0,0,0,0,.032l-.011.018h0c-.062.03,0,.044.006.049h0a.014.014,0,0,0,.018,0h0l.028.01h0l0,.033a.077.077,0,0,1,0,.014l-.028,0-.014.019a.03.03,0,0,0,0,.023.037.037,0,0,0-.019.029l.044.011.016-.02.011,0a.037.037,0,0,0,.021-.028.1.1,0,0,0,.1-.005c.011-.012.026-.019.032-.036v0a.052.052,0,0,1,.055,0h0l.032.012h0l.018.014h0a.035.035,0,0,0,.018.032l.035.027.03,0c0,.005,0,.01,0,.016.005.022,0,.047.02.064h0l.005.016h0l0,.032.049.026a.438.438,0,0,0,.042.082l-.015.013c-.019,0-.021.011-.019.023-.016-.009-.028-.008-.027.027,0,.019.013.036.013.055s.008.049-.026.051l-.027.022h0l-.031,0-.015,0c-.03-.008-.036-.064-.079-.046h0l0-.006a.018.018,0,0,0,0-.02h0c-.045.01-.1-.03-.136.018l0,0h0a.037.037,0,0,0,.032.04h0l0,.04-.055.022h-.023L166,156.6l-.018-.018a.075.075,0,0,1-.05.028.033.033,0,0,0-.044-.024h-.013a.037.037,0,0,1,0,.015l.021.027h0c-.029.006-.021.039-.036.056a.014.014,0,0,0-.018,0l-.027.038c-.018.018-.054.018-.053.057a.034.034,0,0,1-.029.02c0,.005,0,.011,0,.016h0c0,.044-.069.051-.049.106h0c0,.028.011.037.032.013a.034.034,0,0,0,.013-.006h0l.046-.018h0l.046.009h0l.023.016-.006.02a.034.034,0,0,0-.025.029.055.055,0,0,0-.042.041h0c-.028.032-.082.011-.1.061l.005,0h0l0,0a.051.051,0,0,1-.034-.027c0-.055-.036-.042-.065-.041l-.014,0,0,.044h0c-.045.014-.037.067-.062.1l.023.063a.031.031,0,0,0,.016.029c.006.047.075.1-.013.138h0c-.035.028-.086-.011-.119.032a.054.054,0,0,0,0,.015h0c-.01.034.013.055.027.08h0a.073.073,0,0,0-.012.049c-.016.014-.01.033-.01.05a.029.029,0,0,0-.01.048.016.016,0,0,0,0,.021c.056.018.121-.029.173.027l.017.013a.013.013,0,0,0,.019,0,.045.045,0,0,0,0-.016l.023,0h0c.017.05.052.019.079.022l.015,0c.016-.033.039-.014.061-.008h0c0,.024.005.047.036.045h0a.034.034,0,0,0,.018.03c.035-.007.062.027.1.022l.012-.035h0c0-.075.043-.084.1-.079l.014-.019c.028-.011.045-.038.068-.057l.014-.02h0a.1.1,0,0,0,.039-.052h-.016a.128.128,0,0,0,0-.015.033.033,0,0,0-.018-.01h-.007l0,0-.009-.08.029,0h0c.02.024.071.02.058.073l.058-.008v.005l.047-.012h.014l.012-.017a.04.04,0,0,0,0-.045l-.007-.007.013,0a.033.033,0,0,0,0-.036c-.017-.018-.035-.025-.054-.013l0,0-.01-.007.009-.014c0-.024-.023-.037-.036-.054l-.011-.01.052-.038h0c.049-.018.042.043.069.057h0l.015,0,.128.049.041-.035,0,0c.03,0,.065-.018.078.031a.027.027,0,0,0-.014,0,.033.033,0,0,0-.014.04.036.036,0,0,1,0,.029l-.005,0a.028.028,0,0,0-.03.011c-.022.057.016.1.034.144s.04.058.058.09a.278.278,0,0,1,.084.074h0c.014,0,.016.017.019.03h0c-.027.024-.062.038-.086.005-.047-.063-.1-.049-.162-.039h0c-.029-.024-.052,0-.076.011h0l-.029.005c-.019.028-.03.062-.051.09-.051.067.012.122.027.18.011.043.048.037.082.02s.047.016.071.022h0l.017.015h0l.04.077h.028c.031.036.047.066.006.114s.026.094.043.142h0l.006.049h0c.064.073,0,.126-.024.186a.1.1,0,0,0,0,.016.032.032,0,0,0,.017.005.046.046,0,0,1,0,.009l-.013.022h0l-.074.008-.014.031h0c-.037-.018-.076-.045-.085.029h0l-.018.018c.019.045-.042.06-.031.1h0l-.011.023c-.005.081.052.076.1.084h0a.033.033,0,0,0,.019.029c.014.021.027.041.05.01a.051.051,0,0,1,0-.015h0l.011-.035,0-.031v0l.009-.018v0l.075-.035h0l.014.013h0l.007.047-.013.034h0l-.027.022c0,.038-.024.078.012.112l0,.018a.168.168,0,0,0,.066.156v.017c.02,0,.04-.007.06-.008s.037,0,.02.032,0,.029.012.037l-.075.088h0c-.043,0-.1-.039-.107.051l-.04-.017v0h0l0,0-.006-.03c-.02-.008-.042-.02-.044.02-.043.007-.041.068-.081.079v.015h0a.054.054,0,0,0-.025.038h0l-.015,0a.19.19,0,0,0,.01.063.1.1,0,0,1-.033.137l0,.017c.019.014.033,0,.047-.011l0-.005c.015.018-.008.041,0,.059h0v.015h0c-.037.017-.028.056-.037.087h0l-.026.021h0l-.023-.046-.029,0h0a.035.035,0,0,0,0,.032l0,.007-.021.027a.022.022,0,0,0-.012,0c-.048.023-.025.073-.035.111a.06.06,0,0,0,.016.034c.013.024.016.055.041.072.026.035.062.025.1.027a.019.019,0,0,0,.016,0c.01.034.029.015.046,0v-.015l-.008-.033h0a.032.032,0,0,1,.031-.02h0c.058.027.1.108.178.074h0l.046.01,0,0,.044-.008.027-.036,0-.018a.06.06,0,0,1,.043-.04.024.024,0,0,0,.012,0h0a.082.082,0,0,0,.087.053c.014-.033.057-.011.072-.043h0c.012-.027.036-.027.058-.026h.015c.043.029.071,0,.1-.031s.069-.05.111-.014h.016v.014a.031.031,0,0,1,.033.012h0l-.005,0a.045.045,0,0,0,.011.044c.016.012.025.034.049.032v-.006h0c.042.025.073,0,.1-.021a.045.045,0,0,0,.014-.009l.016-.018h0v0l0,0c.069-.01.064.071.1.1a.118.118,0,0,1,.093.025h0l.01.063-.014.033h0l-.012.006h0l-.015,0-.012.018c-.042.035-.09.065-.063.14.012.033.041.046.053.075h.017l0-.006h0l0,.006a.034.034,0,0,1,0,.014c.038.032.01.093.048.125h0a.135.135,0,0,0,.079.023.052.052,0,0,0,.085.012.2.2,0,0,1,.1-.04c.034.083.05.095.045.023a.047.047,0,0,0,.025.005l0,0h0l0,0c.069.043.056-.029.073-.06l0,0h0l0,0a.1.1,0,0,0,0-.132h0l-.046.006h0a.108.108,0,0,0,0-.015c-.025,0-.047-.035-.074-.01-.012-.073-.028-.164-.048-.271h.013l.007-.07a.053.053,0,0,0,.025-.052l.029-.022h.006a.027.027,0,0,0,.008.013c.01.008.023.014.028.025.052.108.079.119.2.081a.064.064,0,0,0,0-.043l0-.005c.021,0,.037-.016.056-.023l.012,0c-.006-.049.061-.056.051-.106.027-.008.046.01.064.027s.037,0,.033-.023-.017-.05.01-.054.025.033.031.054-.006.077.028.106h0l.017.017h0c.01.04.044.026.068.036h0l.015.018c.023.021.043.016.062-.008s.046-.009.068-.018l0,0c0,.043.023.085,0,.128a.1.1,0,0,1,0,.013l-.005,0a.062.062,0,0,0-.051.027v0c-.024-.038-.033-.1-.1-.063v.012c-.082.02-.1.114-.034.2h0l.019.047.013,0h0l.034.014a.023.023,0,0,0,.021,0c.056.005.066-.018.06-.112h0c.018-.012.009-.063.051-.041h0l0,.016h0l0,.1h0l.016.027h0a.072.072,0,0,0-.025.053h0l-.027.006h-.014c-.033-.03-.066-.022-.08.015a.1.1,0,0,0,.044.109c.021.017.044.007.066.005l0,.016a.071.071,0,0,1,.025.02l0,0c0,.023,0,.047,0,.071l-.073.785a3.552,3.552,0,0,1-.052.414,3.35,3.35,0,0,0-.088.4,2.719,2.719,0,0,1-.045.439,1.606,1.606,0,0,0-.069.4c0,.26.032.525.056.786a.041.041,0,0,0-.006.025l0,.11a.042.042,0,0,0,.01.026.041.041,0,0,0,.034.024.573.573,0,0,0,.239-.029.043.043,0,0,0,.025-.051v0a.55.55,0,0,0-.021-.163c-.014-.148-.016-.3-.023-.445l-.023-.469a6.973,6.973,0,0,1,.142-.746.358.358,0,0,0,.034-.125,2.427,2.427,0,0,0-.009-.271.043.043,0,0,0,0-.011c0-.025,0-.049,0-.074a.039.039,0,0,0,0-.016c0-.008,0-.016,0-.024l0-.012c0-.019,0-.038,0-.057v-.006c0-.062,0-.123.008-.185,0-.04,0-.081.005-.122.014-.139.028-.278.03-.418,0-.172-.009-.344-.022-.516a2.939,2.939,0,0,0,.026-.3l.017,0h0l.012-.019h0c.021-.022,0-.077.053-.074.045-.012.108.031.13-.05,0-.023-.006-.049.027-.052l.006-.01c.005-.062-.049-.049-.077-.071a.039.039,0,0,0-.029.006l-.038-.056h0l.013-.018a.013.013,0,0,0,0-.016h-.014a.036.036,0,0,0-.021-.029h0c0-.023-.006-.048.025-.053.077.022.117-.023.145-.091a.049.049,0,0,0,0-.011l.027,0h0l.019.014h0l.016.017c.018.016.034.015.047-.007l.029-.005h0a.082.082,0,0,1,.01.082h0l-.045.006c0,.047.024.036.048.029l0,.014c-.028.063.026.066.055.089l.013-.032h0l.031,0h0l0,.014h0v.018a.027.027,0,0,1,.016.023l-.009,0c-.026.034.006.048.02.069l.032.012.06,0,.014-.005c.036-.034.028-.084.038-.127a.03.03,0,0,0-.007-.009h.014l0-.048,0-.034a.058.058,0,0,0,.006-.047l0,0c.014-.007.019-.027.032-.037h0l.031.014.01-.051h0a.035.035,0,0,1,.011-.034.011.011,0,0,0,.017,0,.057.057,0,0,0-.012-.047l.058,0v.006a.06.06,0,0,0,.038.032.079.079,0,0,0,.028.005c.019-.006.033.023.053.007l.016-.019h0l.049.014.046.025.022.028a.037.037,0,0,0,.012.018.085.085,0,0,0-.031.008.07.07,0,0,0-.017.014.111.111,0,0,0-.03.072l0,.028h0v0h0a.033.033,0,0,0-.023-.018.03.03,0,0,0-.026.015c-.014.026,0,.061-.021.084a.033.033,0,0,0,.011.029.053.053,0,0,0,.065.024h0l.031-.007h.016l0,.015c.02.05-.026.069-.042.1s-.028.041-.011.066.031.037.056.015a.063.063,0,0,1,.017-.063.066.066,0,0,0,0,.013.137.137,0,0,0,.022.08l.031,0v0l.059-.023.033.014c.005.024.012.047.038.052a.125.125,0,0,0,.009-.026h0a.04.04,0,0,1,.012-.036l-.005-.047h-.008c-.007-.016-.018-.031-.026-.047h0a.08.08,0,0,0,.024-.019l.01,0-.014-.03c.013-.028-.019-.045-.016-.071-.017-.029.038-.049.01-.08l0-.043h0l.016.012.017,0c-.014-.059.038-.033.056-.05,0,.007.01.007.016.01h0a.072.072,0,0,0,.028.031c.014-.012.026-.046.047-.008l.013,0,.016,0c.016,0,.033-.007.042-.025s0-.01,0-.015h-.015c0-.005,0-.01,0-.015h0l.053-.056v-.015h0a.067.067,0,0,1,.066-.044c.005.007.014.009.021.014l.06-.005h0l.065.02c.048.006.1-.005.133.051.014.024.042.011.062,0a.223.223,0,0,1,.087-.021l-.014.032c.016,0,.033,0,.043-.021l.027-.035a.148.148,0,0,0,.009-.033.235.235,0,0,0,0-.07.031.031,0,0,0-.024-.022h0v-.007h0a.16.16,0,0,0,.018-.086c.047-.009.076-.049.111-.075.05-.038.012-.091,0-.138h0a.283.283,0,0,1,.084-.064.078.078,0,0,0,.04-.051h0l.025-.052c.016,0,.033-.008.047.01h0c-.012.021-.035.04-.008.066l0,.049-.013,0h0l-.026.022,0,0c-.029.1.048.158.1.21a.144.144,0,0,0,.18.006h0l.058-.011.026-.036a.034.034,0,0,0-.033-.008l.029-.04a.035.035,0,0,0,.01-.036h0l0-.031h0a.043.043,0,0,0,.023-.052.088.088,0,0,0-.024-.062h0v-.019c0-.086.05-.045.086-.042h0c.024.023.052,0,.077.007v0h0a.048.048,0,0,0,.058-.037h0l.026-.037-.005-.006.005.006.029-.005h0l.019.015.02.048h0c-.02,0-.029.014-.028.036h0l-.013.019a.065.065,0,0,0,.047.073.027.027,0,0,0,.008.016l0,0a.062.062,0,0,0,0,.023c.013.052.061.038.091.057.025,0,.025-.026.029-.045l0-.017c.015-.008.035.016.047-.009h0c.015-.013.01-.031.01-.048a.2.2,0,0,0,.038-.17c.022-.019.008-.045.012-.068-.025-.03-.064-.045-.077-.087l-.013,0h0l-.017,0h0a.093.093,0,0,0-.061-.029h0l0-.012,0-.017c-.038-.043-.056-.1-.107-.133l0-.018-.019-.014c-.065.008-.036-.069-.071-.089h0c-.038-.014-.086-.011-.1-.065a.022.022,0,0,0,0-.015c-.007-.025-.027-.042-.03-.069,0-.045-.011-.077-.066-.077s-.065-.057-.079-.1h0c-.013-.062-.045-.045-.077-.021l-.029.035h0l-.058.011-.024.051-.015.02h0c-.023-.025-.05-.006-.075-.007h0c0-.023-.014-.04-.037-.043h-.029c-.029-.051-.043,0-.063.01h0l-.075.012v0a.088.088,0,0,1-.076-.006h0l-.022-.027h0c-.006-.042-.027-.021-.045-.012l-.017-.014-.041-.076a.038.038,0,0,0-.045,0l-.029.007h0c-.007-.008-.013-.016-.02-.023-.076-.078-.076-.078-.14.016-.005.008-.016.011-.024.016h0l-.008-.067h0c0-.033-.024-.063-.01-.1h0l.029,0a.219.219,0,0,0,.045-.157.11.11,0,0,1,.025-.072c.024-.04.058-.088-.006-.128h0l-.018-.03c.006-.017-.008-.025-.016-.035-.036-.039.019-.05.021-.077v0h.011v-.005l.029.014,0,0a.045.045,0,0,0,.01.046c.031-.009.055.012.081.024.016,0,.034,0,.043-.022h0l.042-.038c.059,0,.087-.072.143-.073l.005.006c.017.018.041.01.06.023l.031,0h0a.706.706,0,0,0,.074.006c.058,0,.069-.045.068-.094,0-.085.028-.107.107-.082a.12.12,0,0,0,.037,0h0l.056-.041h0c.032-.02.073-.018.1-.046l.014-.034.011-.018h0c.021-.021.01-.044,0-.066h0c.007-.023-.008-.034-.02-.047l-.033-.143h0c0-.057-.059-.056-.083-.09h0v-.016c-.036-.011-.072-.021-.107-.034a.079.079,0,0,0-.09.01c-.027.023-.033,0-.024-.026h0l.192-.062.135-.018.018.014.017.014a.1.1,0,0,0,.077.007h0l.019.047,0,.017.164-.039.01-.05a.153.153,0,0,1,0-.016H172s0-.01,0-.015l.016-.018h0l.061.007h0l.021.03c0,.005,0,.011,0,.016a.162.162,0,0,0,.068-.04v0a.013.013,0,0,0,.019,0c.071-.058,0-.11-.005-.166h0v0c.046-.046.014-.058-.025-.067h0l-.015-.011c-.055-.015-.015-.042-.008-.065s0-.037-.02-.047h0l-.017-.015c-.011-.046,0-.066.049-.074s.076.013.107-.011l.015,0a.088.088,0,0,0,.044-.031.039.039,0,0,0,.006-.011h.008a.057.057,0,0,0,0-.062h0c.021-.037.069-.012.091-.047h0c.052-.005.038-.07.07-.093l0-.016.036,0,.01-.012,0-.006,0-.006,0-.005,0-.005,0-.005h0l0-.007A.079.079,0,0,0,172.559,155.894Zm-2.361-1.8h0Zm-.082.473h0v0h0Zm-.589,5.315Zm-2.847-1.163a.179.179,0,0,1,.044.075A.082.082,0,0,1,166.68,158.723Zm2.748.892h0a.048.048,0,0,0-.01-.033l.01-.009c.028.033.069.019.1.03a.213.213,0,0,0,.049.009h0a.539.539,0,0,1-.1.016v.028a.026.026,0,0,0-.023,0v0C169.459,159.629,169.456,159.606,169.427,159.615ZM172.27,156c-.006.008-.013.017,0,.027-.01,0-.006-.02-.012-.023-.041-.021-.083-.047-.128-.011l-.04,0c0-.03.023-.055.03-.085.005.018,0,.042.02.054l.026-.037h0c.008.043.032.005.047.01l0,.016c.012.009.026.014.034.029l.03,0-.02-.057h0a.068.068,0,0,0,.059-.012.1.1,0,0,0-.023.067.046.046,0,0,0,0,.009A.064.064,0,0,0,172.27,156Zm-.3,3.054h0Zm-.659-.035c-.016,0-.027.007-.036.022h0c-.022-.023-.056-.032-.065-.069h0c.031.009.059-.009.089-.013l.021.041,0,0A.063.063,0,0,0,171.312,159.017Zm-2.593.675a.043.043,0,0,0-.023,0,.052.052,0,0,0-.042,0,.268.268,0,0,0-.038.018l-.009,0c-.018-.024-.041-.019-.064-.012l-.019,0h-.011l0-.006,0-.01c.032-.029.028-.052-.024-.07h0l-.008-.049h0l.03,0-.006-.049a.028.028,0,0,0-.014-.006v0c.047.017.1.034.143.049.027.008.062.016.1.027l.019.059-.005.008a.046.046,0,0,0,0,.012c-.016,0-.023.018-.031.032v0Zm-.225.049h0Zm-1.768-2.5,0,.009A.009.009,0,0,1,166.727,157.244Zm3.416-2.064h0Zm1,2.049h0c-.016-.02,0-.043-.007-.065.028,0,.015-.09.068-.046h0a.041.041,0,0,0-.009.052l0,0C171.167,157.182,171.184,157.238,171.141,157.228Zm-2.009,2.445h0Zm-.311-.277a.65.65,0,0,0-.116-.172c.016-.058.064-.1.082-.163a.609.609,0,0,0,.02-.1h0a.01.01,0,0,0,0,.005.1.1,0,0,0,.069.115h.013l.02.039a.05.05,0,0,0-.005.01c.006.036-.005.077.024.108h0a.175.175,0,0,0-.036.165l0,0h0a.039.039,0,0,0-.021.026c0-.012-.018-.012-.03-.015l-.011,0C168.827,159.412,168.825,159.4,168.822,159.4Zm-.184-.249a.37.37,0,0,1-.078-.152c.012-.008.024-.017.008-.04s0-.052.038-.055.047,0,.061-.024l.06-.023v0l.011.018a.937.937,0,0,1-.023.157.64.64,0,0,1-.066.129Zm-2.554-1.979h0v0h0Zm1.7-2.736h0Zm3.7,4.454a.024.024,0,0,0-.028,0l0,0v0l.015-.008a.065.065,0,0,0,.04-.042.008.008,0,0,0,.008,0,.042.042,0,0,0,.019.008c0,.011.013.014.021.021l.008,0,0,.026.016.013,0,0,.019.016c-.016.01-.03.025-.046.034l0,0a.18.18,0,0,0-.046-.042.019.019,0,0,0-.011,0A.027.027,0,0,0,171.481,158.886Zm-1.96-3.347v0h0Zm.526,3.714a.143.143,0,0,0-.04-.057h0l-.016-.028,0,0a.153.153,0,0,0,.01-.067.051.051,0,0,0-.018-.032.073.073,0,0,0,.029-.014c.014-.022.052-.018.059-.048h0a.194.194,0,0,0,.034,0,.044.044,0,0,0,.011.029l.009.014h0a.09.09,0,0,1,.006.057h-.005c-.019.017-.049.027-.038.064h0C170.045,159.17,170.061,159.223,170.047,159.254Zm-1.456-.392,0-.008.008,0Zm-1.259.782a.027.027,0,0,0,0-.031h0l.011-.015h0l.032.012h0l0,.033a.122.122,0,0,0,.043.038.212.212,0,0,0-.033.027.2.2,0,0,0-.025.028v0a.168.168,0,0,1-.018-.078A.034.034,0,0,0,167.332,159.644Zm3.58-.973a.016.016,0,0,1,0,.017A.039.039,0,0,1,170.912,158.672Zm-4.344-1.8,0-.012.012,0Zm4.54-1.954Zm.633,1.25-.012,0a.065.065,0,0,0-.03.007c-.012.009-.03.013-.036.029-.009-.012,0-.027,0-.041s0-.024-.007-.035a.018.018,0,0,0,.026-.009.02.02,0,0,0,.008.01.261.261,0,0,0,.066.015A.042.042,0,0,0,171.741,156.168Zm-2.254,2.969-.013-.012c-.018-.012-.03-.008-.037.01a.032.032,0,0,0-.034,0,.03.03,0,0,0,0,.035l0,.012c-.014,0-.021.01-.026.023-.022-.036-.063-.027-.1-.039a.021.021,0,0,0,0-.023h0a.244.244,0,0,0,.049-.011.556.556,0,0,0,.058-.02.157.157,0,0,1,.116,0l0,0A.04.04,0,0,1,169.487,159.136Zm-2.095-3.478h0Zm.989,3.125c-.021-.011-.039,0-.058.008l.006-.094,0-.007.024-.018v-.015h0v0c.011-.012.031-.02.027-.04h0c.017,0,.033,0,.04-.022l0-.019a.06.06,0,0,0,.019-.025l0-.008.014.182-.009,0A.1.1,0,0,0,168.381,158.783Zm1.838-.012h0Zm-2.639.818a.016.016,0,0,0-.018-.008.056.056,0,0,0,0-.024.074.074,0,0,0-.008-.031l0-.005a.045.045,0,0,0,.029-.012.084.084,0,0,0,0,.032.085.085,0,0,0,.006.022.06.06,0,0,0,.008.01A.028.028,0,0,0,167.58,159.589Zm3.445-4.212h0Zm-2.114,3.142,0-.022h0C168.918,158.514,168.916,158.519,168.911,158.519Zm-.618-3.393c.027-.007.079.023.06-.048,0,0-.007-.005,0,0a.03.03,0,0,0,.023.015c-.006.02,0,.03.022.037v0a.217.217,0,0,0-.042.141c0-.006-.008-.009-.02,0-.03.01-.005.046,0,.07h-.006c-.011-.02-.021-.017-.032-.009a.046.046,0,0,0-.01-.029h0c.015-.034.029-.067-.019-.085h-.01c.055-.012.035-.051.032-.085Zm1.227.878v0h0Zm.884,3.006h0Zm-3.172-2.125Zm2.867-.564,0,0h0Zm-2.75.646Zm.75,1.659v0h0Zm-.785-.7a.043.043,0,0,0-.02-.028h0c.026-.013.038,0,.049.02Zm1.669-2.427,0,.008A.006.006,0,0,1,168.983,155.5Zm.215,2.734a.04.04,0,0,1-.006.01l0,.016v.011c-.032-.015-.068-.021-.091-.053l0,0h0a.1.1,0,0,0,0-.043.267.267,0,0,1,.009-.08.037.037,0,0,0,.039.007.066.066,0,0,0,.014.048l.018.026A.1.1,0,0,1,169.2,158.238Zm-.672-2.466h0Zm1.035,2.088a.034.034,0,0,0-.016-.011.07.07,0,0,0,.038-.007v0A.02.02,0,0,0,169.561,157.86Zm.61-.785h0Zm-2.625.05a.038.038,0,0,1-.011.01l-.025,0v0c-.029-.035.008-.047.02-.068h.015l.021.059h0A.035.035,0,0,0,167.545,157.125Zm.918.217v0c-.027-.008-.038.007-.042.036l0,.005a.017.017,0,0,0-.014-.006.023.023,0,0,0-.013.011l0,.032h-.023a.046.046,0,0,0,0-.015.307.307,0,0,0-.054-.058.153.153,0,0,0,.019-.141l-.006-.008.024,0h0a.029.029,0,0,0,.044-.006h0a.124.124,0,0,1,.063.027.074.074,0,0,0,.006.08h0a.02.02,0,0,0,0,.009A.044.044,0,0,0,168.463,157.342Zm-.945.778h0l0,0Zm.062.107h0l.009,0Zm.78-1.127-.044,0-.011,0c0-.011,0-.021-.016-.016h0a.034.034,0,0,0,0-.011.025.025,0,0,0,.026,0,.052.052,0,0,0,.01-.049h0a.1.1,0,0,0,.032.07h0Zm-.653,1.54-.005-.011C167.708,158.632,167.709,158.636,167.707,158.64Zm.937-1.115Zm.7-.555,0,.005,0-.006Zm-.094.067-.006,0h0Zm-.859-.47h0Zm.187.18.006,0h0S168.578,156.749,168.578,156.747Zm0-.007Zm.34.153Zm-.53-.327Zm0,0h0Zm-.453,1.215h0Zm.224-.69Zm.007-.329v0l0,0Zm-.3.731h0Zm-.1.635c.008-.013.012-.031.023-.042a.244.244,0,0,0,.008.041Zm1.237-1.512h0Zm.626.48h0Zm-.676.254h0l0,0h0Zm.008.075h0l0,0v.009h0Zm.79-.329h0v0Zm-2.019,1.207Zm.137-.2a.091.091,0,0,0-.013-.019l-.006-.006.014-.032.005,0a.082.082,0,0,0,.03-.036l.012.026,0,0a.028.028,0,0,0-.008.029h0A.055.055,0,0,1,167.876,158.106Zm1.04-.879Zm.842-.127v0h0Zm-1.954-.687h0Zm-.01.182h0Zm-.211,1.331,0,0h0S167.583,157.926,167.583,157.925Zm.292.476h0l0,0h0Zm.971-.969h0Zm-1.042-1.021h0Zm1.326-.075h0Zm-1.529.681h.014l.006.035,0,0a.041.041,0,0,0-.008.022.106.106,0,0,0-.025-.017l0,0Zm.619.433v0c-.033.006-.048.05-.085.045h0l-.027,0a.182.182,0,0,0,.021-.11.055.055,0,0,0,0-.01h.006c.036.017.073-.021.109,0h0v0c.019.037.056.052.083.081l.006,0,0,0h0A.132.132,0,0,1,168.22,157.452Zm.658-1.484h-.017a.01.01,0,0,1-.012-.01h.029A.065.065,0,0,1,168.878,155.967Zm-.151.1h0Zm-.7,2.352h0Zm.584-.778h0Zm.362.094h0Zm.209.07Zm.308-.106Zm-.3-1.481h0Zm-1.281,2.646h-.007l0-.006Zm2.1-.529,0,0h0l0,0Zm.514-1.816v0h0Zm-2.594-.534h0Zm-.473,1.9a.046.046,0,0,0-.03,0l-.007.006h0c.007-.016.014-.033.021-.049A.076.076,0,0,0,167.465,157.882Zm.1.529h0l0,0Zm.817-.6Zm.012-.033h0Zm1.348.433v.008a.027.027,0,0,1-.008-.008Zm-1.279-2.294h0Zm-.811.4v0Zm-.173,2.01Zm-.012.413h0Zm2.3-2.186h0Zm-1.389-.96v0h0l-.007,0Zm-.276,2.948Zm1.5-.692h.008c0,.019.016.025.028.033l0,0v0a.052.052,0,0,0-.049-.008Zm.461.549Zm-.113-1.843v-.009l.006.005Zm-1.428-.78h0Zm-.325-.447-.006-.008a.017.017,0,0,1,.008.008Zm-.614,3.892h0Zm1.309-.969h0Zm1.274.115h0Zm-2.518-2.387h.007v.009Zm-.228,2.962a.324.324,0,0,0,.025.034.022.022,0,0,0,.011,0v0C167.444,158.969,167.4,158.989,167.425,158.939Zm1.039-.924v0h.006Zm.907-.173h0Zm.32.619h0Zm.517-.035Zm-.071-.718h0Zm.272-.845h0Zm.212-.111h0v0h0Zm.037-.267v-.006l0,0h0l0,0Zm-.109-.219h0v0Zm-3.266,1.572Zm1.8.754h.005l0,0Zm.287-.409a.059.059,0,0,0,.019,0,.057.057,0,0,0,0,.047.074.074,0,0,1-.019,0A.058.058,0,0,0,169.368,158.182Zm.858-.122Zm-.086-.387s0-.008,0-.007h0Zm.555-1.03c-.069,0-.068,0-.059-.125l0,0,.018-.014h0a.111.111,0,0,1,.048.063.153.153,0,0,1,0,.023.058.058,0,0,0,.009.035l0,0A.028.028,0,0,0,170.7,156.644Zm.287-.861v0h0Zm.042-.159h0Zm.136-.016h0Zm-2.115-.234h0Zm-.523-.029h.009Zm-1.211,1.43h0Zm-.078.112h0v0h0Zm-.034.747v0h0Zm.016.915.014-.011c.029,0,.052.011.054.058h0l-.016.019-.045.02-.006,0h-.006a.089.089,0,0,0-.009-.049.03.03,0,0,0-.011-.01A.224.224,0,0,0,167.216,158.548Zm.16.479.005,0h0Zm.343.293v0l.015,0A.03.03,0,0,1,167.72,159.32Zm.5-.714h0Zm1.016-.1h0Zm.387-2.545Zm-1.364-.747h0Zm-.991,3.255Zm.959.353v0l0,0Zm.122-.415v0h0Zm1.927-.449h0Zm0-.331h0Zm.628-1.571,0-.008a.021.021,0,0,1,0,.008Zm-1.672-.389h0Zm-.577-.2a.17.17,0,0,1-.017.113h0a.1.1,0,0,0-.037-.075c.016-.015.029-.035.053-.038Zm-1.43,3.462-.007,0h0Zm.73.429h0l.1-.017h0l0,.009h0a.177.177,0,0,0-.047.087.048.048,0,0,0-.024-.01Zm1.464-1.048,0-.007c.013.007.023,0,.031-.014a.021.021,0,0,0,0-.022l-.007-.05V158.2h0a.035.035,0,0,0,.021-.042l0-.021h.008a.059.059,0,0,0,.036-.028l.006.006a.056.056,0,0,0-.007.055.05.05,0,0,0,.024.022s0,0,0,.006a.064.064,0,0,0,0,.062l.005.005-.023.021H169.5l-.029.018C169.456,158.291,169.438,158.314,169.421,158.306Zm.94.365v0h0v0Zm-.034.633a.054.054,0,0,1-.011-.015C170.322,159.291,170.324,159.3,170.327,159.3Zm0-1.947v0l0,.007ZM169.52,156h0Zm-.9-.74Zm-.205,3.152v0Zm.359-.2Zm.628.2c.029,0,.036-.022.037-.052l0,0a.045.045,0,0,0,.033,0,.058.058,0,0,0,0,.042h0a.077.077,0,0,0-.074.017A.068.068,0,0,0,169.4,158.418Zm.939.569h0ZM171,155.33v-.006l.01,0Zm-.812.534v0h0Zm-1.519-.64Zm-.784.368h0Zm-.582,3.828a.026.026,0,0,0,0-.018l-.008,0a.083.083,0,0,1,.036-.028.044.044,0,0,0,.012-.018.033.033,0,0,0,.028.022c-.011.012-.017.026-.028.038l-.017.018C167.328,159.422,167.323,159.416,167.309,159.419Zm.16.143a.085.085,0,0,0,0-.032l.015,0a.028.028,0,0,0,0,.02A.064.064,0,0,0,167.469,159.562Zm.62.107,0,0h0Zm.921-.758v0h0Zm.308.014H169.3a.046.046,0,0,0,0-.009l.007-.008a.4.4,0,0,0,.008-.1.055.055,0,0,0-.013-.035h0c.028-.023.02-.061.03-.092a.389.389,0,0,0,.021-.079.046.046,0,0,0-.014-.032.028.028,0,0,0,0-.012l.011,0a.117.117,0,0,0,.018-.036.07.07,0,0,0,0-.016c.017,0,.018-.024.025-.037h0a.027.027,0,0,0,.022,0c.015,0,.026-.022.044-.014l.029,0h0l.062.007h0l.014,0h0l.02.027h0c-.016.032-.007.071-.026.1a.09.09,0,0,0,0,.082.009.009,0,0,0-.01.005l-.055.04h0l-.091,0-.029.036h0c-.025.009-.034.027-.013.046a.086.086,0,0,1,.027.069c.013.069-.04.048-.069.06Zm1.177.319,0,0v0h0l-.021-.046-.008-.066a.033.033,0,0,1,.032.014c.025,0,.053.017.075-.01h0a.035.035,0,0,1,.021.005.05.05,0,0,1,.012.017.243.243,0,0,1,0,.031h0a.053.053,0,0,0-.03.04h0a.024.024,0,0,0-.014,0C170.541,159.238,170.515,159.228,170.494,159.244Zm-1.264-3.861h0Zm-1.983,3.813Zm.991.2h0v0Zm.281-.813h0l0-.051c0,.009.008.017.011.026l.01.011h0A.038.038,0,0,0,168.519,158.583Zm1.727-2.958h0l0,0Zm-.879,0h0Zm-.4-.757h0Zm-1.557,1.1h0Zm-.386.234h0v0l0,0Zm.149,3.3v0h0l0,0Zm1.588-.835h0Zm2.03-3.425h0l0,0v0l0,0Zm-1.874-.266v0h0Zm-2.217,1.979v0h0Zm1.624,1.945c.015,0,.02.012.024.024C168.342,158.916,168.335,158.907,168.327,158.9Zm.23-.42h0v0Zm1.632.365c.016,0,.027-.008.034-.023l0,0a.034.034,0,0,0,.033,0,.062.062,0,0,0,.007.036.428.428,0,0,1-.077,0A.031.031,0,0,0,170.189,158.844Zm.628.41c-.027,0-.053.006-.053-.041h0a.057.057,0,0,0,.041-.039h.006a.1.1,0,0,0,.027.045A.045.045,0,0,0,170.817,159.254Zm-.337-.878,0,0Zm.032-.238h0Zm-.008-.181h0Zm.392-2.761h0l0,0h0Zm-.476.509v0l0,0Zm-2.534-.381,0,0,0,0A.031.031,0,0,1,167.887,155.323Zm.324,4.352h0Zm.7-.061h-.008v-.008Zm.344-.153h0Zm1.764-.381h0Zm.7-2.868a.04.04,0,0,0,.03-.02h0l.041-.007,0,0,0,.009C171.772,156.2,171.748,156.22,171.722,156.211Zm-.082-.7h0Zm-.448-.462-.005,0,0,0Zm-2.382-.106h0Zm-1.081.457Zm.4,4.492h0Zm2.808-.866v.006a.192.192,0,0,0-.01-.022A.053.053,0,0,1,170.937,159.024Zm.134-2.778h-.005l0-.014h0a.051.051,0,0,0,.036-.017C171.1,156.231,171.1,156.25,171.071,156.246Zm.565-.741h0Zm-1.294.032a.077.077,0,0,1,0,.012A.047.047,0,0,1,170.342,155.537Zm-1.611-.866h0l0,0Zm-.312-.045v0h0Zm-.819.723h0Zm-.656,1.129c-.033.014-.038.04-.03.073l0,0a.061.061,0,0,0-.018-.046.035.035,0,0,0,0-.015.015.015,0,0,0,0-.013v0c.025,0,.032-.02.038-.042h0l0,.011A.078.078,0,0,0,166.944,156.478Zm-.039.747h0Zm.337,2.564h0l0,0Zm3.842-.851h0v0Zm.272-.273,0,0h0A.03.03,0,0,1,171.355,158.665Zm-.223-1.617h0Zm.135-.679h0Zm.169-.121v.006l0-.005Zm-3.835-.9Zm-.031-.054h0v0Zm-.213.246a.029.029,0,0,0,0,.007.07.07,0,0,0-.026.025.056.056,0,0,0,0-.018A.036.036,0,0,0,167.357,155.541Zm-.4.472h0l0,0Zm-.947,1.334,0,0,0,0Zm0,0Zm-.015-.128Zm.161-.076,0,0h0v.006Zm.109-.11Zm2.028,2.723h0Zm1.354-.586a.038.038,0,0,0-.013.01l-.014-.009h0l0,0c0-.042-.046-.056-.052-.095l.1,0h0l.016.015a.051.051,0,0,0,.012.025v0a.025.025,0,0,0,.008.014.055.055,0,0,0-.019.014A.067.067,0,0,1,169.65,159.166Zm1.984-.118h0v0Zm-.189-.295v0h0l-.009-.008Zm-.6-.295Zm-.225-.218Zm1.572-2.527a.006.006,0,0,1,0,0Zm-1.983-.526h0Zm-1.124-.663Zm-1.961,1.3h0v0l.008,0Zm-.23,0Zm-.856,1.17h0Zm-.3.364a.485.485,0,0,0,.06-.01C165.777,157.378,165.761,157.392,165.733,157.357Zm1.342,1.812h0Zm-.011.032v0h0Zm.639.845h0l0,0h0Zm.669-.658,0-.01h0v-.015l-.006-.049h0l.027-.02c.018.013.036.026.057.012a.038.038,0,0,0,.008.01l.03-.02a.19.19,0,0,0-.055-.166c-.012-.018-.029-.029-.019-.054,0-.041.031-.034.054-.04l.018,0a.357.357,0,0,0,.039.089.978.978,0,0,0,.1.127.037.037,0,0,0,.012.014.6.6,0,0,1,.1.145c0,.009.007.018.01.027a.1.1,0,0,0-.051.029.038.038,0,0,0,0,.032.022.022,0,0,0-.012,0l0,0C168.582,159.464,168.476,159.429,168.372,159.388Zm.523.713h0Zm.012,1.29h0Zm.511-2Zm2.505-.478h0Zm-1.081-.454h0Zm.637-1.456h0Zm-.008.051h0Zm.853-1.335,0,0v0Zm-.223-.069h0Zm-.685-.734h0Zm-.892.074.014-.006A.014.014,0,0,1,170.524,154.988ZM168,154.6h0Zm-.1.046h0Zm-.469.534h-.005v0Zm-.541.64h0Zm-1.361,1.7h0Zm1.347,1.642v0h0v0Zm.053.04a.075.075,0,0,0,.015-.035c.015,0,.03-.005.042.011l.014,0,.034.029h0c0,.037.07.006.052.06h0a.141.141,0,0,1-.083,0h0c-.011-.041-.055-.024-.076-.047Zm1.042,1.415-.077-.022h0c0-.036-.023-.075.018-.1.007-.01.021-.007.028-.017l.036.107A.137.137,0,0,0,167.97,160.62Zm.114-.593h0Zm1.342-.5,0,0h0a.04.04,0,0,0-.027-.044l.021,0,0-.06h0l.043-.012,0,0h.013l.013-.018h0a.037.037,0,0,0,.042.006c.022.028.02.072.049.1l.015,0h.014l.018.026h0a.032.032,0,0,0,0,.028c-.038-.023-.081-.01-.121-.021h-.019a.208.208,0,0,1-.036,0A.034.034,0,0,0,169.426,159.532Zm1.139.07,0,0h0l0,0Zm.85-1.1v0Zm-.731-.716h0Zm.646-.515h0l-.034-.013-.024-.046c-.016-.067.018-.054.05-.045h0a.126.126,0,0,0,.037.052l.009.007A.044.044,0,0,1,171.33,157.27Zm.143-.212,0,0h0Zm.5-.947h0Zm-2.9-1.684h0Zm-1.7.606a.036.036,0,0,0,.029.011h0a.12.12,0,0,1,0,.064c-.021-.015-.047-.016-.068-.029l0-.005C167.341,155.058,167.359,155.05,167.365,155.033Zm-1.012.911h0Zm-.206,1.365h0v0h0Zm1.8,2.885h0l.006-.006.006.007Zm.4-.308a.042.042,0,0,0-.01.033.055.055,0,0,0-.026.014.394.394,0,0,1-.045.037l-.008.005-.034-.016.012-.05h0l.042-.008h0c.024.015.014-.021.027-.021h.015a.077.077,0,0,0,.014-.065l-.008-.014c0-.019-.008-.038.008-.054l.017.015h.01a.118.118,0,0,0,.008.024c.007.016.016.031.033.035a.077.077,0,0,0-.01.014A.148.148,0,0,1,168.354,159.886Zm.38,2.678c0-.009,0-.018,0-.027h.005Zm.788-2.709h0Zm.236-.464v0h0c-.009,0-.018,0-.027,0a.028.028,0,0,0-.025-.012.05.05,0,0,0-.011-.016.013.013,0,0,0,0-.009s0-.007,0-.007l-.007-.029h0c.024-.052.057-.067.1-.03h0l0,.041-.014.015A.063.063,0,0,0,169.758,159.391Zm.337.24h0Zm2.348-3.921a.037.037,0,0,1,0-.008h0S172.444,155.707,172.442,155.71Zm-1.215-.954h0Zm-1.29.5h0l0,0Zm-.345.078v-.005h.013Zm-2.523.317v0Zm-1.167,1.014h0Zm.826,2.171Zm1.081,1.857h0l0,0,0,0h0Zm.692-.713a.039.039,0,0,0-.045.025.076.076,0,0,0,0,.018c-.033-.01-.064-.023-.072-.067l.033-.018c.01-.015.025-.025.034-.042s.03-.023.029-.046a.023.023,0,0,0,.015,0l.015.022c.026,0,.053.018.075-.008l.012-.018h0l.047-.006c.061.018.067-.035.084-.074l.012,0a.222.222,0,0,1,.054.078l0,0c-.016.012-.03.025-.02.049l.008.013-.016.039a.076.076,0,0,1,0,.014h0c-.022-.013-.041,0-.061.008a.042.042,0,0,0-.026.011l-.012,0a.041.041,0,0,0-.024-.021c-.026-.007-.049-.007-.064.019,0,0-.007,0-.011,0h0v0l-.005-.007c-.017,0-.035-.007-.038.014A.064.064,0,0,0,168.5,159.978Zm1.735-.266.036.025a.029.029,0,0,0,0,.008c0,.006,0,.013,0,.019a.044.044,0,0,0,0,.025l0,.013c-.017-.015-.033-.032-.058-.024,0-.022-.01-.033-.023-.044A.088.088,0,0,0,170.236,159.713Zm1.022-.467h0l0,0,0,0v0Zm-.48-.907a.027.027,0,0,0,0,.027h0l0,.017h0c-.012.029-.044,0-.058.025l-.018-.015a.128.128,0,0,0,.009-.06A.069.069,0,0,0,170.778,158.338Zm-.457-3.279-.007-.007Zm-2.662-.08v.006a.272.272,0,0,1,.023.168c-.013-.012-.034-.017-.034-.042h0a.029.029,0,0,0,0-.048c-.017-.017-.036-.019-.05,0l-.055-.007a.073.073,0,0,1,0-.036c.013-.018.038-.027.044-.05l0,0C167.614,154.987,167.638,155,167.659,154.979Zm-1.827,1.933-.006.009c.01-.033-.005-.041-.028-.042v0a.1.1,0,0,0,0-.025c.014,0,.023-.009.032-.022a.029.029,0,0,0,0-.007c.036,0,.047.034.065.059h0l-.008.022-.006,0A.073.073,0,0,0,165.832,156.912Zm.71,1.124v0h0Zm.132.856h0Zm-.319,1.3v0h0l0,0Zm.409.078Zm2.076.55h0v0Zm.68-.924,0-.009,0,0v0h0v.011Zm.423-.311a.063.063,0,0,0-.039-.036.032.032,0,0,0-.019.007c-.021.028.014.055,0,.083l-.058-.023a.013.013,0,0,0-.012-.005.018.018,0,0,0,0-.014h0c.005-.028,0-.037-.03-.026a.04.04,0,0,0,0-.025l0-.006h.01a.039.039,0,0,0,0-.047l0,0,.012-.018.014,0v-.02h0l.029,0c.034-.024.06-.016.078.023h0a.141.141,0,0,0,0,.015l.046-.007h0a.031.031,0,0,0,.029-.018H170a.036.036,0,0,0,.006.029l-.007,0c-.017,0-.025.009-.027.027a.057.057,0,0,0,.022.04.107.107,0,0,1,0,.017.109.109,0,0,0,0,.024.053.053,0,0,0,0,.012C169.979,159.613,169.957,159.621,169.943,159.585Zm.136.095a.04.04,0,0,0-.025-.016l.022-.014a.044.044,0,0,0,.013.023h0Zm1.512-1.369.005.005a.047.047,0,0,0,.019,0l-.011.008a.036.036,0,0,0,0,.021l-.007.011a.028.028,0,0,1-.027-.008l.008-.006C171.587,158.335,171.6,158.327,171.592,158.31Zm-.177.072Zm-.15.019h0v0l0,0Zm-.208-.074v0h0l0,0Zm.219-.791-.006.005Zm.369-.913a.47.47,0,0,0-.032.043c-.012.028-.039.038-.059.058v0a.5.5,0,0,0-.2.047.033.033,0,0,0-.008.009.453.453,0,0,0-.049-.112.1.1,0,0,0,.025.019h0c.021.008.046.023.062,0s-.012-.048-.014-.073h0a.293.293,0,0,0,.026-.064.117.117,0,0,1,.141-.106h0a.124.124,0,0,0,0,.015l.006.048c.053.018.09.071.147.081l.014-.007.015-.013h.008c0,.014,0,.028.017.029a.033.033,0,0,0-.009.019c-.014,0-.019.007-.025.018a.04.04,0,0,0-.011-.024.031.031,0,0,0-.012-.012A.047.047,0,0,0,171.644,156.624Zm.05.054h0v0a.03.03,0,0,0,0,.021C171.689,156.7,171.685,156.689,171.694,156.678Zm.013.031h0Zm.446-.23h-.01A.016.016,0,0,1,172.152,156.48Z" transform="translate(-165.399 -139.2)" fill="#5ee858"/>
        </g>
      </g>
      <path id="Path_116" data-name="Path 116" d="M134.349,197.242c-4.025,1.012-9.135,2-13.855.235-1.811-.3-1.838,4.887.893,5.153C126.958,202.319,132.662,199.067,134.349,197.242Z" transform="translate(-114.633 -166.392)" fill="#5ee858"/>
      <path id="Path_117" data-name="Path 117" d="M165.517,205.9c.621.354,1.869-1.355.613-1.956-21-6.634-22.181,2.22-33.955,4.558C144.783,209.769,146.378,199.224,165.517,205.9Z" transform="translate(-123.841 -169.438)" fill="#5ee858"/>
      <path id="Path_118" data-name="Path 118" d="M195.481,190.051c1.186.592,1.846-2.166.314-3.068,0,0-3.414-1.617-11.082-1.617-4.665,0-8.544,3.267-12.248,4.3C177.3,189.107,183.886,185.645,195.481,190.051Z" transform="translate(-152.482 -157.949)" fill="#5ee858"/>
      <path id="Path_119" data-name="Path 119" d="M162.55,220.97c-10.211-1.861-15.43,4.72-24.5,4.256-1.585.527.287,1.382,1.525,1.327C146.439,226.824,153.383,220.38,162.55,220.97Z" transform="translate(-127.586 -183.023)" fill="#5ee858"/>
      <path id="Path_120" data-name="Path 120" d="M167.515,244.851c-1.163,1.693,18.284-1.019,16.515-2.628C175.314,239.86,172.346,244.238,167.515,244.851Z" transform="translate(-148.928 -197.875)" fill="#5ee858"/>
      <path id="Path_121" data-name="Path 121" d="M198.824,228.023c-6.969-1.882-16.766,2.972-16.766,2.972,7.04-2.546,12.053-1.37,14.472-.406C198.344,231.708,200.567,228.987,198.824,228.023Z" transform="translate(-159.302 -187.966)" fill="#5ee858"/>
      <path id="Path_122" data-name="Path 122" d="M120.467,175.325a10.19,10.19,0,0,1,.449-3.125c1.021-3.908,8.592,5.551,24.658,3.192C139.629,178.759,120.467,177.426,120.467,175.325Z" transform="translate(-115.518 -147.909)" fill="#5ee858"/>
      <path id="Path_123" data-name="Path 123" d="M126.488,127.671a.785.785,0,0,1,.439.133c0-.015,0-.029,0-.045a1.456,1.456,0,0,1,2.236-1.236,2.326,2.326,0,0,1,4.432.551.889.889,0,0,1,1.139.256c.011,0,.021,0,.031,0a.9.9,0,0,1,.627.254,1,1,0,0,1,1.879-.1.619.619,0,1,1-.079.934,1,1,0,0,1-1.581.138.9.9,0,0,1-1.566.226c-.011,0-.021,0-.031,0a.9.9,0,0,1-.644-.269,2.327,2.327,0,0,1-2.07,1.266,2.361,2.361,0,0,1-.355-.03,1.51,1.51,0,0,1-2.9-.573,1.453,1.453,0,0,1-.786-.505.79.79,0,1,1-.761-1Z" transform="translate(-119.235 -115.123)" fill="#5ee858"/>
    </g>
  </g>
</svg>
