<svg xmlns="http://www.w3.org/2000/svg" width="45.603" height="60" viewBox="0 0 45.603 60">
  <g id="noun_Rainwater_Tank_90758" data-name="noun_Rainwater Tank_90758" transform="translate(-11.551 -0.41)">
    <path id="Path_15970" data-name="Path 15970" d="M11.551,69.767V65.394H28.624l-.042-20.854L11.551,30.352V24.145L36.867,45.228v6.149l-3.7-3.071V69.767Z" transform="translate(0 -9.357)" fill="#fff"/>
    <path id="Path_15971" data-name="Path 15971" d="M22.523,20.178,21.21,18.865l2.915-2.915,1.313,1.313-2.915,2.915Zm4.811-4.812-1.313-1.313,2.915-2.915,1.313,1.313-2.915,2.915Zm4.811-4.809L30.831,9.244l2.915-2.915,1.313,1.313-2.915,2.915Z" transform="translate(-3.808 -2.333)" fill="#fff"/>
    <path id="Path_15972" data-name="Path 15972" d="M31.563,19.068,30.25,17.755l2.915-2.915,1.313,1.313-2.915,2.915Zm4.81-4.811L35.06,12.944l2.916-2.915,1.313,1.313-2.916,2.915ZM41.183,9.45,39.87,8.137l2.916-2.915L44.1,6.534,41.183,9.45Zm4.809-4.812L44.679,3.325,47.594.41l1.313,1.313L45.992,4.638Z" transform="translate(-7.371)" fill="#fff"/>
    <path id="Path_15973" data-name="Path 15973" d="M35.287,26.455l-1.327-1.3,2.882-2.947,1.327,1.3-2.882,2.948Zm4.756-4.864-1.327-1.3,2.882-2.95,1.327,1.3-2.882,2.95ZM44.8,16.728l-1.325-1.3,2.879-2.95,1.327,1.3-2.88,2.95Zm4.754-4.866-1.326-1.3,2.611-2.672,1.327,1.3-2.612,2.672Z" transform="translate(-8.834 -2.95)" fill="#fff"/>
    <path id="Path_15974" data-name="Path 15974" d="M44.643,28.12,43.33,26.807l2.915-2.915L47.558,25.2,44.643,28.12ZM49.45,23.31,48.141,22l2.913-2.915L52.366,20.4,49.45,23.31Zm4.811-4.81-1.313-1.313,2.915-2.915,1.312,1.313L54.261,18.5Zm4.81-4.812-1.312-1.313,2.9-2.9,1.313,1.313-2.9,2.9Z" transform="translate(-12.528 -3.575)" fill="#fff"/>
    <path id="Path_15975" data-name="Path 15975" d="M47.038,40.274l-1.313-1.313,2.916-2.915,1.31,1.313-2.913,2.915Zm4.807-4.809-1.313-1.313,2.916-2.915,1.312,1.313-2.916,2.915Zm4.812-4.812L55.344,29.34l2.915-2.915,1.312,1.313-2.915,2.915Z" transform="translate(-13.472 -10.255)" fill="#fff"/>
    <path id="Path_15976" data-name="Path 15976" d="M62.887,66.265a1.342,1.342,0,0,1-.1-2.679H62.8a1.369,1.369,0,0,1,1.422,1.236,1.345,1.345,0,0,1-1.236,1.424c-.02.02-.082.02-.1.02Zm-.7-4.061a1.347,1.347,0,0,1-1.278-.927,1.343,1.343,0,1,1,2.556-.826,1.349,1.349,0,0,1-.865,1.691,1.418,1.418,0,0,1-.413.062ZM59.96,58.782a1.328,1.328,0,0,1-.95-.393,1.308,1.308,0,0,1-.391-.947,1.263,1.263,0,0,1,.412-.948,1.379,1.379,0,0,1,1.9.022l.041.04a1.324,1.324,0,0,1,.33.906,1.336,1.336,0,0,1-1.339,1.32ZM56.95,55.958a1.334,1.334,0,0,1-.886-.351,1.279,1.279,0,0,1-.433-.927,1.307,1.307,0,0,1,.33-.971,1.4,1.4,0,0,1,1.9-.1,1.347,1.347,0,0,1,.433.926,1.366,1.366,0,0,1-.33.97,1.331,1.331,0,0,1-1.01.453Zm-3.133-2.7a1.3,1.3,0,0,1-.846-.31,1.355,1.355,0,0,1-.185-1.877,1.358,1.358,0,0,1,1.876-.185,1.34,1.34,0,0,1-.844,2.372Z" transform="translate(-16.138 -19.783)" fill="#fff"/>
    <path id="Path_15977" data-name="Path 15977" d="M71.9,67.1v7.912H59.387V67.1H56.436V86.7H74.848V67.1Z" transform="translate(-17.694 -26.291)" fill="#fff"/>
    <rect id="Rectangle_340" data-name="Rectangle 340" width="8.022" height="7.896" transform="translate(11.551 37.727)" fill="#fff"/>
  </g>
</svg>
