<svg xmlns="http://www.w3.org/2000/svg" width="60" height="59.905" viewBox="0 0 60 59.905">
  <g id="noun_Library_1957139" transform="translate(-5.305 -5.227)">
    <path id="Path_15947" data-name="Path 15947" d="M60.717,38.582v-23.1H15.625a1.652,1.652,0,1,0-1.519,2.562V60.626H60.717ZM15.543,16.538a1.3,1.3,0,0,1-.385.806v-.806ZM14.106,17.7a1.3,1.3,0,1,1,1.067-2.211H14.106ZM28.951,47.871H19.961V46.005h8.989Zm.022,3.968H29.98V53.7H20.992V51.839Zm-1.051-2.916v1.865H18.932V48.923h8.989Zm-1.03,5.833v1.865H17.9V54.756h8.989Zm1.03,4.782H18.932V57.672h8.989Zm11.6.037h-4.9l4.9-15.162V59.575Zm-5.633-1.166-1.775-.573,4.9-15.164,1.776.574Zm8.55,1.129H40.577V43.6h1.867Zm2.918-14.671V59.539H43.5V43.6h1.867Zm2.916,14.671H46.412V45.918h1.866Zm2.917-12.1v12.1H49.33V43.6H51.2Zm2.918,12.1H52.247V48.492h1.867Zm2.917,0H55.165V43.6H57.03Zm2.635.037H58.082V42.55H54.113v4.891H52.247V42.55H48.278v2.317H46.412V42.55H40.064l-3.718-1.2L30.8,58.511l3.289,1.064H28.972V56.621h-1.03V54.756h3.088V50.788H28.972V48.923H30V44.954H18.91v2.917H17.88v3.968H19.94V53.7H16.851v3.968h1.03v1.9H15.157V38.582H59.665ZM18.932,37.494V21.558H20.8V37.494H18.932Zm2.918,0V26.447h1.867V37.494Zm2.918,0V21.557h1.866V37.494Zm2.917,0V23.874H29.55v13.62H27.685Zm2.916,0V21.558h1.867V37.494Zm2.918,0V21.558h1.867V37.494Zm11.363-1.909h.778v1.946H41.881l3.287-1.064Zm-2.813.78L37.165,21.2l1.776-.575,4.9,15.164Zm-.729,1.166h-4.9V22.369Zm15.39-11.748H47.741V23.917H56.73v1.866Zm.022,3.968H57.76v1.865H48.771V29.751ZM55.7,26.834V28.7H46.712V26.834H55.7Zm-1.03,5.834v1.866H45.682V32.668h8.989Zm1.03,2.917V37.45H46.712V35.585Zm3.964,1.946H56.752v-3h-1.03V32.668h3.089V28.7H56.752V26.834h1.03V22.866H46.69v2.917H45.66v3.968H47.72v1.865H44.631v3.191L39.617,19.3l-3.718,1.2H29.55v2.317H27.685V20.506H23.716V25.4H21.85v-4.89H17.88V37.531H15.157V17.79a1.65,1.65,0,0,0,.736-1.253H59.665Z" transform="translate(-2.181 -2.849)" fill="#fff"/>
    <path id="Path_15948" data-name="Path 15948" d="M29.13,87.781a1.571,1.571,0,1,0-1.571,1.571A1.573,1.573,0,0,0,29.13,87.781Zm-2.793,0A1.221,1.221,0,1,1,27.558,89,1.222,1.222,0,0,1,26.337,87.781Z" transform="translate(-6.186 -24.221)" fill="#fff"/>
    <path id="Path_15949" data-name="Path 15949" d="M7.553,27.772l-.695,1.407L5.3,29.4l1.124,1.1-.266,1.548,1.389-.73,1.389.73L8.677,30.5,9.8,29.4l-1.554-.225ZM8.3,30.378l.176,1.029-.924-.485-.924.485L6.8,30.378l-.746-.728,1.032-.15.462-.936.462.936,1.032.15Z" transform="translate(0 -6.743)" fill="#fff"/>
    <path id="Path_15950" data-name="Path 15950" d="M28.109,7.75l-.479-.971-.479.971-1.072.156.776.756L26.671,9.73l.959-.5.959.5-.183-1.067.776-.756Zm.014,1.339-.493-.259-.493.259.094-.549-.4-.39.552-.08.247-.5.247.5.552.08-.4.39Z" transform="translate(-6.213 -0.464)" fill="#fff"/>
    <path id="Path_15951" data-name="Path 15951" d="M84.873,67.545l.776.756-.183,1.068.959-.5.959.5L87.2,68.3l.776-.756L86.9,67.389l-.479-.971-.479.971Zm1.552-.335.247.5.552.081-.4.39.094.55-.493-.259-.493.259.094-.55-.4-.39.552-.081Z" transform="translate(-23.798 -18.302)" fill="#fff"/>
    <path id="Path_15952" data-name="Path 15952" d="M85.944,14.095l-.632,1.946H83.266l1.655,1.2-.632,1.945,1.656-1.2,1.656,1.2-.632-1.945,1.655-1.2H86.576Zm.611,3.015.378,1.162-.989-.718-.989.718.378-1.162-.989-.718h1.223l.378-1.162.378,1.162h1.223Z" transform="translate(-23.317 -2.652)" fill="#fff"/>
    <path id="Path_15953" data-name="Path 15953" d="M78.46,5.227A1.571,1.571,0,1,0,80.032,6.8,1.573,1.573,0,0,0,78.46,5.227Zm0,2.792A1.221,1.221,0,1,1,79.681,6.8,1.222,1.222,0,0,1,78.46,8.019Z" transform="translate(-21.41)" fill="#fff"/>
    <path id="Path_15954" data-name="Path 15954" d="M86.837,48.412a1.252,1.252,0,1,0,1.252-1.252A1.253,1.253,0,0,0,86.837,48.412Zm1.252-.9a.9.9,0,1,1-.9.9A.9.9,0,0,1,88.089,47.51Z" transform="translate(-24.385 -12.542)" fill="#fff"/>
    <path id="Path_15955" data-name="Path 15955" d="M22.676,88.485l.069-.343q-.342-.068-.676-.153l-.086.339C22.212,88.386,22.443,88.438,22.676,88.485Z" transform="translate(-4.989 -24.753)" fill="#fff"/>
    <path id="Path_15956" data-name="Path 15956" d="M13.113,83.035c-.335-.306-.658-.629-.96-.964l-.26.236c.309.343.641.675.984.988Z" transform="translate(-1.97 -22.983)" fill="#fff"/>
    <path id="Path_15957" data-name="Path 15957" d="M6.646,68.51q0,.344.017.686l.35-.016C7,68.958,7,68.734,7,68.511s.006-.46.017-.69l-.35-.018C6.652,68.039,6.646,68.275,6.646,68.51Z" transform="translate(-0.401 -18.716)" fill="#fff"/>
    <path id="Path_15958" data-name="Path 15958" d="M18.24,87c.42.2.853.378,1.288.535l.118-.33c-.425-.152-.847-.327-1.257-.521Z" transform="translate(-3.869 -24.362)" fill="#fff"/>
    <path id="Path_15959" data-name="Path 15959" d="M9.83,78.955l-.3.181c.239.4.5.789.774,1.159l.282-.208C10.318,79.726,10.064,79.345,9.83,78.955Z" transform="translate(-1.264 -22.051)" fill="#fff"/>
    <path id="Path_15960" data-name="Path 15960" d="M8.681,76.708c-.194-.409-.369-.832-.521-1.255l-.33.118c.156.435.335.868.534,1.288Z" transform="translate(-0.755 -21.004)" fill="#fff"/>
    <path id="Path_15961" data-name="Path 15961" d="M6.865,71.747c.067.456.159.917.272,1.367l.34-.085c-.111-.44-.2-.889-.266-1.333Z" transform="translate(-0.467 -19.88)" fill="#fff"/>
    <path id="Path_15962" data-name="Path 15962" d="M15.991,85.74l.181-.3a13.566,13.566,0,0,1-1.13-.758l-.21.28A13.578,13.578,0,0,0,15.991,85.74Z" transform="translate(-2.849 -23.764)" fill="#fff"/>
    <path id="Path_15963" data-name="Path 15963" d="M6.87,65.51l.346.052q.05-.341.119-.682l-.343-.069Q6.922,65.161,6.87,65.51Z" transform="translate(-0.468 -17.821)" fill="#fff"/>
    <path id="Path_15964" data-name="Path 15964" d="M89.571,75.968l-.35-.007c0,.231-.018.461-.039.688l.349.032Q89.564,76.328,89.571,75.968Z" transform="translate(-25.087 -21.156)" fill="#fff"/>
    <path id="Path_15965" data-name="Path 15965" d="M88.121,80.481l.322.139a9.787,9.787,0,0,0,.505-1.475l-.339-.088A9.388,9.388,0,0,1,88.121,80.481Z" transform="translate(-24.769 -22.082)" fill="#fff"/>
    <path id="Path_15966" data-name="Path 15966" d="M83.966,86.447l-.222-.271a9.624,9.624,0,0,1-1.234.859l.177.3A9.994,9.994,0,0,0,83.966,86.447Z" transform="translate(-23.091 -24.211)" fill="#fff"/>
    <path id="Path_15967" data-name="Path 15967" d="M78.6,89.105a9.673,9.673,0,0,0,1.494-.446l-.127-.327a9.4,9.4,0,0,1-1.44.43Z" transform="translate(-21.899 -24.856)" fill="#fff"/>
    <path id="Path_15968" data-name="Path 15968" d="M86.08,84.411a9.968,9.968,0,0,0,.941-1.242l-.3-.189a9.462,9.462,0,0,1-.908,1.2Z" transform="translate(-24.081 -23.255)" fill="#fff"/>
    <path id="Path_15969" data-name="Path 15969" d="M75.405,89.235l-.007.35.2,0c.173,0,.345,0,.516-.013l-.018-.35C75.866,89.236,75.638,89.242,75.405,89.235Z" transform="translate(-20.964 -25.123)" fill="#fff"/>
    <rect id="Rectangle_336" data-name="Rectangle 336" width="0.35" height="1.402" transform="translate(63.528 21.425)" fill="#fff"/>
    <rect id="Rectangle_337" data-name="Rectangle 337" width="0.35" height="1.402" transform="translate(63.528 24.229)" fill="#fff"/>
    <rect id="Rectangle_338" data-name="Rectangle 338" width="0.35" height="1.402" transform="translate(63.528 29.836)" fill="#fff"/>
    <rect id="Rectangle_339" data-name="Rectangle 339" width="0.35" height="1.402" transform="translate(63.528 27.032)" fill="#fff"/>
  </g>
</svg>
