<svg xmlns="http://www.w3.org/2000/svg" width="60.851" height="60" viewBox="0 0 60.851 60">
  <g id="noun_Livestock_1176661" transform="translate(-1.544 -2)">
    <path id="Path_16019" data-name="Path 16019" d="M57.414,43l-3.707-3.707A1,1,0,0,0,53,39H35a1,1,0,0,0-.9.553l-1,2A1,1,0,0,0,33,42v6h2V42.236L35.618,41H37v4a1.006,1.006,0,0,0,.168.555L38.8,48l-1.63,2.445A1.006,1.006,0,0,0,37,51v3h2V51.3l1.155-1.733.941.941.933,3.732,1.94-.485-.806-3.222L44.236,50H48v4h2V50.281l2,.5V54h2V50.414L54.414,50h.968l.724,1.447A1,1,0,0,0,57,52h2a1,1,0,0,0,1-1V45h2V43H57.414ZM58,50h-.382l-.724-1.447A1,1,0,0,0,56,48H54a1,1,0,0,0-.707.293l-.6.6-3.451-.863-.005.018A.994.994,0,0,0,49,48H44a1,1,0,0,0-.447.1l-1.355.678-1.42-1.42L39,44.7V41H52.586l3.707,3.707A1,1,0,0,0,57,45h1Z" fill="#038767"/>
    <path id="Path_16020" data-name="Path 16020" d="M27.113,43.758l.9,5.406,1.973-.329-1-6a1,1,0,0,0-.67-.784l-2.607-.869-.815-1.63A1,1,0,0,0,24,39H12a1,1,0,0,0-.707.293L7.586,43H2v2H4v4a1,1,0,0,0,1,1H7a1.006,1.006,0,0,0,.555-.168l2.517-1.678.928.464V52h2V49h2v3h2V49h2.719l-.689,2.757,1.94.485.867-3.468,1.656-.552L24,49.236V52h2V49a1,1,0,0,0-.1-.447l-.847-1.693.711-3.553ZM16,47H12.236l-1.789-.9a1,1,0,0,0-1,.062L6.7,48H6V45H8a1,1,0,0,0,.707-.293L12.414,41H23.382l.57,1.14-.819,4.1-2.3.765Z" fill="#038767"/>
    <path id="Path_16021" data-name="Path 16021" d="M58,56H56v2H52V56H50v2H46V56H44v2H40V56H38v2H34V56H32v2H28V56H26v2H22V56H20v2H16V56H14v2H10V56H8v2H4V56H2v6H4V60H8v2h2V60h4v2h2V60h4v2h2V60h4v2h2V60h4v2h2V60h4v2h2V60h4v2h2V60h4v2h2V60h4v2h2V60h4V58H58Z" fill="#038767"/>
    <path id="Path_16022" data-name="Path 16022" d="M36,11H28a1,1,0,0,0-1,1v4a1,1,0,0,0,1,1h8a1,1,0,0,0,1-1V12A1,1,0,0,0,36,11Zm-7,2h2v2H29Zm6,2H33V13h2Z" fill="#038767"/>
    <path id="Path_16023" data-name="Path 16023" d="M52.138,24.352A12.3,12.3,0,0,0,56.9,25H57a21.126,21.126,0,0,0,5.392-1.081l-.789-1.838A18.592,18.592,0,0,1,58,22.9V17.918c1.81-.3,4-1.551,4-5.918,0-4.176-1.9-10-5-10s-5,5.824-5,10c0,4.367,2.19,5.622,4,5.918v5.068a8.947,8.947,0,0,1-3.2-.521,6.822,6.822,0,0,0-1.8-.421V19.178l1.581.73.838-1.816L41,12.36V9.913l1.463.931,1.074-1.688-11-7a1,1,0,0,0-1.074,0l-11,7,1.074,1.688L23,9.913V12.36L10.581,18.092l.838,1.816L13,19.178V21.17a41.2,41.2,0,0,0-5,1.271V17.918c1.81-.3,4-1.551,4-5.918C12,7.824,10.1,2,7,2S2,7.824,2,12c0,4.367,2.19,5.622,4,5.918v5.217A43.622,43.622,0,0,0,1.544,25.11l.911,1.78A40.43,40.43,0,0,1,13,23.2V31H10V29H8v2H4V29H2v6H4V33H8v2h2V33h3v1a1,1,0,0,0,1,1H50a1,1,0,0,0,1-1V33h3v2h2V33h4v2h2V29H60v2H56V29H54v2H51V24.055A5.1,5.1,0,0,1,52.138,24.352ZM54,12c0-4.047,1.9-8,3-8s3,3.953,3,8c0,2.708-.936,3.611-2,3.887V14H56v1.887C54.936,15.611,54,14.708,54,12ZM4,12C4,7.953,5.9,4,7,4s3,3.953,3,8c0,2.708-.936,3.611-2,3.887V14H6v1.887C4.936,15.611,4,14.708,4,12ZM24.586,28,21,31.586V24.414ZM26,29.414,29.586,33H22.414ZM36.586,28,33,31.586V24.414ZM31,31.586,27.414,28,31,24.414Zm7-2.172L41.586,33H34.414ZM39.414,28,43,24.414v7.172ZM38,26.586,34.414,23h7.172Zm-12,0L22.414,23h7.172ZM45,33V22a.975.975,0,0,0-.071-.349,1.033,1.033,0,0,0-.045-.095.948.948,0,0,0-.14-.208.887.887,0,0,0-.336-.256l-.023-.014,0,0a1.015,1.015,0,0,0-.346-.069c-.012,0-.023-.007-.036-.007H20a1,1,0,0,0-1,1V33H15V18.255l8-3.692V17h2V8.64l7-4.455L39,8.64V17h2V14.563l8,3.692V33Z" fill="#038767"/>
  </g>
</svg>
