<svg xmlns="http://www.w3.org/2000/svg" width="74.373" height="61" viewBox="0 0 74.373 61">
  <path id="Path_15989" data-name="Path 15989" d="M67.766,42.231l6.784-4.975a1.131,1.131,0,0,0-1.357-1.809l-5.88,4.3L52.953,20.069l5.88-4.523a1.131,1.131,0,1,0-1.357-1.809l-6.784,5.2a1.2,1.2,0,0,0-.226,1.583l2.261,3.053C41.759,29,44.02,37.03,27.285,36.917A3.491,3.491,0,0,0,23.893,39.4a5.171,5.171,0,0,0,1.583,5.654c1.7,1.47,5.654,2.94,13.908-1.018-1.47,2.148-4.41,4.975-9.724,7.124l-3.731-3.731a3.112,3.112,0,0,0-2.94-1.244c-4.636-.113-3.166-4.749-9.611-1.47a12.782,12.782,0,0,1,1.244-8.707,10.251,10.251,0,0,0,11.533-7.576,1.163,1.163,0,0,0-.792-1.357,10.222,10.222,0,0,0-9.611,2.488c0-.678-.113-1.47-.113-2.148a15.306,15.306,0,0,0,2.488-10.855,15.1,15.1,0,0,0-5.993-9.837,1.076,1.076,0,0,0-.792-.226,1.145,1.145,0,0,0-.792.452,15.031,15.031,0,0,0,2.94,20.806c.226,2.375.226,5.541-1.131,8.141-.113.226-.113.452-.226.678A10.2,10.2,0,0,0,1.618,31.6a1.145,1.145,0,0,0-.792.452,1.076,1.076,0,0,0-.226.792,10.227,10.227,0,0,0,10.177,8.707H11a27.073,27.073,0,0,0,.452,4.749c-.226.226-.452.339-.565.452-.9.565-2.827-.9-4.862-.452-3.618.792-3.958,6.219-3.392,9.837-2.714,2.261-.792,5.314,2.488,7.35,9.95,6.219,30.417,6.332,46.134-7.8a24.132,24.132,0,0,0,5.314-7.463,50.5,50.5,0,0,1,6.445-10.742l3.166,4.3A1.1,1.1,0,0,0,67.766,42.231Zm-57.1-2.94a8.154,8.154,0,0,1-7.689-5.541h0a7.944,7.944,0,0,1,7.689,5.541ZM23.554,29a8.062,8.062,0,0,1-8.141,4.862A7.971,7.971,0,0,1,23.554,29ZM11.455,9.214A12.7,12.7,0,0,1,15.639,16.9a12.661,12.661,0,0,1-1.7,8.594A13.072,13.072,0,0,1,11.455,9.214ZM6.593,48.563c2.148-.452,3.392,2.261,6.784-1.018A6.6,6.6,0,0,1,16.2,46.189c1.244-.452,1.244-.339,2.148.565a7.939,7.939,0,0,0,5.428,1.809c.226.113.226.113,3.505,3.505a53.382,53.382,0,0,1-15.83,2.148,19.616,19.616,0,0,0-6.671.9C4.558,53.2,4.671,48.9,6.593,48.563Zm47.943-1.131A20.931,20.931,0,0,1,49.787,54.1C32.6,69.595,13.151,65.864,6.367,61.68c-5.654-3.505-1.357-5.2,5.088-5.2C39.271,56.365,43,42.231,43.116,41.553a1.075,1.075,0,0,0-.452-1.131,1.238,1.238,0,0,0-1.244-.113c-9.837,5.767-13.569,3.731-14.473,2.94a2.8,2.8,0,0,1-.9-3.166,1.353,1.353,0,0,1,1.244-1.018h0c17.866.113,16.169-8.707,26.685-13.795l7.689,10.4A51.583,51.583,0,0,0,54.536,47.433Z" transform="translate(-0.6 -6.5)" fill="#038767"/>
</svg>
