<svg xmlns="http://www.w3.org/2000/svg" width="450" height="112.277" viewBox="0 0 450 112.277">
  <path id="photo-1508044594351-60a97e8ce53a" d="M450,108.338a141.888,141.888,0,0,0-72.6,3.388A134.3,134.3,0,0,0,346.8,125.6c-8.76,5.612-16.2,13.341-26.64,16.624-9.84,3.071-19.56.953-28.68-2.859-16.92-7.094-33.48-15.776-52.32-8.788-17.04,6.247-28.08,21.282-39.84,33.141-10.32,10.376-23.16,20.012-39.48,20.753-30.6,1.482-47.4-25.094-66.6-41.612-21.6-18.529-51.6-33.882-82.56-27C6.84,116.7,3,117.974,0,120.3V72.25H450v36.088Z" transform="translate(0 -72.25)" fill="#fff"/>
</svg>
