<svg xmlns="http://www.w3.org/2000/svg" xmlns:xlink="http://www.w3.org/1999/xlink" width="144.147" height="136.723" viewBox="0 0 144.147 136.723">
  <defs>
    <filter id="Path_1276" x="0" y="0" width="144.147" height="136.723" filterUnits="userSpaceOnUse">
      <feOffset dy="8" input="SourceAlpha"/>
      <feGaussianBlur stdDeviation="10" result="blur"/>
      <feFlood flood-color="#76c0b2"/>
      <feComposite operator="in" in2="blur"/>
      <feComposite in="SourceGraphic"/>
    </filter>
  </defs>
  <g id="stars" transform="translate(22 22)">
    <g transform="matrix(1, 0, 0, 1, -22, -22)" filter="url(#Path_1276)">
      <path id="Path_1276-2" data-name="Path 1276" d="M88.647,45.765A42.074,42.074,0,1,0,22.714,80.413H70.435A42.02,42.02,0,0,0,88.647,45.765Z" transform="translate(25.5 18.31)" fill="rgba(3,135,103,0.5)"/>
    </g>
    <path id="Path_1594" data-name="Path 1594" d="M0,0H54.448" transform="translate(23.214 77.037)" fill="none" stroke="#038767" stroke-linecap="round" stroke-width="3"/>
    <line id="Line_120" data-name="Line 120" x2="35.571" transform="translate(32.652 81.988)" fill="none" stroke="#038767" stroke-linecap="round" stroke-linejoin="round" stroke-width="3"/>
    <line id="Line_121" data-name="Line 121" x2="7.149" transform="translate(43.769 86.938)" fill="none" stroke="#038767" stroke-linecap="round" stroke-linejoin="round" stroke-width="3"/>
    <line id="Line_122" data-name="Line 122" x2="1.911" transform="translate(55.282 86.938)" fill="none" stroke="#038767" stroke-linecap="round" stroke-linejoin="round" stroke-width="3"/>
    <path id="Path_1281" data-name="Path 1281" d="M46.2,19.072" transform="translate(25.963 4.775)" fill="none" stroke="#2d346a" stroke-linecap="round" stroke-linejoin="round" stroke-width="6"/>
    <path id="Path_1282" data-name="Path 1282" d="M62.448,16.212a1.746,1.746,0,0,0-1.836-1.839h-.018a.612.612,0,0,1,.015-1.224,1.746,1.746,0,0,0,1.839-1.836.612.612,0,0,1,1.224,0,1.746,1.746,0,0,0,1.839,1.836.612.612,0,0,1,0,1.224,1.745,1.745,0,0,0-1.836,1.836v0s0,.009,0,.009v.006a.612.612,0,0,1-1.224-.015Z" transform="translate(33.277 0.339)" fill="#038767" opacity="0.4"/>
    <path id="Path_1283" data-name="Path 1283" d="M59.724,50.805a.873.873,0,0,0-.918-.92H58.8a.306.306,0,0,1,.006-.612.873.873,0,0,0,.92-.918.306.306,0,0,1,.612,0,.873.873,0,0,0,.92.918.306.306,0,0,1,0,.612.872.872,0,0,0-.918.918v0a.015.015,0,0,1,0,0h0v0a.306.306,0,0,1-.612-.008Z" transform="translate(33.815 23.865)" fill="#038767" opacity="0.7"/>
    <path id="Path_1284" data-name="Path 1284" d="M6.724,15.178a.873.873,0,0,0-.918-.92H5.8a.306.306,0,0,1,.006-.612.873.873,0,0,0,.919-.918.306.306,0,1,1,.612,0,.873.873,0,0,0,.919.918.306.306,0,0,1,0,.612.872.872,0,0,0-.918.918v0a.015.015,0,0,1,0,0h0v0a.306.306,0,0,1-.612-.008Z" transform="translate(1.195 -3.014)" fill="#038767"/>
    <path id="Path_1285" data-name="Path 1285" d="M2.992,48.76A2.133,2.133,0,0,0,.748,46.512H.726a.748.748,0,0,1,.019-1.5,2.133,2.133,0,0,0,2.248-2.244.748.748,0,1,1,1.5,0,2.133,2.133,0,0,0,2.248,2.244.748.748,0,0,1,0,1.5,2.133,2.133,0,0,0-2.244,2.244v0c0,.006,0,.011,0,.011v.007a.748.748,0,0,1-1.5-.019Z" transform="translate(0 16.259)" fill="#038767"/>
    <path id="Path_1286" data-name="Path 1286" d="M55.548,38.268a1.746,1.746,0,0,0-1.836-1.839h-.018a.612.612,0,0,1,.015-1.224,1.746,1.746,0,0,0,1.839-1.836.612.612,0,1,1,1.224,0A1.746,1.746,0,0,0,58.611,35.2a.612.612,0,0,1,0,1.224,1.745,1.745,0,0,0-1.836,1.836v0s0,.009,0,.009v.006a.612.612,0,0,1-1.224-.015Z" transform="translate(29.62 12.028)" fill="#038767"/>
    <g id="Group_2276" data-name="Group 2276" transform="translate(-399.271 -409.461)">
      <g id="Group_2269" data-name="Group 2269" transform="translate(424.271 423.5)">
        <path id="Path_15942" data-name="Path 15942" d="M58.39,53.214a4.353,4.353,0,0,0-1.2-2.558l2.74,1.8a1.113,1.113,0,0,0,1.719-1.047,6.32,6.32,0,0,0-2.762-4.589l-.335-.226.242-.543L51.023,42.33l-2.759-4.682a7.4,7.4,0,0,0-5.074-4.13l-3.8-.861V31.565a6.21,6.21,0,0,0,3.481-4.3,2.179,2.179,0,0,0,1.216-3.646V18.967a5.439,5.439,0,0,0-5.391-5.432,2.042,2.042,0,0,0-1.522-.683h-.02a7.5,7.5,0,0,0-5.321,2.226,7.69,7.69,0,0,0-2.287,5.476v3.093a2.179,2.179,0,0,0,1.241,3.62,6.209,6.209,0,0,0,3.529,4.321v1.069l-3.8.861a7.4,7.4,0,0,0-5.074,4.13L22.677,42.33l-7.768,3.727.242.543-.335.225a6.32,6.32,0,0,0-2.762,4.589,1.111,1.111,0,0,0,1.719,1.047l1.19-.784a4.411,4.411,0,0,0-.187.867,4.362,4.362,0,0,0,.2,1.862H11.735v8.445h50.23V54.406h-3.6A4.376,4.376,0,0,0,58.39,53.214Zm-3.976,3.825L38.1,58.168l-.367-3.5,15.964-4.3a3.359,3.359,0,0,1,.72,6.679ZM35.385,58.145l-3.5.045-3.55.395a2.941,2.941,0,0,1,2.828-2.658l3.924-.439ZM31.05,54.9a4.326,4.326,0,0,0-3.32,2.084l-8.978-.621a3.359,3.359,0,0,1,.38-6.7c.114,0,.229.006.341.017l16.38,4.418-.884.238.013.12Zm-2.663-3.876-7.669-2.068,5.288-2.109,2.38-3.154Zm8.055,7.254-.355-3.175.637-.172.346,3.3Zm24.181-6.76a.085.085,0,0,1-.131.08l-3.2-2.108.863-1.92.155.1A5.294,5.294,0,0,1,60.624,51.522ZM43.009,26.152c0-.072.005-.144.005-.217v-.072a1.772,1.772,0,0,0,.591-.418A1.156,1.156,0,0,1,43.009,26.152Zm.048-7.185v5.271a.731.731,0,0,1-.042.245v-.019a3.32,3.32,0,0,0-.578-1.876,2.3,2.3,0,0,1-.4-1.3v-.8a2.321,2.321,0,0,0-2.315-2.319l-.71-.005a4.609,4.609,0,0,0,.2-1.354V14.886a2.011,2.011,0,0,0-.023-.291A4.411,4.411,0,0,1,43.056,18.967ZM30.572,20.553A6.668,6.668,0,0,1,32.557,15.8a6.478,6.478,0,0,1,4.6-1.926h.028a1.009,1.009,0,0,1,1.005,1.007v1.926a3.6,3.6,0,0,1-3.595,3.6,3.957,3.957,0,0,0-3.952,3.952v.055a.912.912,0,0,1-.066-.343V20.553Zm-.549,4.8a1.919,1.919,0,0,0,.616.467v.118c0,.073,0,.145.006.217A1.156,1.156,0,0,1,30.023,25.349Zm1.644.586V24.36a2.927,2.927,0,0,1,2.924-2.924,4.625,4.625,0,0,0,3.963-2.244l1.164.008a1.292,1.292,0,0,1,1.291,1.291v.8a3.321,3.321,0,0,0,.578,1.876,2.3,2.3,0,0,1,.4,1.3v1.471a5.16,5.16,0,1,1-10.319,0Zm5.16,6.188a6.179,6.179,0,0,0,1.533-.192v.81a3.861,3.861,0,0,1-3.018,0v-.8A6.173,6.173,0,0,0,36.826,32.122Zm-13.422,11,2.932-4.976.026-.05a6.369,6.369,0,0,1,4.376-3.576l4.029-.912a4.869,4.869,0,0,0,4.168,0l4.029.913A6.37,6.37,0,0,1,47.339,38.1L50.3,43.121l7.149,3.429L56.12,49.52l.028.012-.118.263a4.357,4.357,0,0,0-2.487-.453l-.039,0-8.191,2.209V43.7l2.38,3.155L53,48.97l.381-.955L48.341,46,45.313,41.99V40.517H44.285V51.833l-6.459,1.742-8.41-2.268V40.517H28.388V41.99L25.36,46l-6.683,2.666a4.363,4.363,0,0,0-1.32.35l-1.1-2.468ZM13.208,51.6a.085.085,0,0,1-.131-.08,5.293,5.293,0,0,1,2.314-3.844l.155-.1.863,1.92Zm47.729,3.832v6.389H12.763V55.434h2.7a4.38,4.38,0,0,0,3.181,1.958l8.714.6a3.1,3.1,0,0,0-.035.918.838.838,0,0,0,.853.718.963.963,0,0,0,.1-.006l3.641-.407,3.582-.046.023.205L54.5,58.064l.022,0a4.389,4.389,0,0,0,3.541-2.628h2.877Z" transform="translate(-11.735 -12.851)" fill="#fff"/>
        <path id="Path_15943" data-name="Path 15943" d="M219.4,130.162a.408.408,0,0,1-.407-.407h-1.13a1.537,1.537,0,1,0,3.075,0H219.8A.408.408,0,0,1,219.4,130.162Z" transform="translate(-196.79 -117.77)" fill="#fff"/>
        <path id="Path_15944" data-name="Path 15944" d="M268.472,131.292a1.539,1.539,0,0,0,1.538-1.537h-1.13a.407.407,0,1,1-.815,0h-1.13A1.539,1.539,0,0,0,268.472,131.292Z" transform="translate(-240.849 -117.77)" fill="#fff"/>
        <rect id="Rectangle_327" data-name="Rectangle 327" width="1.13" height="15.252" transform="translate(24.55 23.83)" fill="#fff"/>
        <g id="Group_2268" data-name="Group 2268" transform="translate(7.718 5.301)">
          <rect id="Rectangle_328" data-name="Rectangle 328" width="1.13" height="1.701" transform="translate(31.676 0)" fill="#fff"/>
          <rect id="Rectangle_329" data-name="Rectangle 329" width="1.13" height="1.701" transform="translate(31.676 2.907)" fill="#fff"/>
          <rect id="Rectangle_330" data-name="Rectangle 330" width="1.701" height="1.13" transform="translate(29.937 1.739)" fill="#fff"/>
          <rect id="Rectangle_331" data-name="Rectangle 331" width="1.701" height="1.13" transform="translate(32.844 1.739)" fill="#fff"/>
          <rect id="Rectangle_332" data-name="Rectangle 332" width="1.13" height="1.701" transform="translate(1.739 14.326)" fill="#fff"/>
          <rect id="Rectangle_333" data-name="Rectangle 333" width="1.13" height="1.701" transform="translate(1.739 17.233)" fill="#fff"/>
          <rect id="Rectangle_334" data-name="Rectangle 334" width="1.701" height="1.13" transform="translate(0 16.065)" fill="#fff"/>
          <rect id="Rectangle_335" data-name="Rectangle 335" width="1.701" height="1.13" transform="translate(2.907 16.065)" fill="#fff"/>
        </g>
      </g>
    </g>
  </g>
</svg>
