<svg xmlns="http://www.w3.org/2000/svg" xmlns:xlink="http://www.w3.org/1999/xlink" width="144.147" height="136.723" viewBox="0 0 144.147 136.723">
  <defs>
    <filter id="Path_1276" x="0" y="0" width="144.147" height="136.723" filterUnits="userSpaceOnUse">
      <feOffset dy="8" input="SourceAlpha"/>
      <feGaussianBlur stdDeviation="10" result="blur"/>
      <feFlood flood-color="#76c0b2"/>
      <feComposite operator="in" in2="blur"/>
      <feComposite in="SourceGraphic"/>
    </filter>
  </defs>
  <g id="stars" transform="translate(22 22)">
    <g transform="matrix(1, 0, 0, 1, -22, -22)" filter="url(#Path_1276)">
      <path id="Path_1276-2" data-name="Path 1276" d="M88.647,45.765A42.074,42.074,0,1,0,22.714,80.413H70.435A42.02,42.02,0,0,0,88.647,45.765Z" transform="translate(25.5 18.31)" fill="rgba(3,135,103,0.5)"/>
    </g>
    <path id="Path_1594" data-name="Path 1594" d="M0,0H54.448" transform="translate(23.214 77.037)" fill="none" stroke="#038767" stroke-linecap="round" stroke-width="3"/>
    <path id="Path_15937" data-name="Path 15937" d="M54.965,52.25v-6.3H53.773v-4.4H52.58V36.982H51.532V32.4H50.387V27.825H49.194V23.247H48.05V18.668h-1.1V12.022a1.5,1.5,0,0,0-3,0V14.09H42.144v-3a.572.572,0,0,0-1.145,0v3H38.71v-3a.572.572,0,0,0-1.145,0v3h-.577a3.228,3.228,0,0,0-1.716-.892l0-2.1a.573.573,0,0,0-.571-.573h0a.573.573,0,0,0-.572.571l0,2.106a3.224,3.224,0,0,0-1.718.893h-.572v-3a.572.572,0,1,0-1.145,0v3H28.4v-3a.572.572,0,1,0-1.145,0v3H25.452V12.023a1.5,1.5,0,0,0-3,0v6.647h-1.1v4.578H20.214v4.578H19.021V32.4H17.876v4.578H16.828v4.578H15.635v4.4H14.443v6.3H13.3v7.44H56.11v-7.44H54.965ZM53.821,47.1V52.25H41.127l0-5.151h12.7ZM34.7,54.423a4.5,4.5,0,0,0-4.471,4.124H29.41l0-5.151H39.987v5.151h-.82A4.5,4.5,0,0,0,34.7,54.423Zm3.323,4.123H31.372a3.344,3.344,0,0,1,6.649,0Zm-5-6.3c.151-1.709.947-2.861,1.675-2.861s1.534,1.153,1.685,2.861Zm4.5,0c-.173-2.285-1.344-4.006-2.826-4.006s-2.643,1.721-2.816,4.006H29.406l0-5.151H39.986V52.25Zm9.387-32.437v3.251H37.554V19.813Zm-24.4,0h9.341l0,3.251H22.5Zm10.484,0h3.423l0,3.251H35.372V21.621a.572.572,0,0,0-1.145,0v1.442H32.987ZM48.05,24.391v3.251h-9.9l-.509-3.251Zm-11.558,0L37,27.642h-1.63V26.2a.572.572,0,0,0-1.145,0v1.442H32.389l.508-3.251Zm.719,4.578.509,3.251H35.372V30.778a.572.572,0,0,0-1.145,0V32.22H31.674l.508-3.251Zm13.176,4.578V36.8H39.59l-.509-3.251Zm-12.459,0,.509,3.251H35.371V35.022a.572.572,0,1,0-1.145,0V36.8H30.958l.508-3.251Zm13.507,4.578v3.251H40.308L39.8,38.126Zm-33.463,0H29.6l-.508,3.251H17.972Zm12.779,0h7.9l.509,3.251H35.372V39.935a.572.572,0,1,0-1.145,0v1.442H30.244ZM39.365,42.7l.509,3.251H36.681c-.125-1.693-.8-3.247-1.986-3.247s-1.855,1.554-1.979,3.247H29.529l.508-3.251h9.327Zm-3.827,3.251H33.859c.114-1.368.616-2.1.836-2.1S35.422,44.587,35.537,45.955Zm17.091,0h-11.6L40.516,42.7H52.628ZM49.243,32.22H38.871l-.509-3.251h10.88ZM45.1,12.023a.354.354,0,0,1,.707,0v6.463H45.1V12.023Zm-1.145,3.212v3.251H37.14a3.154,3.154,0,0,0,.579-3.251Zm-9.257-.95A2.095,2.095,0,1,1,32.6,16.379,2.1,2.1,0,0,1,34.7,14.285Zm-3.021.95a3.154,3.154,0,0,0,.579,3.251h-6.8V15.235ZM23.6,12.023a.354.354,0,0,1,.707,0v6.462H23.6V12.023ZM21.358,24.391H31.746l-.508,3.251h-9.88ZM20.166,28.97H31.031l-.508,3.251H20.166Zm-1.145,4.578H30.316L29.807,36.8H19.021ZM16.78,42.7H28.885l-.508,3.251H16.78Zm-1.193,4.4H28.266V52.25H15.587Zm-1.145,6.3H28.266v5.151H14.443Zm40.523,5.151H41.131l0-5.151H54.967v5.151Z" transform="translate(16.052 3.625)" fill="#fff"/>
    <line id="Line_120" data-name="Line 120" x2="35.571" transform="translate(32.652 81.988)" fill="none" stroke="#038767" stroke-linecap="round" stroke-linejoin="round" stroke-width="3"/>
    <line id="Line_121" data-name="Line 121" x2="7.149" transform="translate(43.769 86.938)" fill="none" stroke="#038767" stroke-linecap="round" stroke-linejoin="round" stroke-width="3"/>
    <line id="Line_122" data-name="Line 122" x2="1.911" transform="translate(55.282 86.938)" fill="none" stroke="#038767" stroke-linecap="round" stroke-linejoin="round" stroke-width="3"/>
    <path id="Path_1281" data-name="Path 1281" d="M46.2,19.072" transform="translate(25.963 4.775)" fill="none" stroke="#2d346a" stroke-linecap="round" stroke-linejoin="round" stroke-width="6"/>
    <path id="Path_1282" data-name="Path 1282" d="M62.448,16.212a1.746,1.746,0,0,0-1.836-1.839h-.018a.612.612,0,0,1,.015-1.224,1.746,1.746,0,0,0,1.839-1.836.612.612,0,0,1,1.224,0,1.746,1.746,0,0,0,1.839,1.836.612.612,0,0,1,0,1.224,1.745,1.745,0,0,0-1.836,1.836v0s0,.009,0,.009v.006a.612.612,0,0,1-1.224-.015Z" transform="translate(33.277 0.339)" fill="#038767" opacity="0.4"/>
    <path id="Path_1283" data-name="Path 1283" d="M59.724,50.805a.873.873,0,0,0-.918-.92H58.8a.306.306,0,0,1,.006-.612.873.873,0,0,0,.92-.918.306.306,0,0,1,.612,0,.873.873,0,0,0,.92.918.306.306,0,0,1,0,.612.872.872,0,0,0-.918.918v0a.015.015,0,0,1,0,0h0v0a.306.306,0,0,1-.612-.008Z" transform="translate(33.815 23.865)" fill="#038767" opacity="0.7"/>
    <path id="Path_1284" data-name="Path 1284" d="M6.724,15.178a.873.873,0,0,0-.918-.92H5.8a.306.306,0,0,1,.006-.612.873.873,0,0,0,.919-.918.306.306,0,1,1,.612,0,.873.873,0,0,0,.919.918.306.306,0,0,1,0,.612.872.872,0,0,0-.918.918v0a.015.015,0,0,1,0,0h0v0a.306.306,0,0,1-.612-.008Z" transform="translate(1.195 -3.014)" fill="#038767"/>
    <path id="Path_1285" data-name="Path 1285" d="M2.992,48.76A2.133,2.133,0,0,0,.748,46.512H.726a.748.748,0,0,1,.019-1.5,2.133,2.133,0,0,0,2.248-2.244.748.748,0,1,1,1.5,0,2.133,2.133,0,0,0,2.248,2.244.748.748,0,0,1,0,1.5,2.133,2.133,0,0,0-2.244,2.244v0c0,.006,0,.011,0,.011v.007a.748.748,0,0,1-1.5-.019Z" transform="translate(0 16.259)" fill="#038767"/>
    <path id="Path_1286" data-name="Path 1286" d="M55.548,38.268a1.746,1.746,0,0,0-1.836-1.839h-.018a.612.612,0,0,1,.015-1.224,1.746,1.746,0,0,0,1.839-1.836.612.612,0,1,1,1.224,0A1.746,1.746,0,0,0,58.611,35.2a.612.612,0,0,1,0,1.224,1.745,1.745,0,0,0-1.836,1.836v0s0,.009,0,.009v.006a.612.612,0,0,1-1.224-.015Z" transform="translate(29.62 12.028)" fill="#038767"/>
  </g>
</svg>
