<svg id="Logo" xmlns="http://www.w3.org/2000/svg" width="204.588" height="39.878" viewBox="0 0 204.588 39.878">
  <text id="learning_style_by_styling" data-name="learning style by styling" transform="translate(0 36.878)" fill="#fff" font-size="14" font-family="Roboto" font-weight="300" letter-spacing="0.05em"><tspan x="0" y="0">learning style by styling</tspan></text>
  <path id="Path_34" data-name="Path 34" d="M-90.9.338A10.488,10.488,0,0,1-95.082-.52a10.946,10.946,0,0,1-3.38-2.288,10.367,10.367,0,0,1-2.288-3.38,10.062,10.062,0,0,1-.832-4.082,10.545,10.545,0,0,1,.832-4.108,10.616,10.616,0,0,1,2.314-3.354A10.872,10.872,0,0,1-95-20.02a10.9,10.9,0,0,1,4.16-.832A10.257,10.257,0,0,1-84.5-18.72a1.317,1.317,0,0,1,.26,1.82,1.321,1.321,0,0,1-1.82.26,7.7,7.7,0,0,0-4.784-1.612,8.31,8.31,0,0,0-3.172.624,8.307,8.307,0,0,0-2.6,1.742,8.223,8.223,0,0,0-1.742,2.548,7.707,7.707,0,0,0-.624,3.068A7.8,7.8,0,0,0-98.358-7.2a7.8,7.8,0,0,0,1.742,2.548A8.048,8.048,0,0,0-90.9-2.262a8.2,8.2,0,0,0,2.756-.494A8.087,8.087,0,0,0-85.8-4.108a1.284,1.284,0,0,1,1.82.156,1.282,1.282,0,0,1-.156,1.82A10.573,10.573,0,0,1-87.23-.338,10.405,10.405,0,0,1-90.9.338Zm18.252.078A13.659,13.659,0,0,1-74.7.26,10.229,10.229,0,0,1-78.026-.832a4.351,4.351,0,0,1-2.21-2.288c-.312-.91.65-2.054,1.586-1.586a1.911,1.911,0,0,1,.546.572,6.028,6.028,0,0,0,3.8,1.872A9.893,9.893,0,0,0-70.9-2.314a3.7,3.7,0,0,0,2.86-2.08,2.732,2.732,0,0,0,.078-1.872c-.6-1.768-2.808-2.418-4.68-2.808A19.759,19.759,0,0,1-76.31-10.14a6.239,6.239,0,0,1-3.2-2.444,5.778,5.778,0,0,1-.182-4.758,6.7,6.7,0,0,1,6.448-3.536,10.918,10.918,0,0,1,3.874.676,4.747,4.747,0,0,1,2.886,2.47,1.234,1.234,0,0,1-.234,1.222,1.085,1.085,0,0,1-1.352.312,3.882,3.882,0,0,1-.364-.312,5.906,5.906,0,0,0-2.262-1.482,7.025,7.025,0,0,0-2.548-.338c-2.028,0-4.342.78-4.342,3.146,0,2.184,1.9,2.834,6.24,3.9,5.564,1.352,6.292,4.42,5.772,7.02C-66.352-.39-70.928.416-72.644.416Zm18.252,0A13.659,13.659,0,0,1-56.446.26,10.229,10.229,0,0,1-59.774-.832a4.351,4.351,0,0,1-2.21-2.288c-.312-.91.65-2.054,1.586-1.586a1.911,1.911,0,0,1,.546.572,6.028,6.028,0,0,0,3.8,1.872,9.893,9.893,0,0,0,3.406-.052,3.7,3.7,0,0,0,2.86-2.08,2.732,2.732,0,0,0,.078-1.872c-.6-1.768-2.808-2.418-4.68-2.808a19.759,19.759,0,0,1-3.666-1.066,6.239,6.239,0,0,1-3.2-2.444,5.778,5.778,0,0,1-.182-4.758,6.7,6.7,0,0,1,6.448-3.536,10.918,10.918,0,0,1,3.874.676,4.747,4.747,0,0,1,2.886,2.47,1.234,1.234,0,0,1-.234,1.222,1.085,1.085,0,0,1-1.352.312,3.882,3.882,0,0,1-.364-.312,5.906,5.906,0,0,0-2.262-1.482,7.025,7.025,0,0,0-2.548-.338c-2.028,0-4.342.78-4.342,3.146,0,2.184,1.9,2.834,6.24,3.9,5.564,1.352,6.292,4.42,5.772,7.02C-48.1-.39-52.676.416-54.392.416ZM-27.17.286A8.853,8.853,0,0,1-29.276.052a5.558,5.558,0,0,1-3.536-2.444,1.319,1.319,0,0,1,.468-1.794,1.289,1.289,0,0,1,1.768.468A3.024,3.024,0,0,0-28.7-2.5a6.655,6.655,0,0,0,1.508.182,3.507,3.507,0,0,0,2.626-.858,3.029,3.029,0,0,0,.676-1.976V-19.136a1.287,1.287,0,0,1,1.3-1.3,1.3,1.3,0,0,1,1.3,1.3V-5.278A5.6,5.6,0,0,1-22.672-1.43a4.951,4.951,0,0,1-1.82,1.248A7.231,7.231,0,0,1-27.17.286ZM-7.358.442a10.456,10.456,0,0,1-4.16-.858A10.76,10.76,0,0,1-14.924-2.7a11.1,11.1,0,0,1-2.288-3.38,10.513,10.513,0,0,1-.832-4.082,10.12,10.12,0,0,1,.858-4.108,10.616,10.616,0,0,1,2.314-3.354,10.76,10.76,0,0,1,3.406-2.288,10.93,10.93,0,0,1,4.186-.832A10.34,10.34,0,0,1,.182-17.6a10.314,10.314,0,0,1,2.21,3.354A10.487,10.487,0,0,1,3.2-10.166a10.3,10.3,0,0,1-.806,4.082A10.225,10.225,0,0,1,.156-2.7,10.458,10.458,0,0,1-7.358.442Zm.078-18.59a8.31,8.31,0,0,0-3.172.624,8.02,8.02,0,0,0-2.6,1.742,7.423,7.423,0,0,0-1.742,2.548,7.307,7.307,0,0,0-.65,3.068A7.8,7.8,0,0,0-14.82-7.1,7.8,7.8,0,0,0-13.078-4.55a8.048,8.048,0,0,0,5.72,2.392A7.966,7.966,0,0,0-1.69-4.524,8.076,8.076,0,0,0,0-7.072a8.4,8.4,0,0,0,.6-3.094,7.967,7.967,0,0,0-2.262-5.616A7.743,7.743,0,0,0-7.28-18.148ZM15.054.312a9.482,9.482,0,0,1-4.862-1.17,6.935,6.935,0,0,1-2.678-2.73A9.908,9.908,0,0,1,6.448-8.294V-19.136a1.321,1.321,0,0,1,1.3-1.3,1.3,1.3,0,0,1,1.3,1.3V-8.294A7.314,7.314,0,0,0,9.8-4.836a4.361,4.361,0,0,0,1.69,1.742,7.15,7.15,0,0,0,3.562.806,7.15,7.15,0,0,0,3.562-.806A4.4,4.4,0,0,0,20.28-4.81a7.458,7.458,0,0,0,.754-3.484V-19.136a1.321,1.321,0,0,1,1.3-1.3,1.3,1.3,0,0,1,1.3,1.3V-8.294a9.853,9.853,0,0,1-1.066,4.706C21.606-1.794,19.526.312,15.054.312Zm25.9-.338a1.327,1.327,0,0,1-1.274-1.066,9.954,9.954,0,0,0-1.482-3.822A4.587,4.587,0,0,0,36.374-6.5a3.784,3.784,0,0,0-1.508-.416c-.338,0-.7.026-1.066.026a1.3,1.3,0,0,1-1.274-1.2,1.262,1.262,0,0,1,1.04-1.378,4.537,4.537,0,0,1,1.326-.078,7.37,7.37,0,0,0,3.2-.806,3.322,3.322,0,0,0,1.69-3.2,5.386,5.386,0,0,0-.572-2.574,3.51,3.51,0,0,0-1.2-1.2,4.562,4.562,0,0,0-1.976-.546H29.614V-1.326a1.3,1.3,0,0,1-1.3,1.3,1.321,1.321,0,0,1-1.3-1.3V-19.162a1.3,1.3,0,0,1,1.3-1.3h7.722a6.294,6.294,0,0,1,1.534.208,6.267,6.267,0,0,1,2.938,1.612,6,6,0,0,1,1.352,2.08,8.429,8.429,0,0,1,.52,3.016,5.94,5.94,0,0,1-2.99,5.46c-.13.078-.26.13-.416.208a7.908,7.908,0,0,1,1.274,1.352,12.232,12.232,0,0,1,1.976,4.94A1.306,1.306,0,0,1,41.21-.052C41.106-.052,41.028-.026,40.95-.026ZM62.426-.1a1.443,1.443,0,0,1-1.508-.338L48.36-15.548V-1.3A1.287,1.287,0,0,1,47.06,0a1.287,1.287,0,0,1-1.3-1.3V-19.136a1.29,1.29,0,0,1,.858-1.222,1.289,1.289,0,0,1,1.43.39L60.632-4.888V-19.162a1.287,1.287,0,0,1,1.3-1.3,1.3,1.3,0,0,1,1.3,1.3V-1.274A1.129,1.129,0,0,1,62.426-.1ZM80.34-2.6H69.212V-8.97h9.62a1.287,1.287,0,0,0,1.3-1.3,1.3,1.3,0,0,0-1.3-1.3h-9.62v-6.266H80.08a1.287,1.287,0,0,0,1.3-1.3,1.287,1.287,0,0,0-1.3-1.3H67.912a1.3,1.3,0,0,0-1.3,1.3V-1.3a1.3,1.3,0,0,0,1.3,1.3H80.34a1.287,1.287,0,0,0,1.3-1.3A1.287,1.287,0,0,0,80.34-2.6Zm20.67-17.628a1.3,1.3,0,0,0-1.794.364L93.288-11l-5.9-8.866a1.3,1.3,0,0,0-1.794-.364,1.331,1.331,0,0,0-.364,1.82l6.76,10.14V-1.3a1.321,1.321,0,0,0,1.3,1.3,1.3,1.3,0,0,0,1.3-1.3V-8.268l6.786-10.14A1.331,1.331,0,0,0,101.01-20.228Z" transform="translate(103 20.878)" fill="#fff"/>
</svg>
