<svg xmlns="http://www.w3.org/2000/svg" xmlns:xlink="http://www.w3.org/1999/xlink" width="524.484" height="223.248" viewBox="0 0 524.484 223.248">
  <defs>
    <linearGradient id="linear-gradient" x1="0.5" x2="0.5" y2="1" gradientUnits="objectBoundingBox">
      <stop offset="0" stop-color="#9f2fff"/>
      <stop offset="1" stop-color="#0bb1d3"/>
    </linearGradient>
    <linearGradient id="linear-gradient-4" y1="1" y2="0" xlink:href="#linear-gradient"/>
    <linearGradient id="linear-gradient-5" x1="0.07" y1="0.035" x2="0.952" y2="1.166" xlink:href="#linear-gradient"/>
    <linearGradient id="linear-gradient-6" x1="-0.113" y1="-0.179" x2="0.673" y2="1.423" xlink:href="#linear-gradient"/>
    <linearGradient id="linear-gradient-22" y2="1.288" xlink:href="#linear-gradient"/>
    <linearGradient id="linear-gradient-38" x1="-0.104" y1="-0.461" y2="2.531" xlink:href="#linear-gradient"/>
  </defs>
  <g id="Group_214" data-name="Group 214" transform="translate(-657 -4199)">
    <g id="briefcase" transform="translate(746 4166.091)">
      <g id="Group_161" data-name="Group 161" transform="translate(1.434 65.029)">
        <g id="Group_160" data-name="Group 160" transform="translate(0 0)">
          <path id="Path_266" data-name="Path 266" d="M70.187,279.273a1.352,1.352,0,0,0-1.428,1.434v18.645a1.352,1.352,0,0,1-1.428,1.434H15.921a1.352,1.352,0,0,1-1.428-1.434V280.707a1.352,1.352,0,0,0-1.428-1.434,1.352,1.352,0,0,0-1.428,1.434v18.645a4.217,4.217,0,0,0,4.284,4.3h51.41a4.217,4.217,0,0,0,4.284-4.3V280.707A1.352,1.352,0,0,0,70.187,279.273Z" transform="translate(-11.637 -279.273)" fill="url(#linear-gradient)"/>
        </g>
      </g>
      <g id="Group_163" data-name="Group 163" transform="translate(0 44.949)">
        <g id="Group_162" data-name="Group 162">
          <path id="Path_267" data-name="Path 267" d="M58.562,116.364H4.285A4.217,4.217,0,0,0,0,120.667v9.179a4.3,4.3,0,0,0,3.285,4.159l22.425,5.02v4.59a1.352,1.352,0,0,0,1.428,1.434h8.57a1.352,1.352,0,0,0,1.428-1.434v-4.59l22.425-5.02a4.3,4.3,0,0,0,3.285-4.159v-9.179A4.217,4.217,0,0,0,58.562,116.364ZM34.28,142.181H28.567v-5.737H34.28Zm25.71-12.335a1.4,1.4,0,0,1-1.143,1.434l-21.711,4.877v-1.147a1.352,1.352,0,0,0-1.428-1.434h-8.57a1.352,1.352,0,0,0-1.428,1.434v1.147L4,131.28a1.4,1.4,0,0,1-1.143-1.434v-9.179a1.352,1.352,0,0,1,1.428-1.434H58.562a1.352,1.352,0,0,1,1.428,1.434Z" transform="translate(0 -116.364)" fill="url(#linear-gradient)"/>
        </g>
      </g>
      <g id="Group_165" data-name="Group 165" transform="translate(19.949 34.909)">
        <g id="Group_164" data-name="Group 164" transform="translate(0 0)">
          <path id="Path_268" data-name="Path 268" d="M181.554,34.909H167.212a4.226,4.226,0,0,0-4.3,4.3v1.434a1.434,1.434,0,0,0,2.868,0V39.212a1.355,1.355,0,0,1,1.434-1.434h14.343a1.355,1.355,0,0,1,1.434,1.434v1.434a1.434,1.434,0,1,0,2.868,0V39.212A4.226,4.226,0,0,0,181.554,34.909Z" transform="translate(-162.909 -34.909)" fill="url(#linear-gradient)"/>
        </g>
      </g>
    </g>
    <path id="icons" d="M39.433,14.428a.886.886,0,0,0,.873.9,2.689,2.689,0,0,1,.873,5.206v1.955H39.433V20.53a2.678,2.678,0,0,1-1.747-2.521h1.747a.874.874,0,1,0,.873-.9,2.689,2.689,0,0,1-.873-5.206V9.952H41.18v1.955a2.678,2.678,0,0,1,1.747,2.521H41.18a.874.874,0,1,0-1.747,0Zm10.482,1.79a9.611,9.611,0,1,1-19.216,0,9.611,9.611,0,1,1,19.216,0Zm-1.747,0a7.864,7.864,0,1,0-15.722,0,7.864,7.864,0,1,0,15.722,0Zm4.592-4.151,2.4.821v6.66l-2.4.821a13.534,13.534,0,0,1-.782,1.943L53.1,24.625l-4.6,4.71-2.256-1.154a12.846,12.846,0,0,1-1.9.8l-.8,2.455H41.18v22.38a2.657,2.657,0,0,1-2.62,2.686H3.62A2.657,2.657,0,0,1,1,53.816V28.751a2.657,2.657,0,0,1,2.62-2.686H28.914l-1.406-1.441,1.126-2.312a13.535,13.535,0,0,1-.782-1.943l-2.4-.82v-6.66l2.4-.821a13.534,13.534,0,0,1,.782-1.943L27.509,7.812,32.1,3.1,34.36,4.257a12.847,12.847,0,0,1,1.9-.8L37.057,1h6.5l.8,2.456a12.847,12.847,0,0,1,1.9.8L48.509,3.1l4.6,4.71-1.126,2.312A13.579,13.579,0,0,1,52.759,12.067ZM2.747,28.751v.9H36.473l-.217-.665a12.847,12.847,0,0,1-1.9-.8L32.1,29.334l-1.443-1.478H3.62A.886.886,0,0,0,2.747,28.751ZM39.433,53.816v-.9H2.747v.9a.885.885,0,0,0,.873.9H38.559A.885.885,0,0,0,39.433,53.816Zm0-17.009H32.445a3.582,3.582,0,0,0,0,7.162h6.988Zm0-5.371H2.747V51.131H39.433V45.76H32.445a5.373,5.373,0,0,1,0-10.742h6.988ZM53.408,14.177l-2.067-.708-.127-.453a11.657,11.657,0,0,0-.984-2.444l-.224-.413.971-1.994L48.163,5.28l-1.945,1-.4-.229A11.084,11.084,0,0,0,43.43,5.038l-.443-.13L42.3,2.79H38.315l-.69,2.118-.442.13A11.066,11.066,0,0,0,34.8,6.046l-.4.229-1.945-1L29.634,8.166l.971,1.994-.224.413a11.676,11.676,0,0,0-.984,2.444l-.127.453-2.068.708v4.082l2.067.708.127.453a11.657,11.657,0,0,0,.984,2.444l.224.413-.971,1.994,2.816,2.886,1.945-1,.4.229A11.085,11.085,0,0,0,37.182,27.4l.442.13.691,2.118H42.3l.691-2.118.442-.13a11.066,11.066,0,0,0,2.385-1.008l.4-.229,1.945,1,2.816-2.886-.971-1.994.224-.413a11.676,11.676,0,0,0,.984-2.444l.127-.453,2.067-.708ZM4.494,35.017H6.241v-1.79H4.494Zm0,3.581H6.241v-1.79H4.494Zm0,3.581H6.241v-1.79H4.494Zm0,3.581H6.241v-1.79H4.494Zm0,3.581H6.241V47.55H4.494ZM10.608,9.952H8.861v2.686h1.747Zm-3.962.94L5.411,12.158l1.853,1.9L8.5,12.791ZM4.494,16.218h2.62v-1.79H4.494Zm.917,2.27,1.235,1.266,1.854-1.9L7.265,16.589Zm3.45,2.206h1.747V18.009H8.861Zm3.962-.94,1.235-1.266-1.853-1.9L10.97,17.855Zm2.152-3.536v-1.79h-2.62v1.79ZM10.97,12.791,12.2,14.057l1.853-1.9-1.235-1.266Zm9.247-5.525v1.79h1.747V7.266Zm0,5.371h1.747v-1.79H20.216Zm3.494-1.79V9.057H21.963v1.79Zm-5.241-1.79v1.79h1.747V9.057ZM49.041,41.284H47.294v2.686h1.747Zm-5.2,2.207,1.853,1.9,1.235-1.266-1.853-1.9Zm-.917,4.06h2.62V45.76h-2.62Zm.917,2.269,1.235,1.266,1.853-1.9L45.7,47.921Zm3.45,2.207h1.747V49.34H47.294Zm2.109-2.84,1.853,1.9,1.235-1.266-1.854-1.9Zm4.006-3.427h-2.62v1.79h2.62ZM49.4,44.123l1.235,1.266,1.854-1.9-1.235-1.266ZM48.167,32.332v1.79h1.747v-1.79Zm0,5.371h1.747v-1.79H48.167Zm3.494-1.79v-1.79H49.914v1.79Zm-5.241-1.79v1.79h1.747v-1.79ZM32.445,37.7a2.686,2.686,0,1,1-2.62,2.686A2.657,2.657,0,0,1,32.445,37.7Zm0,1.79a.9.9,0,1,0,.873.9A.885.885,0,0,0,32.445,39.493Z" transform="translate(839 4199)" fill="url(#linear-gradient-4)"/>
    <g id="noun_Money_2018934" transform="translate(605.51 4188.5)">
      <path id="Path_322" data-name="Path 322" d="M67.292,42.218H63.72V31.5a.768.768,0,0,0-.714-.714H14.429a.768.768,0,0,0-.714.714v5h-5A.768.768,0,0,0,8,37.217v22.86a.768.768,0,0,0,.714.714H18v5a.768.768,0,0,0,.714.714H67.292a.768.768,0,0,0,.714-.714V42.932A.768.768,0,0,0,67.292,42.218Zm-5-10v6.429H62.22a7.147,7.147,0,0,1-6.358-6.358v-.071Zm-47.148,0h6.429v.071a7.147,7.147,0,0,1-6.358,6.358h-.071Zm0,7.858A8.63,8.63,0,0,0,23,32.216H54.434a8.63,8.63,0,0,0,7.858,7.858v5.786a8.63,8.63,0,0,0-7.858,7.858H23a8.63,8.63,0,0,0-7.858-7.858Zm47.148,7.144v6.429H55.862v-.071a7.287,7.287,0,0,1,6.429-6.358Zm-47.148,0h0A7.081,7.081,0,0,1,21.5,53.576v.071H15.072V47.218ZM9.429,59.362V37.931h4.286v16.43a.768.768,0,0,0,.714.714H56.577v4.286Zm57.149,5.715H19.43V60.791H57.291a.768.768,0,0,0,.714-.714v-5h5a.768.768,0,0,0,.714-.714V43.646h2.857ZM38.718,49.361a6.429,6.429,0,1,0-6.429-6.429A6.4,6.4,0,0,0,38.718,49.361Zm0-11.43a5,5,0,1,1-5,5A4.97,4.97,0,0,1,38.718,37.931Zm-20-21.431a2.866,2.866,0,0,1,2.857,2.857.714.714,0,0,0,1.429,0A2.866,2.866,0,0,1,25.859,16.5a.714.714,0,0,0,0-1.429A2.866,2.866,0,0,1,23,12.214a.714.714,0,0,0-1.429,0,2.866,2.866,0,0,1-2.857,2.857.714.714,0,0,0,0,1.429Zm3.572-1.929A3.938,3.938,0,0,0,23.5,15.786,3.938,3.938,0,0,0,22.287,17a3.938,3.938,0,0,0-1.214-1.214A3.3,3.3,0,0,0,22.287,14.572Zm12.144,9.072A2.866,2.866,0,0,1,37.289,26.5a.714.714,0,1,0,1.429,0,2.866,2.866,0,0,1,2.857-2.857.714.714,0,0,0,0-1.429,2.866,2.866,0,0,1-2.857-2.857.714.714,0,1,0-1.429,0,2.866,2.866,0,0,1-2.857,2.857.714.714,0,1,0,0,1.429ZM38,21.715a3.938,3.938,0,0,0,1.214,1.214A3.938,3.938,0,0,0,38,24.144a3.938,3.938,0,0,0-1.214-1.214A3.3,3.3,0,0,0,38,21.715Zm17.145-5.929a.675.675,0,0,1,.714-.714h1.429V13.643a.714.714,0,1,1,1.429,0v1.429h1.429a.714.714,0,0,1,0,1.429H58.72v1.429a.714.714,0,1,1-1.429,0V16.5H55.862A.675.675,0,0,1,55.148,15.786Z" transform="translate(43.49 0)" fill="url(#linear-gradient-5)"/>
    </g>
    <g id="Group_207" data-name="Group 207" transform="translate(-2080.266 2928.703)" opacity="0.997">
      <g id="noun_Graph_823913" transform="translate(3014.267 1280.088)">
        <g id="Group_197" data-name="Group 197" transform="translate(0 0)">
          <path id="Path_308" data-name="Path 308" d="M44.18,6.8a4.028,4.028,0,0,0-4.016,4.016,4.193,4.193,0,0,0,.7,2.309l-8.233,7.129a3.906,3.906,0,0,0-3.916.4l-8.434-6.326a4.57,4.57,0,0,0,.5-2.008,4.016,4.016,0,1,0-8.033,0,3.646,3.646,0,0,0,1.2,2.811L5.121,23.066a4.047,4.047,0,1,0,2.912,3.916,3.646,3.646,0,0,0-1.2-2.811l8.635-7.932a4.337,4.337,0,0,0,3.213-.4l8.434,6.426c-.3.5-1.607,5.221,3.615,5.824a4.028,4.028,0,0,0,4.016-4.016,4.085,4.085,0,0,0-.8-2.41l8.233-7.029a3.439,3.439,0,0,0,1.807.4A4.028,4.028,0,0,0,48,11.017,3.8,3.8,0,0,0,44.18,6.8ZM4.016,29.091a2.008,2.008,0,1,1,2.008-2.008A1.952,1.952,0,0,1,4.016,29.091Zm12.651-14.66a2.008,2.008,0,1,1,2.008-2.008A1.952,1.952,0,0,1,16.668,14.431ZM30.926,25.978a2.008,2.008,0,1,1,2.008-2.008A2.014,2.014,0,0,1,30.926,25.978ZM44.18,12.925a2.008,2.008,0,1,1,2.008-2.008A2.014,2.014,0,0,1,44.18,12.925Z" transform="translate(0 -6.8)" fill="url(#linear-gradient-6)"/>
          <path id="Path_309" data-name="Path 309" d="M4,33.2a.949.949,0,0,0-1,1v6.025a.949.949,0,0,0,1,1,.949.949,0,0,0,1-1V34.2A.949.949,0,0,0,4,33.2Z" transform="translate(0.012 -6.692)" fill="url(#linear-gradient-6)"/>
          <path id="Path_310" data-name="Path 310" d="M30.7,33.2a.949.949,0,0,0-1,1v6.025a1,1,0,1,0,2.008,0V34.2A1.006,1.006,0,0,0,30.7,33.2Z" transform="translate(0.121 -6.692)" fill="url(#linear-gradient-6)"/>
          <path id="Path_311" data-name="Path 311" d="M10.7,24.8a.949.949,0,0,0-1,1V40.263a.949.949,0,0,0,1,1,.949.949,0,0,0,1-1V25.8A1.08,1.08,0,0,0,10.7,24.8Z" transform="translate(0.04 -6.726)" fill="url(#linear-gradient-6)"/>
          <path id="Path_312" data-name="Path 312" d="M24,24.8a.949.949,0,0,0-1,1V40.263a1,1,0,0,0,2.008,0V25.8A1.006,1.006,0,0,0,24,24.8Z" transform="translate(0.094 -6.726)" fill="url(#linear-gradient-6)"/>
          <path id="Path_313" data-name="Path 313" d="M17.3,19.9a.949.949,0,0,0-1,1V40.383a1,1,0,1,0,2.008,0V20.9A.949.949,0,0,0,17.3,19.9Z" transform="translate(0.067 -6.746)" fill="url(#linear-gradient-6)"/>
          <path id="Path_314" data-name="Path 314" d="M37.3,24.8a.949.949,0,0,0-1,1V40.263a1,1,0,1,0,2.008,0V25.8A1.006,1.006,0,0,0,37.3,24.8Z" transform="translate(0.148 -6.726)" fill="url(#linear-gradient-6)"/>
          <path id="Path_315" data-name="Path 315" d="M44,19.9a.949.949,0,0,0-1,1V40.383a1,1,0,0,0,2.008,0V20.9A1.006,1.006,0,0,0,44,19.9Z" transform="translate(0.176 -6.746)" fill="url(#linear-gradient-6)"/>
        </g>
      </g>
      <rect id="Rectangle_339" data-name="Rectangle 339" width="1.893" height="54.258" rx="0.947" transform="translate(3009.171 1272.297)" fill="url(#linear-gradient-6)"/>
      <rect id="Rectangle_340" data-name="Rectangle 340" width="1.893" height="64" rx="0.947" transform="translate(3004.266 1321.305) rotate(-90)" fill="url(#linear-gradient-6)"/>
    </g>
    <g id="iocn" transform="translate(1108 4061.919)">
      <g id="Group_149" data-name="Group 149" transform="translate(32.159 138.081)">
        <g id="Group_148" data-name="Group 148">
          <path id="Path_260" data-name="Path 260" d="M222.615,138.081a4.583,4.583,0,0,0-4.583,4.583v2.292a4.583,4.583,0,1,0,9.167,0v-2.292A4.583,4.583,0,0,0,222.615,138.081Zm2.292,6.875a2.292,2.292,0,1,1-4.583,0v-2.292a2.292,2.292,0,1,1,4.583,0Z" transform="translate(-218.032 -138.081)" fill="url(#linear-gradient)"/>
        </g>
      </g>
      <g id="Group_151" data-name="Group 151" transform="translate(0 151.753)">
        <g id="Group_150" data-name="Group 150">
          <path id="Path_261" data-name="Path 261" d="M72.887,266.9a131.775,131.775,0,0,1-17.581,3.741l2.429-4.4a1.343,1.343,0,0,0-.4-1.754l-.035-.022L47,258.243,42.62,249.9v-6.628l7.7,4.188a1.1,1.1,0,0,0,1.176-.079l7.054-5.113a1.311,1.311,0,0,0,.525-1.064v-5.113H72.01v-2.557H1.474v2.557H14.406v5.113a1.3,1.3,0,0,0,.588,1.11l8.229,5.113a1.094,1.094,0,0,0,1.166,0l6.475-4.02v6.361l-6.77,8.589a1.364,1.364,0,0,0-.235,1.181l2.084,7.926-1.479.8a1.286,1.286,0,0,0-.647,1.051l-.134,1.983A131.729,131.729,0,0,1,.6,266.9L0,269.376a133.848,133.848,0,0,0,24.678,4.582.466.466,0,0,0,.056.014H24.9c3.942.352,7.893.546,11.845.546a133.807,133.807,0,0,0,36.742-5.147ZM54.015,236.1l-3.255,2.359L46.42,236.1Zm-27.039,0-3.213,2.329-3.755-2.333Zm-3.166,8.75-7.054-4.382v-3.452l6.466,4.024a1.1,1.1,0,0,0,1.236-.046l6.759-4.9h9.947l9.157,4.978a1.1,1.1,0,0,0,1.176-.079l5.231-3.789v3.324l-5.963,4.322-8.795-4.781a1.133,1.133,0,0,0-1.577.572,1.37,1.37,0,0,0-.124.578v7.746H33.215v-7.757a1.231,1.231,0,0,0-1.172-1.282,1.1,1.1,0,0,0-.591.171Zm24.8,26.567a131.43,131.43,0,0,1-14.452.511L32.14,260.894l3.914-4.26h1.236l4.35,7.1a1.223,1.223,0,0,0,.4.4l7.392,4.594Zm3.928-.718h-1.23l.658-2.153a1.331,1.331,0,0,0-.531-1.514l-7.994-4.964-4.548-7.414a1.155,1.155,0,0,0-.972-.574H35.566a1.13,1.13,0,0,0-.831.375l-4.7,5.113a1.352,1.352,0,0,0-.321,1.151l1.99,10.9-5.673-.162.081-1.213,1.753-.952a1.321,1.321,0,0,0,.605-1.494L26.29,259.5l6.291-7.979h8.182l4.364,8.309a1.231,1.231,0,0,0,.45.483l9.516,5.753Z" transform="translate(0 -233.537)" fill="url(#linear-gradient)"/>
        </g>
      </g>
    </g>
    <g id="icon" transform="translate(998.997 4199)">
      <g id="Group_153" data-name="Group 153" transform="translate(21.003)">
        <g id="Group_152" data-name="Group 152">
          <path id="Path_262" data-name="Path 262" d="M67.214,10.206,57.321.318A1.087,1.087,0,0,0,56.552,0H24.264A3.264,3.264,0,0,0,21,3.26V52.379a3.264,3.264,0,0,0,3.261,3.26H58.183a1.087,1.087,0,1,0,0-2.173H24.264a1.088,1.088,0,0,1-1.087-1.087V7.39h7.574a1.087,1.087,0,1,0,0-2.173H23.177V3.26a1.088,1.088,0,0,1,1.087-1.087h31.2V8.8a3.264,3.264,0,0,0,3.261,3.26h6.632V32.927a1.087,1.087,0,0,0,2.174,0V10.974A1.087,1.087,0,0,0,67.214,10.206Zm-8.487-.317A1.088,1.088,0,0,1,57.639,8.8V3.71l6.182,6.179Z" transform="translate(-21.003 0)" fill="url(#linear-gradient)"/>
        </g>
      </g>
      <g id="Group_155" data-name="Group 155" transform="translate(65.359 35.915)">
        <g id="Group_154" data-name="Group 154">
          <path id="Path_263" data-name="Path 263" d="M430.858,330.818a1.086,1.086,0,1,0,.319.768A1.094,1.094,0,0,0,430.858,330.818Z" transform="translate(-429.003 -330.5)" fill="url(#linear-gradient)"/>
        </g>
      </g>
      <g id="Group_157" data-name="Group 157" transform="translate(24.293 7.854)">
        <g id="Group_156" data-name="Group 156">
          <path id="Path_264" data-name="Path 264" d="M98.421,110.65l-4.981-4.979a1.087,1.087,0,0,0-.768-.318l-6.774-.007-1.328-1.327a17.373,17.373,0,0,0,4.582-10.691h.984a1.087,1.087,0,1,0,0-2.173h-.984A17.8,17.8,0,0,0,72.338,74.669V73.362a1.087,1.087,0,0,0-2.174,0v1.307A17.8,17.8,0,0,0,53.349,91.154h-.984a1.087,1.087,0,1,0,0,2.173h.984a17.8,17.8,0,0,0,16.815,16.485v1.307a1.087,1.087,0,0,0,2.174,0v-1.307a18.042,18.042,0,0,0,10.667-4.284l1.356,1.355.007,6.772a1.087,1.087,0,0,0,.318.767l4.981,4.979a2.248,2.248,0,0,0,3.838-1.591l0-3.327,3.328,0h0a2.247,2.247,0,0,0,1.59-3.836Zm-26.083-33.8A15.624,15.624,0,0,1,86.975,91.154H83.818A12.525,12.525,0,0,0,72.338,79.9Zm-2.174,0V79.9a12.525,12.525,0,0,0-11.48,11.255H55.528A15.624,15.624,0,0,1,70.164,76.847Zm0,30.787A15.624,15.624,0,0,1,55.528,93.327h3.156a12.525,12.525,0,0,0,11.48,11.255Zm1.087-5.179A10.217,10.217,0,1,1,81.693,92.24a10.036,10.036,0,0,1-2.4,6.505l-2.208-2.208a7.056,7.056,0,0,0,1.458-4.3,7.3,7.3,0,1,0-7.3,7.172,7.338,7.338,0,0,0,4.273-1.364l2.2,2.2A10.538,10.538,0,0,1,71.251,102.455ZM70.5,93.023l3.461,3.459a5.181,5.181,0,0,1-2.706.757,5,5,0,1,1,5.121-5,4.884,4.884,0,0,1-.842,2.741l-3.5-3.5A1.087,1.087,0,0,0,70.5,93.023Zm1.842,14.611v-3.052a12.684,12.684,0,0,0,6.934-2.787l2.191,2.19A15.875,15.875,0,0,1,72.338,107.634Zm10.694-5.154-2.2-2.195a12.223,12.223,0,0,0,2.981-6.958h3.156A15.208,15.208,0,0,1,83.033,102.48Zm8.253,15.4a.06.06,0,0,1-.08-.016L86.542,113.2l0-4.144.159.159h0l4.63,4.628,0,3.966A.06.06,0,0,1,91.285,117.879Zm5.614-5.612c-.019.045-.044.048-.068.045l-3.968,0-4.789-4.787,4.146,0,4.663,4.661A.06.06,0,0,1,96.9,112.267Z" transform="translate(-51.278 -72.275)" fill="url(#linear-gradient)"/>
        </g>
      </g>
      <g id="Group_159" data-name="Group 159" transform="translate(33.541 5.216)">
        <g id="Group_158" data-name="Group 158">
          <path id="Path_265" data-name="Path 265" d="M138.188,48.318a1.086,1.086,0,1,0,.319.768A1.093,1.093,0,0,0,138.188,48.318Z" transform="translate(-136.333 -48)" fill="url(#linear-gradient)"/>
        </g>
      </g>
    </g>
    <g id="icon-2" data-name="icon" transform="translate(645.898 4296)">
      <g id="Group_137" data-name="Group 137" transform="translate(24.134 24.56)">
        <g id="Group_136" data-name="Group 136">
          <rect id="Rectangle_326" data-name="Rectangle 326" width="24.56" height="2.047" fill="url(#linear-gradient-22)"/>
        </g>
      </g>
      <g id="Group_139" data-name="Group 139" transform="translate(24.148 30.7)">
        <g id="Group_138" data-name="Group 138">
          <path id="Path_257" data-name="Path 257" d="M80.1,240v2.047h19.919L102.067,240Z" transform="translate(-80.102 -239.998)" fill="url(#linear-gradient-22)"/>
        </g>
      </g>
      <g id="Group_141" data-name="Group 141" transform="translate(24.172 36.84)">
        <g id="Group_140" data-name="Group 140">
          <path id="Path_258" data-name="Path 258" d="M80.1,288v2.047H93.88L95.927,288Z" transform="translate(-80.102 -287.998)" fill="url(#linear-gradient-22)"/>
        </g>
      </g>
      <g id="Group_143" data-name="Group 143" transform="translate(24.188 42.98)">
        <g id="Group_142" data-name="Group 142">
          <rect id="Rectangle_327" data-name="Rectangle 327" width="10.233" height="2.047" fill="url(#linear-gradient-22)"/>
        </g>
      </g>
      <g id="Group_145" data-name="Group 145" transform="translate(16.102)">
        <g id="Group_144" data-name="Group 144" transform="translate(0)">
          <path id="Path_259" data-name="Path 259" d="M66.148,21.888l-2.866-2.894a2.013,2.013,0,0,0-2.866,0L38.395,41.232v5.841c4.879,0,3.645,0,5.689-.009L54.608,36.437v14.73a2.037,2.037,0,0,1-2.027,2.047H20.155a2.037,2.037,0,0,1-2.027-2.047V14.327a2.037,2.037,0,0,1,2.027-2.047h4.054v4.093H48.528V12.28h4.053a2.037,2.037,0,0,1,2.027,2.047v7.6l2.027-2.061V14.327a4.073,4.073,0,0,0-4.053-4.093h-4.4a6.117,6.117,0,0,0-4.046-3.855,2.8,2.8,0,0,1-1.92-1.939,6.066,6.066,0,0,0-11.687,0A2.808,2.808,0,0,1,28.6,6.379a6.118,6.118,0,0,0-4.046,3.854h-4.4A4.073,4.073,0,0,0,16.1,14.327v36.84a4.073,4.073,0,0,0,4.053,4.093H52.581a4.073,4.073,0,0,0,4.053-4.093V34.39l9.514-9.608A2.062,2.062,0,0,0,66.148,21.888Zm-39.913-9.64a4.11,4.11,0,0,1,2.927-3.9,4.833,4.833,0,0,0,3.309-3.341,4.044,4.044,0,0,1,7.792,0,4.828,4.828,0,0,0,3.307,3.34A4.106,4.106,0,0,1,46.5,12.28v2.047H26.235Zm17,32.775c-.526,0-.741,0-1.468,0l-1.35-1.364V42.08L41.787,40.7,44.653,43.6Zm2.846-2.874-2.866-2.894,12.9-13.025,2.866,2.895Zm14.33-14.472L57.55,24.782l1.433-1.447,2.866,2.894Zm2.866-2.894-2.866-2.895,1.433-1.447,2.866,2.894Z" transform="translate(-16.102)" fill="url(#linear-gradient-22)"/>
        </g>
      </g>
      <g id="Group_147" data-name="Group 147" transform="translate(34.867 4.605)">
        <g id="Group_146" data-name="Group 146">
          <circle id="Ellipse_84" data-name="Ellipse 84" cx="1.535" cy="1.535" r="1.535" fill="url(#linear-gradient-22)"/>
        </g>
      </g>
    </g>
    <g id="Group_208" data-name="Group 208" transform="translate(750 4296)">
      <g id="Group_199" data-name="Group 199">
        <path id="Path_321" data-name="Path 321" d="M193.545,173.953a1.245,1.245,0,0,0-2.489,0V177.6a1.245,1.245,0,0,0,2.489,0Zm0-9.736a1.245,1.245,0,0,0-2.489,0v3.651a1.245,1.245,0,0,0,2.489,0ZM192.3,192.208a1.231,1.231,0,0,0-1.245,1.217v3.651a1.245,1.245,0,0,0,2.489,0v-3.651A1.231,1.231,0,0,0,192.3,192.208Zm1.245-8.519a1.245,1.245,0,0,0-2.489,0v3.651a1.245,1.245,0,0,0,2.489,0Zm34.667-4.845-7.425,2.692a1.21,1.21,0,0,0-.734,1.564,1.247,1.247,0,0,0,1.168.795,1.279,1.279,0,0,0,.432-.077l4.755-1.723-7.729,13.027-10.113-4.564a1.259,1.259,0,0,0-1.556.428l-10.17,14.863-9.018-3.646a1.263,1.263,0,0,0-1.46.379l-8.1,10.229a1.2,1.2,0,0,0,.223,1.708,1.266,1.266,0,0,0,1.746-.217l7.519-9.5,9.082,3.674a1.261,1.261,0,0,0,1.51-.448L208.487,193.2l10.178,4.593a1.259,1.259,0,0,0,1.6-.493l8.311-14.007,1.658,4.372a1.255,1.255,0,0,0,1.6.718,1.209,1.209,0,0,0,.734-1.564l-2.753-7.26A1.252,1.252,0,0,0,228.213,178.844ZM191.056,212.9v3.651a1.245,1.245,0,0,0,2.489,0V212.9a1.245,1.245,0,0,0-2.489,0Z" transform="translate(-178 -163)" fill-rule="evenodd" fill="url(#linear-gradient)"/>
      </g>
    </g>
    <g id="Group_134" data-name="Group 134" transform="translate(1019 4297)">
      <g id="Group_127" data-name="Group 127">
        <path id="Path_251" data-name="Path 251" d="M52.229,12.111H39.856V1.842A.8.8,0,0,0,39.014,1H12.5a.909.909,0,0,0-.589.253L2.653,10.68h0a.909.909,0,0,0-.253.589V45.274a.8.8,0,0,0,.842.842H25.8c.168.926.337,1.936.589,2.862H23.948a.8.8,0,0,0-.842.842v.842a4.168,4.168,0,0,0,4.209,4.209H47.431a4.168,4.168,0,0,0,4.209-4.209v-.842a.8.8,0,0,0-.842-.842H48.357c.253-1.178.505-2.273.673-3.367h3.283A1.688,1.688,0,0,0,54,43.927V32.985A1.688,1.688,0,0,0,52.313,31.3H49.536a15.7,15.7,0,0,0-.421-2.946.82.82,0,0,0-.842-.673H39.856V21.454H52.229a1.688,1.688,0,0,0,1.683-1.683V13.878A1.708,1.708,0,0,0,52.229,12.111Zm-28.2,7.575v-2.1h21.8v2.1ZM18.813,16.74l3.535-2.273v4.461ZM45.832,15.9h-21.8v-2.1H45.748v2.1ZM11.743,3.862v6.481H5.262Zm38.214,46.8a2.48,2.48,0,0,1-2.525,2.525H27.23a2.48,2.48,0,0,1-2.525-2.525H49.957ZM52.229,32.9V43.843H49.2A56.888,56.888,0,0,0,49.62,32.9ZM46.674,48.978h-18.6a57.4,57.4,0,0,1-.926-19.7H47.684A60.678,60.678,0,0,1,46.674,48.978Zm-8.5-21.38H26.389a.82.82,0,0,0-.842.673,53.859,53.859,0,0,0,0,16.077H4.083V12.111h8.585a.8.8,0,0,0,.842-.842V2.683H38.257v9.427c-15.319,0-15.151-.084-15.487.168l-5.892,3.788a.865.865,0,0,0,0,1.431l5.892,3.788c.337.253.253.084,15.487.168V27.6Zm9.343-7.912V13.794h4.8v5.892Z" transform="translate(-2.4 -1)" fill="url(#linear-gradient)"/>
      </g>
      <g id="Group_128" data-name="Group 128" transform="translate(16.714 5.078)">
        <rect id="Rectangle_323" data-name="Rectangle 323" width="1.539" height="1.539" fill="url(#linear-gradient)"/>
      </g>
      <g id="Group_129" data-name="Group 129" transform="translate(22.623 5.078)">
        <rect id="Rectangle_324" data-name="Rectangle 324" width="1.539" height="1.539" fill="url(#linear-gradient)"/>
      </g>
      <g id="Group_130" data-name="Group 130" transform="translate(28.532 5.078)">
        <rect id="Rectangle_325" data-name="Rectangle 325" width="1.539" height="1.539" fill="url(#linear-gradient)"/>
      </g>
      <g id="Group_131" data-name="Group 131" transform="translate(4.539 23.971)">
        <path id="Path_252" data-name="Path 252" d="M20.61,29.4H9.069a.769.769,0,0,0,0,1.539H20.61a.727.727,0,0,0,.769-.769A.827.827,0,0,0,20.61,29.4Z" transform="translate(-8.3 -29.4)" fill="url(#linear-gradient)"/>
      </g>
      <g id="Group_132" data-name="Group 132" transform="translate(4.539 30.301)">
        <path id="Path_253" data-name="Path 253" d="M9.069,38.439h9.463a.769.769,0,0,0,0-1.539H9.069a.769.769,0,0,0,0,1.539Z" transform="translate(-8.3 -36.9)" fill="url(#linear-gradient)"/>
      </g>
      <g id="Group_133" data-name="Group 133" transform="translate(4.539 36.716)">
        <path id="Path_254" data-name="Path 254" d="M20.61,44.5H9.069a.769.769,0,0,0,0,1.539H20.61a.727.727,0,0,0,.769-.769A.771.771,0,0,0,20.61,44.5Z" transform="translate(-8.3 -44.5)" fill="url(#linear-gradient)"/>
      </g>
    </g>
    <g id="Group_135" data-name="Group 135" transform="translate(841 4296)">
      <path id="Path_255" data-name="Path 255" d="M4.261,17.716a13.393,13.393,0,0,1,9.87,2.176,20.891,20.891,0,0,1,2.908,2.089l.441.522.7-.174c.088,0,.264-.087.352-.087a18.84,18.84,0,0,1,9.782.348l-1.5,4.353a1.068,1.068,0,0,0,.7,1.393c.088,0,.264.087.352.087a1.145,1.145,0,0,0,1.057-.7l1.5-4.353a17.6,17.6,0,0,1,4.935,2.7A19.144,19.144,0,0,1,37.308,27.9l.617.609.617-.087c4.23-.7,8.372-.087,11.192,1.654a12.6,12.6,0,0,1,1.322.958,1.918,1.918,0,0,1,.441.348,1.215,1.215,0,0,1,.352.261l.176.174c.176.174.353.348.441.348l.529.348.617-.261a1.085,1.085,0,0,0,.617-1.045v-.174a1.9,1.9,0,0,1,.088-.7c.264-7.226-2.467-13.58-8.019-18.891a28.638,28.638,0,0,0-9.782-6.181l1.234-3.482a1.068,1.068,0,0,0-.7-1.393,1.086,1.086,0,0,0-1.41.7L34.4,4.571a26.634,26.634,0,0,0-2.82-.7,29.751,29.751,0,0,0-15.422.783A25.491,25.491,0,0,0,3.38,14.408a12.86,12.86,0,0,0-.7,1.132,1.438,1.438,0,0,0,.088,1.567A1.5,1.5,0,0,0,4.261,17.716ZM17.039,6.747a28.233,28.233,0,0,1,14.276-.783,27.475,27.475,0,0,1,13.571,7.051c4.847,4.614,7.226,9.837,7.314,15.931-.441-.348-.881-.609-1.234-.871a17.408,17.408,0,0,0-8.989-2.263,19.5,19.5,0,0,0-3.172.261,19.144,19.144,0,0,0-1.939-1.828,21.319,21.319,0,0,0-6.609-3.4.086.086,0,0,1-.088-.087h-.088l-.793-.261a22.166,22.166,0,0,0-11.1-.522,25.139,25.139,0,0,0-2.908-2,16.52,16.52,0,0,0-9.958-2.612A23.126,23.126,0,0,1,17.039,6.747Z" transform="translate(-2.486 -0.339)" fill="url(#linear-gradient)"/>
      <path id="Path_256" data-name="Path 256" d="M15.646,53.607a53.781,53.781,0,0,0,4.614,3.134c.609.435,1.306.783,1.915,1.219l.783.522,1.567,1.045a2.32,2.32,0,0,0,1.132.435,1.1,1.1,0,0,0,.522-.087,1.4,1.4,0,0,0,.609-.348l1.567-1.045.783-.522c.609-.435,1.219-.783,1.915-1.219a39.185,39.185,0,0,0,4.614-3.134,11.832,11.832,0,0,0,4.875-9.141,6.014,6.014,0,0,0-.174-2.438c-.087-.348-.087-.609-.174-.958a8.967,8.967,0,0,0-4-5.833,8.967,8.967,0,0,0-7.226-.609,12.409,12.409,0,0,0-2.438,1.132,3.785,3.785,0,0,0-.609.348.658.658,0,0,1-.348.087.674.674,0,0,1-.261-.087c-.261-.087-.435-.261-.7-.348a12.409,12.409,0,0,0-2.438-1.132,8.967,8.967,0,0,0-7.226.609,8.559,8.559,0,0,0-4,5.833,3.7,3.7,0,0,0-.174.958,7.914,7.914,0,0,0-.174,2.438A12.037,12.037,0,0,0,15.646,53.607ZM12.86,44.292a5.462,5.462,0,0,1,.087-1.654v-.174a2.542,2.542,0,0,1,.174-.783,6.606,6.606,0,0,1,2.96-4.44,5.881,5.881,0,0,1,3.047-.783,8.242,8.242,0,0,1,2.438.348,10.476,10.476,0,0,1,2,.958c.261.174.435.261.7.435a2.773,2.773,0,0,0,2.612,0c.261-.087.435-.261.7-.348a8.294,8.294,0,0,1,2-.958,6.609,6.609,0,0,1,5.484.435,6.411,6.411,0,0,1,2.96,4.44c.087.261.087.522.174.783v.174a5.462,5.462,0,0,1,.087,1.654v.087a9.832,9.832,0,0,1-4.092,7.487c-1.393,1.045-2.873,2-4.44,2.96-.609.435-1.306.783-1.915,1.219l-.783.522c-.522.348-1.045.7-1.48,1.045L24,56.654l-.783-.522c-.609-.435-1.306-.783-1.915-1.219-1.48-.958-3.047-1.915-4.44-2.96-2.7-2.089-4.092-4.614-4.092-7.487Z" transform="translate(-3.533 -4.717)" fill="url(#linear-gradient)"/>
    </g>
    <g id="Group_205" data-name="Group 205" transform="translate(1122 4296)">
      <g id="Group_204" data-name="Group 204">
        <g id="Group_203" data-name="Group 203">
          <path id="Path_323" data-name="Path 323" d="M36.414,6.788C36.414,2.768,29.77,0,21.707,0S7,2.768,7,6.788s6.644,6.788,14.707,6.788S36.414,10.807,36.414,6.788Zm-27.151,0c0-2.228,5.512-4.525,12.444-4.525s12.444,2.3,12.444,4.525-5.512,4.525-12.444,4.525S9.263,9.016,9.263,6.788Z" transform="translate(8.699)" fill-rule="evenodd" fill="url(#linear-gradient-38)"/>
          <path id="Path_324" data-name="Path 324" d="M7,9.788c0,4.02,6.644,6.788,14.707,6.788s14.707-2.768,14.707-6.788V3H34.151V9.788c0,2.228-5.512,4.525-12.444,4.525S9.263,12.016,9.263,9.788V3H7Z" transform="translate(8.699 3.788)" fill-rule="evenodd" fill="url(#linear-gradient-38)"/>
          <path id="Path_325" data-name="Path 325" d="M7,12.808q0-.01,0-.02V6H9.263v6.788a1.38,1.38,0,0,0,.013.189C8.543,12.894,7.783,12.837,7,12.808Zm11.357,6.6c1.078.108,2.2.165,3.35.165,8.063,0,14.707-2.768,14.707-6.788V6H34.151v6.788c0,2.228-5.512,4.525-12.444,4.525a30.4,30.4,0,0,1-3.407-.189,1.379,1.379,0,0,1,.013.189C18.313,17.5,18.33,18.267,18.357,19.411Z" transform="translate(8.699 7.576)" fill-rule="evenodd" fill="url(#linear-gradient-38)"/>
          <path id="Path_326" data-name="Path 326" d="M18.531,22.428c1.024.1,2.087.148,3.176.148,8.063,0,14.707-2.768,14.707-6.788V9H34.151v6.788c0,2.228-5.512,4.525-12.444,4.525a30.47,30.47,0,0,1-3.236-.17C18.491,20.878,18.511,21.645,18.531,22.428ZM9.263,9.188V9H7v.02C7.778,9.049,8.534,9.106,9.263,9.188Z" transform="translate(8.699 11.364)" fill-rule="evenodd" fill="url(#linear-gradient-38)"/>
          <path id="Path_327" data-name="Path 327" d="M29.414,15.788C29.414,11.768,22.77,9,14.707,9S0,11.768,0,15.788s6.644,6.788,14.707,6.788S29.414,19.807,29.414,15.788Zm-27.151,0c0-2.228,5.512-4.525,12.444-4.525s12.444,2.3,12.444,4.525-5.512,4.525-12.444,4.525S2.263,18.016,2.263,15.788Z" transform="translate(0 11.364)" fill-rule="evenodd" fill="url(#linear-gradient-38)"/>
          <path id="Path_328" data-name="Path 328" d="M0,18.788c0,4.02,6.644,6.788,14.707,6.788s14.707-2.768,14.707-6.788V12H27.151v6.788c0,2.228-5.512,4.525-12.444,4.525s-12.444-2.3-12.444-4.525V12H0Z" transform="translate(0 15.151)" fill-rule="evenodd" fill="url(#linear-gradient-38)"/>
          <path id="Path_329" data-name="Path 329" d="M0,21.788c0,4.02,6.644,6.788,14.707,6.788s14.707-2.768,14.707-6.788V15H27.151v6.788c0,2.228-5.512,4.525-12.444,4.525s-12.444-2.3-12.444-4.525V15H0Z" transform="translate(0 18.939)" fill-rule="evenodd" fill="url(#linear-gradient-38)"/>
          <path id="Path_330" data-name="Path 330" d="M0,24.788c0,4.02,6.644,6.788,14.707,6.788s14.707-2.768,14.707-6.788V18H27.151v6.788c0,2.228-5.512,4.525-12.444,4.525s-12.444-2.3-12.444-4.525V18H0Z" transform="translate(0 22.727)" fill-rule="evenodd" fill="url(#linear-gradient-38)"/>
          <path id="Path_331" data-name="Path 331" d="M12.21,25.445c.968.086,1.97.131,3,.131,8.063,0,14.707-2.768,14.707-6.788V12H27.65v6.788c0,2.228-5.512,4.525-12.444,4.525a30.546,30.546,0,0,1-3.056-.152C12.17,23.942,12.191,24.708,12.21,25.445Z" transform="translate(15.201 15.151)" fill-rule="evenodd" fill="url(#linear-gradient-38)"/>
          <path id="Path_332" data-name="Path 332" d="M12.292,28.46c.911.076,1.851.115,2.812.115,8.063,0,14.707-2.768,14.707-6.788V15H27.548v6.788c0,2.228-5.512,4.525-12.444,4.525-.991,0-1.953-.047-2.873-.134.032,1.169.054,1.991.062,2.281Z" transform="translate(15.303 18.939)" fill-rule="evenodd" fill="url(#linear-gradient-38)"/>
        </g>
      </g>
    </g>
    <g id="icon-3" data-name="icon" transform="translate(14 3237)">
      <path id="Path_245" data-name="Path 245" d="M385.669,270.613a.8.8,0,0,0-.8.8,1.018,1.018,0,1,1-2.036,0,.8.8,0,0,0-1.6,0,2.621,2.621,0,1,0,5.242,0A.8.8,0,0,0,385.669,270.613Z" transform="translate(573.279 818.351)" fill="url(#linear-gradient)"/>
      <path id="Path_249" data-name="Path 249" d="M165.931,130.159h-.595a2.662,2.662,0,0,0-.5-1.08h1.094a.54.54,0,0,0,0-1.08h-5.4a.54.54,0,0,0,0,1.08h2.159a1.617,1.617,0,0,1,1.52,1.08h-3.68a.54.54,0,0,0,0,1.08h3.68a1.617,1.617,0,0,1-1.52,1.08h-2.159a.54.54,0,0,0-.5.334.535.535,0,0,0,0,.412.514.514,0,0,0,.118.176l4.318,4.318a.54.54,0,1,0,.764-.762l-3.4-3.4h.856a2.7,2.7,0,0,0,2.644-2.159h.595a.54.54,0,0,0,0-1.08Z" transform="translate(775.604 938.546)" fill="url(#linear-gradient)"/>
      <path id="Path_246" data-name="Path 246" d="M52.982,33.811l-2.256-.723a.944.944,0,0,1-.609-.617,14.548,14.548,0,0,0-2.133-4.219,15.482,15.482,0,0,0-1.425-1.681,19.886,19.886,0,0,0,.49-4.541c-.034-2.043-.442-3.241-1.248-3.663-.434-.228-1.755-.919-8.907,2.354a2.6,2.6,0,0,0-.474.282c-.482-.13-.975-.249-1.471-.357l-.181-.037a10.921,10.921,0,0,0,.981-4.06.8.8,0,0,0-1.6-.072,9.328,9.328,0,0,1-6.1,8.34,23.249,23.249,0,0,0-6.453,0,9.335,9.335,0,1,1,11.571-12.96.8.8,0,0,0,1.432-.721,10.943,10.943,0,1,0-15.583,14.2h0q-.748.194-1.482.439a.8.8,0,0,0,.508,1.521,21.515,21.515,0,0,1,13.56,0,.8.8,0,0,0,.508-1.521q-.734-.245-1.482-.439h0a10.932,10.932,0,0,0,3.328-3.254c.221.043.44.088.657.135q.432.094.859.2c-.009.035-.018.07-.026.105a9.561,9.561,0,0,0,.075,4.877,5.8,5.8,0,0,0,2.126,2.989,6.744,6.744,0,0,0,3.946,1.252,5.29,5.29,0,0,0,2.557-.591,4.882,4.882,0,0,0,1.885-2.676q.346.4.656.829a12.945,12.945,0,0,1,1.9,3.755,2.55,2.55,0,0,0,1.65,1.663l2.256.723a1.42,1.42,0,0,1,.99,1.356v3.741a1.42,1.42,0,0,1-.99,1.356l-3.635,1.164a2.477,2.477,0,0,0-1.386,1.126A15.979,15.979,0,0,1,40.8,50.154a1.256,1.256,0,0,0-.659.885L38.974,57.2a.36.36,0,0,1-.354.293H34.834a.36.36,0,0,1-.354-.293L33.836,53.8A1.26,1.26,0,0,0,32.4,52.784a33.513,33.513,0,0,1-4.994.372,31.962,31.962,0,0,1-3.674-.208,1.27,1.27,0,0,0-1.389,1.019L21.733,57.2a.36.36,0,0,1-.354.293H17.593a.361.361,0,0,1-.354-.3l-1.121-5.823a1.259,1.259,0,0,0-.647-.875A14.159,14.159,0,0,1,7.652,37.31,15.412,15.412,0,0,1,9.59,29.475,13.987,13.987,0,0,1,14.8,24.388.8.8,0,0,0,14,23,15.259,15.259,0,0,0,6.255,34.4h0l-.231-.022a3.992,3.992,0,0,0-.294-1.6A3.284,3.284,0,0,0,3.3,30.651a2.216,2.216,0,0,0-2.086.929,2.111,2.111,0,0,0-.4,2.3c.4.832,1.442,1.421,3.164,1.791q-.071.106-.156.214a3.934,3.934,0,0,1-3,1.585A.842.842,0,0,0,0,38.311v0a.84.84,0,0,0,.8.837q.086,0,.18,0A5.207,5.207,0,0,0,5.07,36.888a4.572,4.572,0,0,0,.585-.946q.227.026.436.045h0c-.027.434-.042.875-.042,1.324a16.521,16.521,0,0,0,2.365,8.847,16.208,16.208,0,0,0,6.16,5.684l1.09,5.661a1.965,1.965,0,0,0,1.929,1.6h3.786a1.965,1.965,0,0,0,1.929-1.6l.554-2.927a33.786,33.786,0,0,0,3.547.184,35.22,35.22,0,0,0,4.912-.342l.584,3.086a1.965,1.965,0,0,0,1.929,1.6H38.62a1.965,1.965,0,0,0,1.929-1.6l1.134-6a17.479,17.479,0,0,0,7.177-6.614.876.876,0,0,1,.487-.4l3.635-1.164a3.018,3.018,0,0,0,2.1-2.884V36.694A3.018,3.018,0,0,0,52.982,33.811Zm-7.657-9.528c-.309,2.639-1.136,4.9-1.968,5.367a4.906,4.906,0,0,1-4.766-.56c-1.641-1.2-2.187-3.358-1.579-6.241h0a.967.967,0,0,1,.55-.67c4.014-1.837,6.328-2.438,7.187-2.438a.838.838,0,0,1,.291.039C45.3,20.056,45.637,21.62,45.326,24.283Zm-43.075,8.9c-.083-.171.113-.472.237-.636A.64.64,0,0,1,3,32.235a.6.6,0,0,1,.081.006,1.747,1.747,0,0,1,1.159,1.135,2.434,2.434,0,0,1,.168.756C3.3,33.9,2.438,33.57,2.251,33.184Z" transform="translate(914 1054.885)" fill="url(#linear-gradient)"/>
    </g>
    <g id="Group_209" data-name="Group 209" transform="translate(42 -180)">
      <g id="Angle-right-icon" transform="translate(654.599 4579.977)">
        <path id="Path_155" data-name="Path 155" d="M13.957,31.008a1.593,1.593,0,0,0,2.173,0l9.968-9.5a1.428,1.428,0,0,0,0-2.08L16.13,9.94a1.593,1.593,0,0,0-2.173,0,1.416,1.416,0,0,0,0,2.07l8.886,8.464-8.886,8.468a1.416,1.416,0,0,0,0,2.066Z" transform="translate(-13.508 -9.512)" fill="#3d30ee"/>
      </g>
      <g id="Angle-left-icon" transform="translate(635.04 4601.9) rotate(180)">
        <path id="Path_155-2" data-name="Path 155" d="M.449,21.5a1.593,1.593,0,0,0,2.173,0L12.59,12a1.428,1.428,0,0,0,0-2.08L2.622.428a1.593,1.593,0,0,0-2.173,0,1.416,1.416,0,0,0,0,2.07l8.886,8.464L.449,19.43a1.416,1.416,0,0,0,0,2.066Z" transform="translate(0 0)" fill="#3d30ee"/>
      </g>
    </g>
    <g id="Group_210" data-name="Group 210" transform="translate(43 -180)">
      <g id="Angle-right-icon-2" data-name="Angle-right-icon" transform="translate(744.599 4579.977)">
        <path id="Path_155-3" data-name="Path 155" d="M13.957,31.008a1.593,1.593,0,0,0,2.173,0l9.968-9.5a1.428,1.428,0,0,0,0-2.08L16.13,9.94a1.593,1.593,0,0,0-2.173,0,1.416,1.416,0,0,0,0,2.07l8.886,8.464-8.886,8.468a1.416,1.416,0,0,0,0,2.066Z" transform="translate(-13.508 -9.512)" fill="#d4cdfd"/>
      </g>
      <g id="Angle-left-icon-2" data-name="Angle-left-icon" transform="translate(725.04 4601.9) rotate(180)">
        <path id="Path_155-4" data-name="Path 155" d="M.449,21.5a1.593,1.593,0,0,0,2.173,0L12.59,12a1.428,1.428,0,0,0,0-2.08L2.622.428a1.593,1.593,0,0,0-2.173,0,1.416,1.416,0,0,0,0,2.07l8.886,8.464L.449,19.43a1.416,1.416,0,0,0,0,2.066Z" transform="translate(0 0)" fill="#d4cdfd"/>
      </g>
    </g>
    <path id="search-icon" d="M21.8,25.025q.847.956.169,1.743l-1.3,1.294a1.249,1.249,0,0,1-1.92,0l-5.365-5.343A8.822,8.822,0,0,1,8.98,23.9a8.639,8.639,0,0,1-6.3-2.671A8.567,8.567,0,0,1,0,14.957,8.424,8.424,0,0,1,2.542,8.8,8.356,8.356,0,0,1,8.7,6.24a8.732,8.732,0,0,1,6.326,2.671,8.524,8.524,0,0,1,2.711,6.271,8.437,8.437,0,0,1-1.3,4.556L21.8,25.025ZM2.655,14.957a6.022,6.022,0,0,0,1.92,4.387A6.071,6.071,0,0,0,8.98,21.256a5.829,5.829,0,0,0,4.264-1.772,5.845,5.845,0,0,0,1.779-4.3,5.931,5.931,0,0,0-1.92-4.359A6.115,6.115,0,0,0,8.7,8.94a5.829,5.829,0,0,0-4.264,1.772,5.78,5.78,0,0,0-1.779,4.246h0Z" transform="translate(856 4393.736)" fill="#3d30ee"/>
    <path id="search-icon-2" data-name="search-icon" d="M21.8,25.025q.847.956.169,1.743l-1.3,1.294a1.249,1.249,0,0,1-1.92,0l-5.365-5.343A8.822,8.822,0,0,1,8.98,23.9a8.639,8.639,0,0,1-6.3-2.671A8.567,8.567,0,0,1,0,14.957,8.424,8.424,0,0,1,2.542,8.8,8.356,8.356,0,0,1,8.7,6.24a8.732,8.732,0,0,1,6.326,2.671,8.524,8.524,0,0,1,2.711,6.271,8.437,8.437,0,0,1-1.3,4.556L21.8,25.025ZM2.655,14.957a6.022,6.022,0,0,0,1.92,4.387A6.071,6.071,0,0,0,8.98,21.256a5.829,5.829,0,0,0,4.264-1.772,5.845,5.845,0,0,0,1.779-4.3,5.931,5.931,0,0,0-1.92-4.359A6.115,6.115,0,0,0,8.7,8.94a5.829,5.829,0,0,0-4.264,1.772,5.78,5.78,0,0,0-1.779,4.246h0Z" transform="translate(945 4393.736)" fill="#d4cdfd"/>
  </g>
</svg>
